<?xml version="1.0" encoding="UTF-8" standalone="no"?>
<!DOCTYPE svg PUBLIC "-//W3C//DTD SVG 1.1//EN" "http://www.w3.org/Graphics/SVG/1.1/DTD/svg11.dtd">
<svg width="100%" height="100%" viewBox="0 0 300 300" version="1.1" xmlns="http://www.w3.org/2000/svg" xmlns:xlink="http://www.w3.org/1999/xlink" xml:space="preserve" style="fill-rule:evenodd;clip-rule:evenodd;stroke-linecap:round;stroke-linejoin:round;stroke-miterlimit:1.5;">
    <g transform="matrix(1,0,0,1,-238.6,-133.15)">
        <circle cx="491.8" cy="250.2" r="14.6" style="fill:rgb(0,80,127);"/>
    </g>
    <g transform="matrix(1,0,0,1,-238.6,-133.15)">
        <circle cx="281.2" cy="224.6" r="14.6" style="fill:rgb(50,189,188);"/>
    </g>
    <g transform="matrix(1,0,0,1,-238.6,-133.15)">
        <path d="M492.3,330.2C491.726,331.769 503.333,337.858 504.4,336.1C518.2,307.8 477,253.9 412,225.1C412,225.1 329.9,184.3 284.6,211.7L295.6,220.1C295.6,220.1 329.7,200.5 405.4,237.6C481.1,274.7 499,316.6 492.3,330.2Z" style="fill:rgb(50,189,188);fill-rule:nonzero;"/>
    </g>
    <g transform="matrix(1,0,0,1,-238.6,-133.15)">
        <path d="M503.8,222.8C503.8,222.8 486.7,155.9 358.4,230.2C291.8,268.8 262.022,322.529 278.5,349.3C280.353,350.633 290.139,347.232 290.1,342.3C282.3,329.3 297.4,281.6 364.8,242.1C472.6,179 488.3,223.6 488.3,223.6C488.3,223.6 496.2,220.3 503.8,222.8Z" style="fill:rgb(0,80,127);fill-rule:nonzero;"/>
    </g>
    <g transform="matrix(1,0,0,1,-238.6,-133.15)">
        <path d="M389.2,397C388.315,398.206 388.165,410.428 389.2,410.5C420.7,410.5 451,349.8 448.3,278.7C448.3,278.7 448.8,187.1 404.4,158.3L401.7,171.9C401.7,171.9 434.2,193.9 434.2,278.2C434.2,362.5 404.4,397 389.2,397Z" style="fill:rgb(242,95,70);fill-rule:nonzero;"/>
    </g>
    <g transform="matrix(1,0,0,1,-238.6,-133.15)">
        <path d="M360.4,164.9C360.4,164.9 327.9,203.9 327.9,280.9C327.9,357.9 357.7,410.5 389.2,410.5C389.721,409.625 389.295,397.648 389.2,397C374,397 341.5,359.6 341.5,281.5C341.5,203.4 368.1,180.1 368.1,180.1C368.1,180.1 361.5,173.6 360.4,164.9Z" style="fill:rgb(242,95,70);fill-rule:nonzero;"/>
    </g>
    <g transform="matrix(1,0,0,1,-238.6,-133.15)">
        <path d="M290.1,342.3C288.321,342.322 278.365,346.76 278.5,349.3C289.645,378.694 362.3,371.2 421.9,332.5C421.9,332.5 497.3,292.2 499.1,239.3L489.7,237.7C489.7,237.7 487.5,276.9 415.1,320.1C345.078,361.881 300.78,355.864 290.979,343.573C290.646,343.155 290.353,342.73 290.1,342.3Z" style="fill:rgb(0,80,127);fill-rule:nonzero;"/>
    </g>
    <g transform="matrix(1,0,0,1,-238.6,-133.15)">
        <circle cx="391.3" cy="161.1" r="14.6" style="fill:rgb(242,95,70);"/>
    </g>
    <g transform="matrix(1,0,0,1,-238.6,-133.15)">
        <path d="M271.1,254C271.1,254 291.9,300.4 361.1,334.2C430.3,368 490.6,364.4 504.4,336.1C503.552,334.879 493.807,330.466 492.3,330.2C485.6,343.8 437.7,356.6 367.6,322.3C297.5,288 288.2,253.9 288.2,253.9C288.2,253.9 279.3,256.8 271.1,254Z" style="fill:rgb(50,189,188);fill-rule:nonzero;"/>
    </g>
    <g transform="matrix(1,0,0,1,-1,0)">
        <g transform="matrix(0.316241,0,0,0.316241,103.888,103.271)">
            <path d="M141.527,46.338C135.286,46.338 127.71,45.348 121.96,47.149C120.399,47.638 116.09,50.044 115.01,51.111C113.983,52.126 110.549,52.73 109.081,53.309C104.106,55.272 98.882,58.074 94.996,60.611C92.32,62.357 90.45,65.63 88.271,67.793C84.166,71.868 78.527,74.269 74.754,79.005C70.384,84.491 68.222,89.989 64.224,95.462C62.21,98.221 58.718,102.441 57.866,105.811C56.904,109.618 56.247,113.536 55.273,117.392C54.712,119.612 53.15,120.945 52.22,122.782C49.85,127.467 47.327,136.853 49.094,142.453C50.17,145.863 52.702,149.067 53.921,152.631C54.951,155.641 55.494,159.26 57.651,161.981C61.664,167.046 67.485,171.543 72.868,175.084C77.224,177.949 82.004,177.346 85.768,182.096C88.584,185.65 89.354,189.502 91.941,192.089C93.367,193.515 91.131,195.606 93.196,196.639C98.37,199.226 103.697,193.26 108.538,194.471C118.734,197.02 130.419,197.334 141.593,197.334C144.603,197.334 150.5,199.285 153.321,197.858C157.227,195.881 166.706,194.554 171.222,195.979C173.76,196.78 176.923,195.978 179.495,196.79C184.714,198.437 189.99,201.013 195.607,202.167C197.987,202.656 202.372,201.442 204.504,202.508C206.958,203.735 211.114,203.971 213.931,203.555C229.539,201.247 233.598,184.833 239.223,173.447C240.567,170.726 238.533,166.679 239.877,163.959C240.791,162.109 242.446,160.015 243.788,158.657C244.424,158.013 244.033,155.259 244.325,154.379C245.767,150.022 246.911,145.63 248.732,141.944C249.201,140.996 248.175,138.123 248.889,137.4C249.561,136.72 250.389,132.748 249.674,131.318C247.081,126.132 243.847,120.759 241.317,115.7C240.425,113.916 241.898,110.925 241,109.128C238.365,103.858 236.004,96.933 233.01,90.945C232.071,89.066 228.385,86.454 226.622,84.691C223.998,82.067 221.334,79.062 218.647,76.376C217.693,75.422 217.116,73.365 215.857,72.736C212.021,70.817 206.944,68.519 203.226,66.209C202.167,65.551 200.179,62.514 199.166,61.467C196.043,58.237 190.202,56.02 187.29,53.109C184.596,50.415 177.714,52.475 174.483,50.859C171.508,49.372 166.418,49.827 162.913,48.716C155.246,46.286 146.733,45.544 139.481,45.544" style="fill:rgb(250,151,24);stroke:black;stroke-width:3.16px;"/>
        </g>
        <g transform="matrix(0.0094259,0,0,-0.0094259,108.911,190.734)">
            <path d="M4097,8834C4095,8832 4035,8823 3964,8815C3750,8790 3614,8765 3400,8709C3214,8661 3099,8627 3030,8600C3000,8588 2964,8575 2950,8570C2891,8550 2732,8486 2681,8461C2539,8392 2383,8313 2335,8285C2302,8266 2266,8245 2255,8239C2224,8223 2216,8219 2050,8111C1970,8059 1802,7937 1734,7881C1717,7867 1692,7846 1679,7836C1604,7776 1489,7670 1370,7551C1253,7433 1210,7386 1117,7276C787,6887 491,6359 326,5865C252,5645 222,5526 160,5205C80,4797 85,4141 170,3695C182,3635 196,3565 200,3540C219,3446 276,3233 305,3150C312,3131 323,3097 330,3075C388,2890 513,2608 647,2360C766,2138 971,1844 1145,1645C1156,1632 1190,1593 1220,1559C1325,1438 1544,1226 1645,1147C1660,1135 1692,1109 1716,1090C1884,951 2039,842 2255,713C2418,615 2752,453 2880,410C2894,405 2930,392 2960,380C3242,269 3642,173 3990,134C4198,110 4789,110 4989,133C5228,161 5492,210 5625,250C5642,255 5702,273 5760,290C5876,325 5947,348 6030,380C6060,392 6096,405 6110,410C6134,418 6164,430 6265,473C6345,507 6683,679 6700,695C6709,703 6721,710 6726,710C6731,710 6766,730 6803,755C6841,780 6873,800 6875,800C6889,800 7235,1054 7305,1115C7322,1129 7351,1155 7370,1171C7544,1321 7648,1425 7830,1629C7951,1765 8165,2062 8280,2255C8519,2653 8686,3081 8793,3565C8807,3628 8821,3708 8850,3895C8895,4176 8897,4685 8854,5030C8809,5397 8692,5828 8541,6185C8379,6566 8171,6905 7865,7285C7781,7389 7561,7617 7458,7707C7408,7750 7360,7792 7351,7800C7306,7841 7101,8000 7028,8051C6798,8211 6478,8389 6221,8499C6106,8548 5766,8667 5675,8689C5365,8766 5209,8796 4985,8822C4889,8833 4107,8844 4097,8834ZM4988,8756C5061,8748 5147,8736 5178,8730C5209,8724 5271,8712 5315,8704C5521,8664 5743,8604 5930,8538C6008,8511 6047,8496 6210,8430C6293,8396 6586,8248 6684,8190C6938,8040 7181,7861 7401,7664C7637,7451 7879,7178 8043,6940C8119,6830 8216,6679 8242,6632C8259,6601 8290,6544 8311,6505C8422,6305 8533,6045 8613,5795C8706,5510 8730,5402 8795,4975C8811,4869 8824,4656 8824,4480C8825,4356 8811,4060 8805,4050C8802,4045 8791,3974 8780,3893C8743,3620 8734,3579 8637,3230C8606,3118 8515,2875 8458,2750C8371,2559 8273,2372 8199,2256C8178,2222 8148,2175 8133,2150C8109,2109 7933,1862 7920,1850C7917,1847 7899,1825 7880,1800C7753,1634 7431,1304 7274,1180C7231,1146 7193,1115 7190,1111C7178,1096 7016,977 6920,913C6673,748 6421,612 6145,495C5978,424 5640,318 5455,277C5084,197 4881,176 4490,176C4140,176 4026,186 3690,246C3473,285 3182,366 2990,440C2960,452 2924,465 2910,470C2776,513 2374,713 2242,801C2218,817 2197,830 2194,830C2173,830 1820,1088 1697,1193C1497,1363 1241,1623 1134,1764C1113,1792 1089,1821 1081,1830C1072,1839 1051,1866 1034,1891C1017,1915 977,1971 945,2015C890,2090 751,2307 737,2340C733,2348 715,2382 696,2415C625,2538 521,2758 470,2890C452,2937 427,3003 413,3038C400,3072 380,3131 370,3168C359,3205 345,3249 339,3265C333,3282 324,3311 320,3330C316,3349 303,3401 291,3445C251,3595 198,3903 184,4060C152,4432 157,4701 204,5045C218,5151 231,5227 260,5375C269,5425 291,5511 320,5615C332,5659 346,5709 350,5725C361,5767 415,5924 440,5990C452,6020 465,6058 470,6073C475,6089 483,6107 488,6113C493,6120 513,6164 533,6211C659,6509 901,6906 1115,7164C1503,7634 1899,7965 2410,8250C2536,8320 2824,8455 2900,8480C2914,8485 2957,8501 2995,8515C3344,8649 3753,8737 4200,8774C4309,8783 4863,8771 4988,8756Z" style="fill-rule:nonzero;"/>
        </g>
        <g transform="matrix(0.0094259,0,0,-0.0094259,108.911,190.734)">
            <path d="M4513,8604C4444,8573 4400,8515 4400,8453C4400,8370 4444,8320 4565,8265C4674,8216 4700,8190 4700,8129C4700,8090 4695,8076 4674,8056C4607,7995 4474,8001 4421,8067C4384,8114 4366,8111 4374,8058C4378,8035 4386,8010 4391,8004C4410,7981 4473,7966 4545,7967C4689,7967 4780,8047 4780,8172C4780,8245 4737,8295 4635,8340C4512,8393 4479,8419 4478,8466C4476,8542 4517,8575 4608,8574C4658,8573 4675,8569 4695,8550C4724,8523 4750,8529 4750,8563C4750,8602 4722,8617 4640,8622C4576,8627 4557,8624 4513,8604Z" style="fill-rule:nonzero;"/>
        </g>
        <g transform="matrix(0.0094259,0,0,-0.0094259,108.911,190.734)">
            <path d="M3673,8540C3584,8522 3558,8483 3632,8478C3679,8475 3674,8483 3703,8354C3711,8321 3722,8278 3728,8259C3787,8074 3785,8071 3673,8154C3624,8190 3563,8236 3535,8255C3508,8275 3447,8319 3400,8354C3281,8442 3285,8440 3213,8423C3155,8408 3132,8390 3146,8369C3149,8363 3160,8362 3171,8365C3225,8382 3242,8351 3289,8150C3307,8076 3327,7995 3335,7970C3362,7881 3363,7862 3341,7850C3329,7844 3320,7832 3320,7823C3320,7810 3328,7809 3371,7814C3426,7822 3492,7849 3494,7865C3494,7871 3476,7876 3454,7878C3408,7881 3410,7876 3365,8050C3346,8125 3322,8211 3309,8256C3304,8273 3300,8289 3300,8293C3300,8315 3345,8289 3476,8193C3556,8133 3667,8052 3721,8013C3815,7944 3860,7924 3860,7953C3860,7959 3853,7985 3845,8010C3830,8055 3785,8231 3769,8305C3764,8327 3752,8379 3741,8420C3721,8494 3721,8495 3741,8509C3751,8516 3760,8529 3760,8536C3760,8551 3738,8552 3673,8540Z" style="fill-rule:nonzero;"/>
        </g>
        <g transform="matrix(0.0094259,0,0,-0.0094259,108.911,190.734)">
            <path d="M5390,8491C5390,8479 5401,8468 5420,8461C5455,8449 5458,8426 5436,8346C5423,8300 5414,8268 5374,8115C5330,7945 5328,7941 5301,7938C5266,7934 5265,7898 5300,7889C5314,7885 5350,7874 5381,7866C5450,7846 5490,7845 5490,7864C5490,7871 5477,7883 5460,7890C5426,7904 5415,7928 5429,7961C5434,7974 5455,8053 5475,8135C5505,8262 5529,8355 5545,8407C5547,8413 5561,8420 5577,8422C5621,8427 5612,8453 5560,8468C5535,8475 5495,8487 5470,8495C5409,8515 5390,8514 5390,8491Z" style="fill-rule:nonzero;"/>
        </g>
        <g transform="matrix(0.0094259,0,0,-0.0094259,108.911,190.734)">
            <path d="M6190,8240C6178,8232 6179,8228 6196,8208C6231,8170 6232,8162 6207,8118C6194,8094 6141,7999 6090,7905C5978,7700 5984,7707 5958,7721C5934,7734 5916,7721 5926,7697C5932,7681 6050,7610 6070,7610C6087,7610 6081,7646 6060,7665C6049,7675 6040,7687 6040,7691C6040,7708 6175,7965 6227,8049C6253,8089 6257,8077 6306,7810C6314,7763 6328,7694 6335,7655C6343,7617 6354,7558 6360,7525C6381,7412 6392,7404 6428,7473C6440,7496 6466,7542 6484,7575C6503,7608 6527,7651 6537,7670C6645,7869 6681,7926 6698,7923C6705,7921 6716,7919 6722,7918C6729,7916 6736,7925 6738,7937C6740,7954 6735,7963 6716,7970C6702,7975 6672,7991 6650,8005C6587,8045 6555,8024 6606,7976C6637,7948 6643,7966 6537,7774C6500,7707 6470,7648 6470,7642C6470,7627 6433,7607 6426,7618C6423,7623 6416,7658 6410,7696C6404,7734 6390,7812 6378,7870C6367,7928 6354,7995 6350,8020C6326,8159 6307,8210 6278,8210C6272,8210 6257,8219 6243,8230C6214,8253 6211,8253 6190,8240Z" style="fill-rule:nonzero;"/>
        </g>
        <g transform="matrix(0.0094259,0,0,-0.0094259,108.911,190.734)">
            <path d="M2347,8036C2335,8018 2334,8004 2341,7974C2346,7953 2355,7897 2360,7850C2365,7803 2373,7743 2379,7715C2384,7688 2396,7603 2406,7528C2423,7395 2423,7390 2405,7370C2391,7355 2389,7347 2398,7338C2406,7330 2419,7333 2447,7348C2560,7408 2570,7415 2570,7438C2570,7465 2561,7465 2521,7443C2493,7427 2488,7427 2480,7440C2448,7489 2440,7599 2468,7622C2494,7644 2606,7710 2618,7710C2624,7710 2648,7693 2672,7673C2696,7652 2727,7628 2740,7619C2764,7603 2764,7602 2748,7583C2727,7560 2724,7530 2744,7530C2751,7530 2772,7540 2791,7553C2810,7565 2846,7586 2872,7600C2922,7626 2938,7646 2921,7663C2914,7670 2902,7670 2885,7662C2851,7646 2847,7647 2824,7668C2814,7677 2758,7723 2700,7770C2520,7914 2408,8014 2399,8037C2388,8067 2366,8066 2347,8036ZM2482,7832C2503,7813 2529,7791 2540,7783C2551,7775 2560,7763 2560,7756C2560,7739 2450,7668 2433,7674C2425,7677 2420,7695 2420,7718C2420,7738 2414,7780 2406,7810C2382,7901 2401,7907 2482,7832Z" style="fill-rule:nonzero;"/>
        </g>
        <g transform="matrix(0.0094259,0,0,-0.0094259,108.911,190.734)">
            <path d="M4096,7865C3967,7851 3829,7828 3738,7805C3507,7746 3447,7728 3265,7659C2480,7363 1804,6744 1436,5985C1334,5776 1319,5740 1261,5560C1200,5374 1193,5351 1176,5275C1168,5237 1154,5175 1145,5138C1137,5101 1130,5057 1130,5041C1130,5025 1124,4983 1116,4948C1090,4835 1079,4451 1093,4200C1106,3987 1174,3637 1236,3467C1244,3447 1250,3422 1250,3414C1250,3405 1256,3384 1264,3367C1271,3349 1292,3295 1310,3245C1355,3118 1500,2825 1588,2683C1820,2305 2175,1932 2562,1662C2883,1437 3301,1251 3685,1162C4008,1087 4118,1075 4500,1075C4796,1075 4970,1088 5114,1120C5137,1125 5191,1137 5235,1146C5313,1162 5331,1166 5470,1205C5645,1254 5780,1306 5990,1408C6530,1669 7012,2093 7345,2600C7390,2669 7430,2732 7434,2740C7437,2748 7454,2778 7470,2805C7498,2852 7597,3050 7625,3115C7683,3252 7711,3329 7770,3516C7795,3594 7829,3745 7861,3920C7894,4100 7914,4458 7901,4638C7885,4851 7875,4956 7861,5030C7834,5178 7817,5257 7804,5299C7796,5324 7790,5351 7790,5360C7790,5377 7703,5649 7680,5705C7673,5722 7664,5744 7659,5755C7655,5766 7640,5802 7626,5835C7613,5868 7568,5960 7527,6040C7294,6496 6963,6886 6518,7228C6481,7257 6448,7280 6444,7280C6441,7280 6421,7292 6401,7308C6361,7338 6359,7339 6245,7406C6201,7432 6154,7460 6140,7469C6017,7545 5644,7701 5480,7745C5444,7755 5397,7769 5375,7776C5308,7799 5043,7847 4894,7864C4722,7884 4272,7884 4096,7865ZM4511,7593C4522,7539 4541,7434 4555,7360C4569,7286 4582,7218 4586,7210C4589,7202 4593,7172 4596,7144C4600,7083 4617,7033 4629,7046C4634,7051 4642,7084 4648,7120C4654,7156 4666,7226 4674,7275C4683,7325 4697,7427 4705,7502C4721,7647 4733,7695 4751,7685C4763,7677 4753,7302 4740,7285C4736,7280 4732,7050 4731,6775C4730,6332 4726,6176 4716,6023C4715,5999 4715,5980 4717,5980C4731,5980 4759,6021 4765,6050C4773,6093 4800,6179 4811,6202C4816,6212 4820,6226 4820,6235C4820,6243 4833,6289 4848,6337C4864,6386 4891,6472 4909,6530C4927,6588 4955,6674 4971,6722C4987,6769 5000,6816 5000,6825C5000,6834 5006,6856 5014,6873C5022,6891 5037,6939 5049,6980C5060,7021 5085,7102 5105,7160C5126,7218 5148,7288 5155,7315C5219,7550 5238,7610 5250,7610C5266,7610 5269,7594 5259,7554C5254,7533 5245,7493 5240,7465C5235,7438 5221,7370 5209,7315C5190,7224 5178,7154 5150,6970C5145,6934 5136,6894 5131,6880C5126,6866 5119,6837 5116,6815C5113,6793 5101,6726 5090,6665C5078,6605 5062,6524 5055,6485C5048,6447 5034,6381 5025,6340C5016,6299 5004,6231 5000,6190C4995,6149 4982,6079 4971,6035C4946,5936 4945,5918 4966,5922C4984,5925 4986,5928 5020,6005C5032,6033 5069,6109 5103,6175C5136,6241 5175,6319 5189,6348C5221,6414 5537,7045 5573,7115C5587,7143 5628,7227 5665,7303C5701,7378 5735,7440 5740,7440C5759,7440 5759,7422 5740,7384C5729,7363 5720,7340 5720,7333C5720,7326 5713,7306 5705,7288C5685,7243 5626,7087 5607,7025C5585,6955 5561,6889 5550,6865C5545,6854 5532,6818 5521,6785C5490,6694 5441,6557 5431,6535C5414,6495 5391,6433 5360,6335C5342,6280 5321,6225 5314,6213C5306,6201 5300,6183 5300,6173C5300,6163 5294,6146 5286,6135C5279,6124 5265,6088 5256,6055C5241,6000 5211,5920 5189,5878C5184,5868 5180,5851 5180,5841C5180,5800 5201,5811 5238,5870C5258,5904 5290,5950 5308,5973C5326,5995 5348,6027 5357,6044C5366,6060 5380,6081 5388,6089C5404,6106 5510,6248 5573,6340C5649,6450 5710,6535 5727,6555C5737,6566 5763,6603 5785,6637C5829,6705 5967,6897 5988,6919C5995,6926 6026,6969 6056,7014C6187,7207 6195,7215 6205,7188C6208,7180 6182,7127 6147,7069C6112,7012 6080,6954 6076,6942C6072,6930 6064,6920 6059,6920C6054,6920 6050,6912 6050,6901C6050,6891 6044,6877 6036,6871C6028,6865 6013,6838 6001,6812C5989,6786 5971,6752 5960,6735C5950,6719 5929,6680 5914,6650C5899,6620 5876,6582 5865,6565C5853,6549 5833,6515 5821,6490C5809,6465 5789,6427 5776,6405C5739,6341 5694,6261 5650,6180C5628,6139 5589,6069 5565,6025C5540,5981 5510,5925 5498,5900C5486,5875 5457,5827 5433,5792C5391,5731 5381,5697 5399,5686C5404,5683 5434,5710 5467,5747C5499,5784 5550,5838 5581,5867C5681,5962 6443,6724 6489,6776C6514,6804 6547,6841 6563,6858C6590,6890 6620,6900 6620,6879C6620,6873 6576,6814 6523,6748C6469,6682 6414,6614 6400,6596C6304,6468 6229,6371 6207,6345C6193,6329 6157,6284 6126,6245C6095,6207 6064,6168 6058,6160C6051,6152 6032,6128 6016,6105C6000,6083 5943,6012 5891,5946C5838,5881 5775,5800 5751,5767C5727,5733 5698,5697 5688,5686C5629,5624 5551,5520 5560,5515C5569,5510 5606,5529 5637,5555C5676,5587 6168,5946 6265,6012C6287,6027 6325,6055 6350,6075C6375,6094 6418,6125 6445,6144C6473,6164 6509,6191 6525,6206C6542,6220 6573,6244 6595,6258C6617,6272 6648,6294 6664,6307C6681,6321 6703,6336 6714,6341C6735,6351 6746,6358 6882,6463C6955,6519 6980,6531 6980,6509C6980,6499 6948,6466 6893,6422C6866,6400 6660,6208 6596,6145C6579,6129 6552,6105 6535,6092C6519,6079 6447,6014 6376,5947C6306,5880 6241,5821 6233,5816C6225,5812 6177,5768 6126,5718C6076,5669 6015,5612 5990,5592C5966,5572 5925,5535 5900,5510C5875,5485 5839,5453 5820,5438C5745,5384 5698,5320 5731,5320C5737,5320 5779,5342 5824,5369C5868,5395 5912,5420 5920,5423C5928,5427 5942,5434 5950,5439C5963,5447 6108,5519 6710,5819C6768,5848 6829,5878 6845,5885C6912,5914 6981,5950 7095,6014C7161,6052 7226,6083 7239,6083C7268,6085 7279,6063 7253,6053C7243,6050 7213,6032 7185,6015C7158,5997 7107,5965 7072,5944C7019,5911 6899,5829 6865,5802C6860,5798 6819,5773 6775,5746C6731,5719 6686,5689 6675,5680C6664,5671 6648,5660 6640,5656C6622,5648 6520,5581 6364,5475C6247,5395 6219,5378 6190,5363C6167,5352 6087,5297 6068,5280C6059,5271 6006,5237 5951,5205C5896,5172 5850,5139 5850,5133C5850,5118 5911,5115 5925,5129C5931,5134 5964,5147 6000,5158C6310,5256 6460,5305 6487,5316C6504,5324 6531,5330 6547,5330C6563,5330 6581,5335 6587,5341C6593,5347 6613,5355 6631,5360C6661,5367 6690,5377 6755,5400C6766,5404 6809,5417 6850,5430C6891,5442 6934,5456 6945,5460C6956,5465 6981,5472 7000,5475C7045,5484 7132,5511 7145,5520C7151,5525 7184,5535 7219,5544C7254,5553 7303,5569 7328,5580C7352,5591 7379,5600 7387,5600C7395,5600 7414,5607 7430,5616C7445,5626 7466,5630 7475,5626C7503,5616 7477,5595 7392,5560C7350,5542 7311,5524 7306,5519C7300,5514 7290,5510 7282,5510C7275,5510 7243,5498 7212,5484C7156,5459 7130,5447 6980,5377C6939,5358 6883,5332 6855,5320C6828,5308 6782,5288 6755,5275C6727,5262 6692,5248 6677,5245C6642,5236 6614,5199 6634,5188C6641,5184 6661,5186 6677,5192C6730,5212 6853,5181 6933,5127C6969,5103 7007,5075 7016,5065C7031,5051 7044,5049 7099,5055C7180,5063 7339,5086 7440,5105C7553,5126 7619,5130 7626,5118C7634,5105 7612,5090 7581,5090C7568,5090 7534,5083 7506,5075C7387,5041 7291,5017 7230,5005C7130,4986 7118,4981 7122,4957C7124,4939 7131,4935 7155,4937C7243,4945 7434,4853 7463,4790C7467,4782 7474,4768 7479,4760C7485,4752 7492,4732 7495,4716C7501,4689 7502,4688 7548,4695C7574,4698 7611,4705 7630,4710C7766,4743 7800,4742 7800,4704C7800,4689 7766,4667 7757,4676C7754,4679 7727,4675 7697,4666C7667,4657 7628,4650 7611,4650C7566,4650 7560,4624 7597,4592C7641,4553 7678,4462 7664,4426C7655,4402 7631,4420 7606,4471C7586,4510 7579,4515 7547,4518C7497,4522 7428,4483 7354,4409C7290,4346 7276,4340 7260,4369C7243,4402 7249,4429 7277,4447C7292,4457 7315,4475 7329,4488C7342,4500 7356,4510 7360,4510C7374,4510 7440,4648 7440,4675C7440,4762 7314,4851 7163,4872C7085,4882 7079,4885 7053,4919C7006,4982 6913,5065 6858,5095C6815,5118 6789,5124 6718,5128C6586,5135 6548,5126 6485,5074C6424,5025 6414,5022 6405,5050C6402,5061 6371,5083 6334,5101C6280,5128 6265,5131 6237,5124C6196,5112 6193,5091 6222,5032C6252,4971 6254,4873 6226,4812C6208,4771 6208,4769 6225,4750C6235,4739 6250,4730 6258,4730C6295,4730 6420,4560 6420,4511C6420,4489 6392,4501 6345,4545C6280,4606 6186,4669 6149,4677C6133,4680 6117,4687 6114,4691C6111,4696 6098,4700 6085,4700C6054,4700 6047,4712 6044,4778C6040,4869 6022,4916 5966,4975C5920,5024 5910,5030 5875,5030C5812,5030 5743,4983 5666,4891L5599,4810L5542,4811C5467,4813 5415,4790 5363,4733C5298,4661 5293,4642 5321,4574C5338,4533 5355,4511 5378,4497C5416,4475 5416,4473 5389,4444C5378,4432 5366,4403 5363,4380C5357,4338 5358,4337 5429,4269C5504,4198 5510,4183 5488,4124C5479,4097 5479,4087 5494,4066C5509,4042 5516,4040 5589,4040C5659,4040 5672,4037 5698,4015C5733,3985 5771,3923 5790,3862C5803,3820 5803,3819 5773,3792C5756,3777 5728,3745 5711,3721C5685,3685 5681,3669 5682,3621C5683,3541 5701,3504 5746,3485C5835,3448 5862,3394 5865,3248C5866,3148 5868,3140 5894,3105C5926,3063 5968,3035 6023,3018C6077,3002 6105,2963 6119,2888C6129,2827 6133,2786 6131,2764C6130,2757 6031,2754 5813,2754L5495,2755L5495,2777C5494,2809 5481,2818 5431,2822L5388,2825L5386,3055C5385,3182 5380,3299 5376,3316C5370,3338 5372,3350 5384,3359C5402,3374 5404,3424 5391,3483C5383,3516 5385,3524 5406,3547C5430,3572 5436,3603 5424,3634C5420,3645 5405,3650 5380,3650C5345,3650 5342,3652 5336,3687C5333,3708 5330,3737 5330,3752C5330,3774 5319,3787 5272,3818C5240,3839 5207,3859 5198,3863C5174,3872 5166,3932 5179,3997C5185,4028 5190,4068 5190,4085C5190,4116 5155,4209 5140,4220C5136,4223 5130,4295 5127,4381C5121,4533 5105,4646 5074,4760C5010,4991 4955,5112 4851,5249C4817,5293 4785,5332 4780,5335C4774,5338 4770,5359 4770,5380C4770,5409 4765,5420 4751,5425C4740,5428 4717,5465 4692,5519L4651,5608L4649,5778C4648,5893 4651,5954 4659,5969C4669,5987 4668,5996 4655,6016C4643,6034 4642,6045 4650,6060C4656,6071 4665,6080 4670,6080C4683,6080 4683,6113 4670,6126C4664,6132 4653,6168 4645,6206C4637,6244 4628,6288 4624,6304C4619,6325 4621,6335 4634,6342C4655,6354 4655,6394 4634,6426C4621,6445 4620,6454 4629,6463C4642,6476 4644,6516 4631,6524C4626,6527 4619,6546 4616,6565C4612,6584 4606,6600 4601,6600C4581,6600 4567,6682 4573,6769C4577,6825 4576,6861 4570,6865C4564,6868 4560,6896 4560,6925C4560,6955 4554,6999 4546,7022C4538,7046 4529,7125 4526,7197C4520,7331 4500,7415 4476,7407C4463,7403 4453,7361 4451,7306C4451,7284 4442,7243 4433,7214C4417,7163 4418,7159 4435,7118C4446,7094 4462,7067 4472,7057C4486,7043 4489,7025 4487,6962L4485,6885L4450,6882C4405,6877 4377,6853 4387,6826C4390,6814 4396,6776 4399,6740L4405,6675L4485,6675L4488,6570C4492,6417 4494,6420 4411,6420C4332,6420 4313,6407 4326,6363C4337,6324 4331,6250 4313,6217C4305,6201 4300,6179 4302,6167C4305,6147 4312,6145 4395,6140C4483,6135 4485,6134 4485,6110C4485,6086 4484,6085 4420,6088C4384,6090 4343,6087 4329,6081L4302,6071L4305,5860C4306,5744 4311,5645 4316,5640C4321,5635 4361,5630 4405,5628C4468,5626 4485,5622 4485,5610C4485,5598 4468,5595 4396,5594C4322,5593 4305,5590 4294,5575C4286,5565 4280,5550 4280,5542C4280,5534 4271,5512 4259,5494C4248,5475 4241,5456 4245,5450C4249,5444 4299,5440 4365,5440C4479,5440 4480,5440 4486,5415C4499,5365 4492,5362 4340,5361C4205,5360 4197,5358 4180,5337C4170,5325 4154,5305 4144,5293C4133,5282 4118,5262 4110,5250C4102,5238 4087,5217 4078,5205C4068,5192 4060,5177 4060,5171C4060,5165 4056,5160 4051,5160C4038,5160 3949,4976 3947,4943C3945,4921 3949,4915 3965,4915C3980,4915 3998,4941 4043,5030C4111,5163 4190,5284 4214,5288C4236,5293 4234,5268 4211,5238C4184,5204 4113,5061 4105,5025C4101,5009 4095,4986 4090,4975C4086,4964 4074,4926 4064,4891L4046,4828L4088,4788C4112,4766 4136,4750 4143,4753C4149,4755 4158,4772 4161,4791C4187,4925 4217,5038 4250,5120C4310,5269 4320,5290 4330,5290C4349,5290 4352,5262 4336,5228C4312,5178 4284,5084 4266,4995C4200,4674 4202,4706 4247,4665C4267,4646 4281,4628 4277,4623C4273,4619 4246,4616 4217,4615L4165,4615L4165,4525L4165,4435L4214,4432C4241,4430 4268,4434 4273,4439C4280,4446 4283,4484 4282,4531C4281,4606 4282,4614 4304,4631C4326,4648 4328,4659 4335,4787C4347,5023 4433,5330 4475,5288C4478,5285 4482,5134 4483,4954L4485,4625L4515,4620L4545,4615L4545,4525L4545,4435L4515,4430C4485,4425 4485,4425 4482,4350C4480,4306 4474,4272 4467,4268C4460,4264 4322,4260 4159,4260L3864,4260L3827,4226C3802,4204 3792,4187 3796,4176C3801,4162 3842,4160 4144,4158L4485,4155L4485,4130C4485,4106 4482,4105 4415,4102C4377,4100 4341,4095 4335,4089C4330,4084 4323,4015 4320,3937L4315,3795L4255,3795L4195,3795L4192,3873C4189,3955 4193,3961 4235,3934C4270,3911 4280,3924 4280,3993C4280,4104 4282,4101 4171,4098L4075,4095L4072,3956C4071,3874 4065,3811 4058,3803C4045,3787 3988,3786 3972,3802C3954,3820 3956,3930 3974,3930C4011,3930 4017,3956 4011,4083C4010,4099 4002,4101 3948,4098L3885,4095L3882,3954C3880,3846 3876,3809 3865,3800C3836,3776 3830,3800 3830,3935C3830,4081 3827,4100 3800,4100C3774,4100 3772,4087 3777,3975L3782,3875L3731,3843C3703,3825 3676,3810 3672,3810C3667,3810 3653,3799 3641,3786C3618,3762 3618,3762 3638,3751C3652,3744 3792,3740 4064,3740C4461,3740 4511,3736 4469,3709C4461,3704 4256,3700 4013,3700C3558,3701 3525,3698 3532,3662C3535,3646 3568,3645 3907,3642L4280,3640L4286,3614C4290,3600 4288,3584 4283,3579C4277,3573 4146,3569 3943,3570C3761,3570 3602,3566 3588,3561C3565,3552 3564,3548 3568,3492C3570,3460 3567,3424 3562,3413C3554,3398 3555,3387 3568,3368C3583,3345 3585,3312 3582,3081L3579,2820L3537,2820C3484,2820 3473,2812 3468,2775C3465,2746 3463,2745 3415,2743C3388,2742 3298,2737 3215,2732C3077,2725 3063,2725 3044,2742C3016,2767 2971,2765 2943,2738L2919,2716L2894,2748C2862,2789 2820,2791 2783,2754C2761,2732 2750,2728 2714,2733C2691,2735 2667,2733 2661,2727C2644,2710 2618,2727 2625,2750C2629,2762 2627,2777 2621,2784C2615,2792 2612,2805 2616,2813C2631,2853 2818,2847 2894,2805C2968,2763 2980,2790 2929,2884C2896,2944 2854,2991 2782,3048C2759,3066 2737,3092 2734,3105C2726,3137 2789,3251 2824,3270C2847,3282 2854,3281 2888,3263C2927,3241 2951,3240 3095,3255C3179,3264 3230,3295 3230,3337C3230,3363 3178,3456 3151,3476C3133,3490 3144,3520 3170,3527C3181,3530 3190,3536 3190,3540C3190,3545 3217,3565 3249,3584C3336,3637 3338,3648 3275,3743C3250,3781 3230,3819 3230,3827C3230,3867 3270,3907 3327,3925C3386,3944 3410,3963 3410,3987C3410,4006 3354,4062 3303,4094C3254,4124 3249,4148 3280,4195C3305,4233 3305,4266 3281,4280C3257,4292 3160,4293 3141,4281C3120,4267 3105,4277 3074,4325C3045,4371 2995,4400 2942,4400C2922,4400 2910,4408 2898,4430C2889,4447 2869,4465 2855,4470C2827,4481 2743,4468 2711,4448C2688,4434 2666,4392 2669,4368C2670,4357 2657,4344 2631,4331C2573,4301 2538,4250 2542,4203C2545,4168 2543,4165 2517,4162C2495,4159 2481,4167 2454,4197C2421,4232 2420,4238 2425,4285C2439,4401 2436,4457 2415,4480C2399,4498 2394,4519 2392,4589C2390,4645 2383,4686 2372,4708L2355,4740L2249,4740C2152,4740 2142,4742 2123,4763C2089,4799 2060,4866 2062,4904C2063,4943 2046,4970 2021,4970C1991,4969 1905,4935 1860,4905C1810,4872 1749,4814 1707,4759C1680,4723 1679,4722 1617,4727C1578,4730 1533,4726 1496,4716C1440,4701 1424,4693 1388,4660C1379,4652 1348,4625 1320,4600C1291,4575 1253,4540 1235,4523C1196,4484 1180,4481 1180,4513C1180,4589 1255,4682 1356,4733C1419,4765 1522,4790 1591,4790C1644,4791 1646,4792 1689,4845C1712,4875 1752,4912 1776,4927C1807,4947 1819,4961 1817,4975C1815,4991 1805,4996 1760,5001C1730,5004 1689,5012 1670,5018C1566,5049 1412,5087 1370,5092C1356,5094 1344,5102 1342,5113C1339,5129 1345,5130 1407,5125C1444,5121 1498,5112 1525,5105C1553,5097 1649,5082 1740,5070C1831,5059 1928,5046 1955,5041C1983,5035 2032,5029 2065,5025C2098,5022 2148,5015 2175,5010C2203,5005 2275,4993 2335,4985C2396,4976 2483,4962 2530,4954C2577,4946 2633,4937 2655,4934C2744,4924 2769,4921 2865,4905C3026,4878 3037,4877 3044,4889C3048,4895 3041,4904 3027,4909C3013,4915 2999,4923 2996,4928C2993,4933 2974,4941 2955,4944C2936,4948 2899,4961 2873,4974C2769,5026 2632,5090 2627,5090C2624,5090 2561,5117 2488,5151C2415,5184 2339,5218 2320,5227C2252,5255 2224,5268 2148,5304C2106,5324 2068,5340 2064,5340C2060,5340 2019,5358 1971,5381C1924,5403 1858,5434 1825,5450C1792,5466 1725,5495 1675,5515C1626,5535 1581,5556 1576,5561C1570,5566 1557,5570 1546,5570C1523,5571 1480,5602 1480,5619C1480,5634 1501,5632 1524,5615C1535,5607 1553,5600 1565,5600C1583,5600 1668,5574 1725,5551C1752,5540 1862,5506 1935,5485C1968,5476 2004,5465 2015,5460C2026,5455 2062,5444 2095,5435C2128,5426 2171,5412 2190,5405C2209,5398 2252,5385 2285,5375C2318,5366 2359,5352 2375,5346C2392,5339 2432,5325 2465,5315C2601,5275 2626,5267 2658,5254C2676,5246 2700,5240 2711,5240C2723,5240 2746,5234 2763,5226C2781,5218 2827,5202 2865,5190C2904,5178 2962,5159 2995,5148C3068,5123 3120,5114 3120,5128C3120,5139 3038,5195 2980,5225C2949,5241 2880,5289 2843,5320C2836,5326 2803,5347 2769,5368C2658,5435 2644,5444 2531,5520C2469,5561 2392,5612 2361,5632C2330,5653 2301,5673 2295,5678C2290,5682 2256,5703 2220,5725C2184,5746 2153,5767 2150,5770C2141,5782 2009,5870 2001,5870C1996,5870 1987,5876 1981,5884C1975,5891 1909,5935 1835,5981C1761,6026 1700,6067 1700,6071C1700,6087 1721,6091 1745,6078C1777,6061 1977,5957 2015,5937C2032,5928 2115,5887 2200,5845C2285,5804 2362,5766 2370,5761C2378,5757 2430,5731 2485,5704C2540,5678 2604,5643 2627,5628C2650,5613 2672,5600 2677,5600C2684,5600 2892,5497 2955,5462C2966,5456 2982,5449 2990,5446C2998,5443 3012,5436 3020,5432C3028,5427 3051,5415 3070,5405C3089,5396 3129,5375 3158,5359C3208,5331 3250,5322 3250,5338C3250,5349 3201,5400 3190,5400C3184,5400 3150,5428 3113,5463C3076,5497 3019,5550 2985,5581C2952,5612 2900,5660 2870,5686C2840,5713 2809,5742 2800,5751C2792,5760 2751,5798 2709,5836C2588,5947 2450,6073 2416,6103C2399,6119 2351,6163 2310,6201C2224,6280 2120,6376 2040,6449C1999,6486 1988,6502 1996,6510C2005,6519 2026,6507 2081,6462C2122,6430 2184,6383 2220,6359C2256,6335 2341,6273 2410,6222C2478,6171 2543,6124 2555,6118C2581,6104 2772,5961 2785,5945C2791,5939 2802,5931 2810,5927C2839,5913 2975,5820 3024,5779C3041,5765 3091,5729 3135,5699C3179,5670 3217,5643 3220,5640C3223,5637 3258,5608 3298,5576C3357,5528 3373,5519 3381,5531C3394,5551 3395,5549 3330,5620C3297,5656 3270,5688 3270,5692C3270,5697 3252,5721 3176,5815C3128,5874 3084,5930 3050,5976C3031,6001 3002,6039 2985,6060C2969,6081 2944,6112 2930,6130C2916,6147 2896,6172 2885,6185C2874,6198 2848,6230 2827,6257C2776,6322 2687,6434 2680,6440C2677,6443 2663,6463 2648,6485C2633,6507 2609,6539 2595,6555C2582,6572 2567,6590 2563,6595C2438,6754 2399,6802 2368,6834C2333,6871 2327,6890 2352,6890C2363,6890 3456,5796 3535,5706C3557,5681 3578,5660 3583,5660C3605,5660 3584,5704 3499,5842C3473,5883 3449,5927 3445,5940C3441,5953 3425,5981 3409,6003C3393,6025 3380,6051 3380,6061C3380,6071 3375,6082 3369,6085C3359,6092 3323,6157 3281,6246C3270,6269 3257,6291 3251,6294C3245,6298 3231,6320 3220,6343C3209,6366 3189,6403 3176,6425C3115,6529 3088,6579 3064,6625C3050,6653 3023,6702 3005,6735C2986,6768 2961,6816 2950,6842C2938,6868 2922,6891 2914,6894C2906,6897 2900,6908 2900,6918C2900,6929 2887,6957 2870,6981C2854,7005 2840,7028 2840,7033C2840,7037 2827,7059 2810,7082C2794,7104 2780,7128 2780,7133C2780,7139 2772,7152 2763,7162C2751,7175 2750,7184 2757,7191C2772,7206 2781,7199 2816,7148C2832,7124 2868,7073 2897,7034C2926,6995 2950,6959 2950,6954C2950,6949 2969,6925 2991,6900C3013,6875 3040,6839 3051,6820C3062,6801 3086,6765 3105,6740C3124,6715 3148,6684 3157,6670C3166,6656 3194,6619 3217,6588C3241,6557 3260,6529 3260,6526C3260,6518 3342,6405 3383,6357C3401,6336 3420,6309 3425,6297C3433,6279 3571,6088 3635,6005C3644,5994 3674,5948 3703,5903C3732,5858 3759,5820 3763,5820C3784,5819 3779,5860 3747,5943C3727,5994 3704,6062 3694,6095C3685,6128 3667,6177 3654,6203C3642,6229 3628,6265 3625,6283C3621,6301 3614,6320 3610,6325C3605,6331 3585,6385 3565,6445C3545,6506 3523,6569 3515,6585C3484,6654 3440,6778 3440,6798C3440,6809 3436,6821 3431,6825C3426,6828 3418,6845 3414,6862C3411,6880 3404,6901 3400,6910C3395,6918 3368,6990 3340,7070C3280,7236 3264,7282 3244,7328C3236,7346 3230,7366 3230,7372C3230,7378 3222,7392 3213,7402C3200,7416 3199,7423 3209,7433C3226,7450 3254,7430 3258,7397C3260,7383 3268,7366 3276,7360C3284,7353 3290,7339 3290,7329C3290,7319 3294,7309 3299,7305C3304,7302 3316,7277 3325,7249C3335,7221 3348,7196 3355,7194C3362,7191 3371,7177 3375,7162C3378,7147 3392,7118 3406,7098C3419,7077 3430,7058 3430,7054C3430,7043 3663,6566 3719,6464C3724,6453 3745,6409 3766,6365C3804,6282 3819,6252 3857,6185C3885,6134 3903,6097 3930,6035C3971,5940 3992,5900 4000,5900C4015,5900 4019,5927 4009,5966C3990,6046 3950,6256 3950,6279C3950,6293 3946,6317 3940,6334C3929,6370 3874,6646 3854,6770C3846,6817 3835,6873 3830,6895C3824,6917 3813,6976 3805,7025C3781,7175 3767,7251 3734,7405C3703,7550 3699,7583 3709,7593C3723,7607 3730,7599 3740,7558C3745,7540 3756,7500 3765,7470C3774,7440 3788,7388 3795,7354C3803,7320 3821,7269 3835,7239C3848,7209 3860,7175 3860,7163C3860,7151 3866,7126 3874,7108C3895,7059 3920,6977 3920,6960C3920,6952 3931,6916 3944,6880C3957,6844 3977,6786 3988,6750C4044,6567 4062,6506 4090,6410C4107,6352 4130,6283 4140,6255C4165,6190 4190,6093 4190,6059C4190,6045 4198,6026 4209,6016C4242,5986 4251,6014 4242,6123C4238,6175 4233,6395 4231,6612C4227,7052 4214,7547 4204,7628C4199,7677 4200,7682 4216,7678C4230,7676 4237,7662 4242,7620C4246,7590 4255,7531 4260,7490C4266,7449 4275,7379 4280,7335C4304,7113 4313,7060 4325,7060C4343,7060 4359,7109 4377,7210C4385,7257 4398,7331 4406,7375C4414,7419 4425,7483 4430,7517C4435,7552 4444,7589 4450,7599C4455,7610 4460,7636 4460,7658C4460,7679 4463,7700 4467,7703C4481,7718 4493,7688 4511,7593ZM4435,6265C4435,6210 4433,6205 4413,6202C4391,6199 4390,6202 4390,6258C4390,6321 4395,6332 4420,6328C4431,6325 4435,6311 4435,6265ZM4488,6261C4491,6205 4489,6199 4473,6202C4459,6204 4454,6216 4452,6254C4448,6310 4455,6333 4473,6328C4480,6325 4486,6300 4488,6261ZM4418,5908C4437,5889 4434,5716 4415,5700C4407,5693 4393,5690 4385,5694C4373,5698 4370,5720 4370,5803C4370,5860 4373,5910 4377,5913C4387,5924 4405,5921 4418,5908ZM4509,5902C4524,5874 4516,5710 4499,5699C4491,5694 4481,5692 4475,5693C4465,5697 4455,5883 4464,5907C4472,5926 4498,5923 4509,5902ZM4595,5910C4604,5896 4604,5715 4596,5701C4592,5695 4580,5690 4569,5690C4551,5690 4550,5698 4550,5798C4550,5858 4553,5910 4557,5913C4567,5923 4588,5921 4595,5910ZM4801,4540C4809,4440 4803,4428 4737,4432L4685,4435L4680,4513C4674,4614 4678,4622 4743,4618L4795,4615L4801,4540ZM4988,4608C5002,4594 5004,4462 4991,4442C4986,4433 4966,4430 4929,4432L4875,4435L4872,4514C4870,4558 4871,4599 4874,4607C4881,4624 4971,4625 4988,4608ZM5868,4548C5875,4513 5883,4473 5886,4458C5893,4425 5863,4413 5823,4432C5789,4448 5782,4487 5803,4539C5812,4559 5821,4583 5824,4593C5836,4630 5856,4609 5868,4548ZM6835,4563C6867,4515 6870,4445 6840,4435C6812,4426 6800,4437 6800,4468C6800,4483 6789,4513 6775,4535C6743,4588 6744,4600 6780,4600C6803,4600 6815,4592 6835,4563ZM1700,4509C1712,4493 1721,4478 1719,4476C1717,4475 1694,4466 1669,4456C1643,4447 1614,4430 1605,4420C1583,4396 1562,4395 1538,4417C1509,4443 1517,4466 1568,4504C1629,4550 1670,4552 1700,4509ZM2995,4251C3006,4214 2991,4202 2925,4195C2828,4184 2817,4207 2899,4250C2946,4275 2987,4276 2995,4251ZM5840,4106C5840,4078 5845,4060 5854,4057C5871,4050 5950,4088 5957,4106C5965,4128 5988,4122 6007,4093C6017,4077 6030,4059 6037,4052C6068,4020 6046,3995 5980,3987C5945,3983 5929,3974 5908,3949L5881,3917L5845,3955C5826,3977 5810,3997 5810,4001C5810,4004 5792,4020 5770,4035C5722,4068 5719,4090 5761,4109C5778,4116 5794,4129 5797,4136C5800,4144 5811,4150 5821,4150C5837,4150 5840,4143 5840,4106ZM2310,3948C2310,3912 2304,3901 2264,3863C2212,3813 2184,3810 2160,3852C2141,3888 2150,3903 2221,3952C2293,4003 2310,4002 2310,3948ZM4489,3930C4528,3911 4540,3889 4540,3839C4540,3803 4519,3788 4473,3792L4435,3795L4432,3859C4429,3921 4433,3950 4445,3950C4448,3950 4468,3941 4489,3930ZM7137,3882C7144,3878 7154,3844 7160,3806C7172,3730 7168,3720 7118,3720C7094,3720 7091,3725 7081,3770C7067,3836 7067,3841 7086,3868C7102,3891 7117,3895 7137,3882ZM3163,3713C3166,3697 3172,3673 3176,3658C3181,3635 3178,3629 3159,3621C3125,3608 3114,3622 3116,3677C3118,3741 3117,3740 3139,3740C3151,3740 3160,3731 3163,3713ZM5080,3625C5086,3617 5089,3602 5085,3590C5079,3571 5072,3570 4829,3570L4580,3570L4580,3598C4580,3614 4583,3630 4587,3633C4590,3637 4700,3640 4830,3640C5026,3640 5070,3637 5080,3625ZM6530,3525C6530,3512 6520,3491 6508,3480C6490,3463 6478,3460 6450,3465C6431,3469 6394,3471 6368,3471C6341,3470 6320,3473 6320,3479C6320,3495 6370,3517 6425,3525C6453,3529 6484,3539 6494,3546C6518,3563 6530,3556 6530,3525ZM2477,3399C2484,3386 2507,3359 2530,3339L2571,3303L2548,3267C2521,3224 2495,3219 2486,3255C2482,3269 2466,3302 2450,3329C2417,3382 2414,3400 2432,3418C2448,3434 2463,3428 2477,3399ZM3705,3120L3705,2875L3680,2875L3655,2875L3652,3110C3651,3239 3652,3351 3655,3358C3658,3365 3670,3370 3682,3368L3705,3365L3705,3120ZM3838,3129C3840,2928 3838,2891 3825,2880C3813,2870 3807,2870 3795,2880C3782,2890 3780,2929 3780,3115C3780,3238 3783,3346 3786,3355C3790,3364 3801,3370 3814,3368C3835,3365 3835,3361 3838,3129ZM4068,3131C4070,2964 4067,2894 4059,2883C4050,2873 4027,2870 3971,2872L3895,2875L3892,3009C3891,3083 3893,3147 3898,3152C3903,3157 3926,3152 3951,3141C3983,3126 3996,3124 4002,3133C4006,3140 4010,3196 4010,3258L4010,3371L4038,3368L4065,3365L4068,3131ZM4374,3354C4386,3323 4381,2895 4368,2882C4355,2869 4156,2865 4126,2876C4113,2881 4110,2899 4110,2966C4110,3067 4110,3067 4215,3010C4256,2988 4294,2970 4300,2970C4306,2970 4310,3036 4310,3163C4310,3270 4313,3360 4317,3363C4329,3376 4368,3370 4374,3354ZM4644,3354C4647,3345 4650,3241 4650,3121C4650,2893 4644,2861 4607,2876C4592,2882 4590,2904 4590,3119C4590,3250 4593,3360 4597,3363C4609,3376 4638,3370 4644,3354ZM4958,3123C4960,2887 4960,2881 4940,2875C4893,2860 4890,2876 4890,3125C4890,3252 4893,3360 4897,3364C4901,3368 4916,3370 4930,3368L4955,3365L4958,3123ZM5175,3120C5175,2876 5175,2875 5153,2872C5115,2866 5110,2896 5111,3117C5112,3366 5113,3372 5149,3368L5175,3365L5175,3120ZM5314,3354C5317,3345 5320,3238 5320,3115C5320,2877 5317,2860 5270,2875C5251,2881 5250,2888 5250,3119C5250,3250 5253,3360 5257,3363C5269,3376 5308,3370 5314,3354ZM6278,3113C6281,3092 6259,3016 6239,2979C6214,2931 6162,2983 6145,3073C6138,3107 6140,3110 6161,3110C6174,3111 6196,3117 6210,3125C6244,3145 6274,3140 6278,3113ZM6438,2903C6440,2891 6448,2876 6456,2870C6464,2863 6470,2851 6470,2842C6470,2823 6441,2790 6425,2790C6418,2790 6405,2781 6395,2770C6372,2745 6350,2744 6350,2769C6350,2780 6360,2814 6371,2847C6383,2879 6394,2911 6396,2918C6402,2939 6435,2927 6438,2903ZM2289,2840C2313,2840 2350,2845 2372,2852C2423,2867 2433,2857 2436,2781C2438,2723 2437,2721 2412,2718C2395,2716 2384,2708 2381,2695C2375,2662 2333,2616 2298,2604C2274,2597 2258,2580 2238,2544C2223,2517 2210,2490 2210,2483C2210,2458 2271,2428 2342,2419C2414,2410 2644,2422 2750,2440C2780,2445 2837,2454 2875,2460C2914,2466 2977,2477 3015,2484C3054,2492 3123,2506 3170,2515C3452,2570 3581,2570 3671,2514C3708,2491 3740,2438 3740,2402C3740,2391 3728,2345 3713,2300C3675,2186 3675,2186 3836,2182C3922,2180 3991,2184 4045,2194C4089,2203 4199,2223 4290,2240C4381,2257 4482,2277 4515,2285C4548,2293 4600,2304 4630,2310C4660,2317 4714,2328 4750,2336C5051,2402 5220,2425 5345,2417C5498,2407 5546,2373 5585,2247C5630,2104 5649,2076 5714,2059C5734,2054 5767,2046 5788,2040C5836,2028 6153,2028 6250,2041C6291,2046 6361,2055 6405,2059C6449,2064 6514,2073 6550,2080C6586,2087 6648,2099 6689,2106C6772,2122 6820,2124 6820,2112C6820,2102 6641,1942 6535,1857C6461,1798 6252,1652 6219,1637C6211,1633 6183,1617 6155,1600C6064,1546 5796,1417 5690,1376C5625,1351 5624,1351 5455,1361C5160,1379 4961,1432 4867,1519C4812,1569 4796,1614 4793,1735C4788,1882 4787,1886 4744,1900C4684,1920 4555,1902 4090,1808C3845,1759 3798,1752 3657,1744C3493,1734 3383,1763 3326,1830C3304,1857 3300,1871 3300,1925C3300,1977 3306,2002 3335,2061C3380,2156 3381,2194 3339,2216C3291,2240 3162,2248 2969,2238C2688,2223 2410,2221 2345,2232C2235,2251 2166,2281 2118,2334C2083,2371 2074,2418 2087,2492C2099,2567 2093,2576 2045,2559C2012,2547 2007,2547 1995,2563C1988,2573 1982,2598 1982,2619C1981,2653 1986,2659 2018,2678C2073,2709 2125,2763 2149,2813C2170,2857 2171,2858 2208,2849C2228,2844 2265,2840 2289,2840ZM6615,2694L6642,2648L6614,2623C6586,2599 6582,2599 6446,2604C6370,2607 6305,2612 6302,2615C6285,2632 6390,2687 6510,2724C6580,2746 6586,2744 6615,2694Z" style="fill-rule:nonzero;"/>
        </g>
        <g transform="matrix(0.0094259,0,0,-0.0094259,108.911,190.734)">
            <path d="M6118,4948C6078,4934 6083,4880 6124,4880C6158,4880 6182,4903 6178,4930C6175,4958 6157,4963 6118,4948Z" style="fill-rule:nonzero;"/>
        </g>
        <g transform="matrix(0.0094259,0,0,-0.0094259,108.911,190.734)">
            <path d="M2147,4883C2143,4880 2140,4866 2140,4853C2140,4835 2149,4825 2172,4815C2190,4808 2208,4804 2213,4807C2220,4811 2310,4799 2385,4784C2413,4779 2450,4720 2450,4682C2450,4665 2455,4648 2460,4645C2477,4634 2952,4638 2963,4649C2978,4664 2963,4677 2913,4689C2886,4696 2838,4708 2805,4716C2772,4725 2716,4740 2680,4751C2644,4762 2607,4770 2598,4770C2589,4770 2571,4774 2558,4779C2506,4800 2332,4849 2285,4856C2258,4860 2221,4869 2203,4876C2167,4892 2156,4893 2147,4883Z" style="fill-rule:nonzero;"/>
        </g>
        <g transform="matrix(0.0094259,0,0,-0.0094259,108.911,190.734)">
            <path d="M3805,4595C3802,4579 3801,4534 3803,4495L3805,4425L3840,4428C3910,4434 3910,4434 3910,4519C3910,4607 3905,4615 3848,4622C3812,4626 3810,4624 3805,4595Z" style="fill-rule:nonzero;"/>
        </g>
        <g transform="matrix(0.0094259,0,0,-0.0094259,108.911,190.734)">
            <path d="M3984,4607C3981,4599 3980,4558 3982,4514L3985,4435L4023,4432C4044,4430 4067,4434 4075,4440C4094,4455 4089,4598 4069,4611C4047,4624 3990,4622 3984,4607Z" style="fill-rule:nonzero;"/>
        </g>
        <g transform="matrix(0.0094259,0,0,-0.0094259,108.911,190.734)">
            <path d="M4421,4606C4413,4597 4410,4564 4412,4513L4415,4435L4475,4435L4475,4525C4475,4609 4474,4615 4454,4618C4443,4620 4428,4614 4421,4606Z" style="fill-rule:nonzero;"/>
        </g>
        <g transform="matrix(0.0094259,0,0,-0.0094259,108.911,190.734)">
            <path d="M2512,4457C2501,4444 2503,4354 2514,4343C2522,4335 2597,4401 2605,4423C2609,4433 2606,4447 2600,4455C2585,4473 2526,4475 2512,4457Z" style="fill-rule:nonzero;"/>
        </g>
        <g transform="matrix(0.0094259,0,0,-0.0094259,108.911,190.734)">
            <path d="M7107,7435C7026,7405 6948,7329 6909,7241C6883,7182 6886,7056 6915,6996C6954,6915 7125,6780 7188,6780C7196,6780 7229,6809 7262,6845C7304,6891 7329,6910 7346,6910C7359,6910 7370,6906 7370,6900C7370,6884 7400,6889 7407,6906C7411,6917 7391,6944 7344,6992C7266,7071 7243,7087 7228,7072C7221,7065 7227,7050 7245,7026C7276,6985 7278,6990 7197,6908C7167,6879 7140,6860 7126,6860C7097,6860 7004,6948 6985,6995C6964,7045 6966,7138 6989,7183C7061,7325 7192,7406 7307,7382C7374,7367 7441,7327 7481,7278C7524,7227 7533,7203 7525,7163C7520,7133 7521,7130 7543,7130C7569,7130 7600,7158 7600,7181C7600,7224 7472,7368 7401,7405C7313,7450 7184,7463 7107,7435Z" style="fill-rule:nonzero;"/>
        </g>
        <g transform="matrix(0.0094259,0,0,-0.0094259,108.911,190.734)">
            <path d="M1397,7232C1355,7190 1320,7149 1320,7142C1320,7125 1367,7127 1374,7145C1389,7186 1440,7148 1688,6906C1778,6817 1791,6795 1769,6773C1756,6760 1765,6740 1784,6740C1801,6740 2100,7055 2100,7074C2100,7082 2095,7101 2088,7115C2074,7147 2040,7149 2040,7118C2040,7092 2010,7039 1971,6997C1917,6937 1866,6890 1855,6890C1849,6890 1766,6964 1670,7055C1574,7146 1492,7220 1488,7220C1483,7220 1482,7240 1486,7265C1489,7290 1488,7310 1483,7310C1479,7310 1440,7275 1397,7232Z" style="fill-rule:nonzero;"/>
        </g>
        <g transform="matrix(0.0094259,0,0,-0.0094259,108.911,190.734)">
            <path d="M1456,2562C1453,2557 1455,2539 1461,2522C1468,2500 1468,2486 1461,2471C1455,2461 1372,2389 1278,2313C1183,2237 1102,2171 1098,2165C1094,2159 1079,2160 1057,2168C1014,2183 1010,2183 1010,2165C1010,2141 1102,2031 1123,2031C1144,2030 1145,2042 1125,2079C1112,2106 1112,2109 1138,2133C1181,2173 1414,2360 1423,2360C1433,2360 1432,2326 1421,2315C1416,2309 1390,2260 1363,2205C1199,1871 1204,1885 1248,1893C1275,1898 1406,1933 1535,1969C1684,2010 1715,2018 1718,2015C1723,2010 1664,1958 1535,1855C1422,1766 1381,1745 1365,1770C1354,1787 1340,1781 1340,1759C1340,1740 1378,1687 1438,1620C1450,1606 1460,1592 1460,1588C1460,1583 1467,1580 1475,1580C1493,1580 1495,1613 1478,1640C1460,1669 1471,1682 1596,1783C1656,1831 1714,1879 1725,1888C1736,1898 1756,1913 1770,1922C1784,1931 1811,1953 1830,1971C1864,2002 1865,2003 1894,1986C1913,1975 1926,1972 1933,1979C1944,1990 1931,2014 1882,2069L1852,2104L1704,2066C1546,2027 1459,2003 1422,1989C1394,1978 1360,1977 1360,1987C1360,1991 1375,2026 1394,2065C1412,2103 1460,2201 1499,2282C1538,2363 1570,2435 1570,2443C1570,2460 1491,2564 1475,2568C1468,2570 1459,2567 1456,2562Z" style="fill-rule:nonzero;"/>
        </g>
        <g transform="matrix(0.0094259,0,0,-0.0094259,108.911,190.734)">
            <path d="M7350,2398C7345,2391 7321,2363 7298,2336C7274,2309 7255,2282 7255,2276C7255,2259 7286,2258 7303,2275C7312,2283 7324,2290 7331,2290C7343,2290 7394,2254 7440,2214C7454,2202 7503,2159 7550,2119C7597,2080 7636,2044 7638,2040C7642,2029 7603,2023 7545,2026C7518,2027 7393,2029 7268,2030L7041,2033L6996,1984C6971,1957 6951,1929 6950,1923C6950,1905 6995,1907 7010,1925C7017,1933 7031,1940 7041,1940C7051,1940 7127,1883 7209,1813C7291,1742 7372,1674 7390,1660C7427,1631 7442,1600 7428,1583C7421,1574 7422,1565 7431,1554C7442,1540 7449,1544 7487,1587C7546,1652 7563,1677 7555,1690C7547,1703 7520,1703 7520,1690C7520,1685 7511,1676 7499,1670C7473,1656 7466,1660 7319,1787C7256,1841 7191,1895 7175,1906C7116,1949 7139,1952 7478,1949C7683,1946 7794,1949 7797,1955C7801,1969 7791,1980 7750,2012C7731,2026 7694,2058 7669,2082C7644,2106 7601,2143 7574,2165C7480,2242 7370,2341 7370,2349C7370,2353 7375,2361 7381,2367C7394,2380 7386,2410 7371,2410C7365,2410 7356,2404 7350,2398Z" style="fill-rule:nonzero;"/>
        </g>
        <g transform="matrix(0.0094259,0,0,-0.0094259,108.911,190.734)">
            <path d="M2230,1716C2230,1709 2239,1691 2251,1676L2271,1650L2243,1611C2207,1560 2065,1373 2039,1340C2028,1326 2007,1298 1992,1277C1967,1243 1962,1240 1928,1246C1898,1250 1890,1249 1890,1237C1890,1217 2034,1100 2058,1100C2090,1100 2091,1112 2064,1141C2039,1167 2039,1169 2054,1196C2063,1212 2130,1304 2202,1400C2334,1574 2335,1575 2374,1576C2397,1576 2416,1582 2418,1589C2423,1603 2411,1615 2323,1683C2261,1730 2230,1742 2230,1716Z" style="fill-rule:nonzero;"/>
        </g>
        <g transform="matrix(0.0094259,0,0,-0.0094259,108.911,190.734)">
            <path d="M6456,1558C6444,1538 6443,1527 6456,1475C6463,1442 6477,1379 6485,1335C6514,1187 6529,1115 6549,1025L6569,935L6548,902C6530,872 6530,870 6546,863C6555,860 6568,861 6575,866C6582,871 6615,893 6648,915C6703,951 6721,976 6704,993C6701,996 6683,991 6664,982C6638,970 6627,969 6618,978C6605,991 6569,1130 6576,1141C6578,1146 6610,1168 6645,1191C6681,1214 6710,1237 6710,1241C6710,1265 6767,1245 6825,1203C6890,1154 6902,1137 6875,1126C6859,1120 6854,1085 6868,1076C6876,1071 7005,1154 7042,1187C7068,1210 7053,1223 7010,1216C6968,1209 6964,1212 6780,1345C6633,1451 6526,1537 6512,1560C6496,1586 6474,1585 6456,1558ZM6585,1383C6669,1316 6690,1295 6683,1285C6678,1279 6652,1258 6623,1238C6585,1211 6569,1204 6562,1213C6552,1226 6535,1292 6525,1353C6522,1374 6516,1398 6513,1406C6503,1432 6536,1421 6585,1383Z" style="fill-rule:nonzero;"/>
        </g>
        <g transform="matrix(0.0094259,0,0,-0.0094259,108.911,190.734)">
            <path d="M2905,1258C2834,1245 2782,1219 2727,1170C2630,1084 2587,942 2625,832C2647,769 2667,744 2729,696C2790,650 2836,629 2920,606C3004,583 3040,588 3067,629C3080,648 3090,667 3090,671C3090,685 3057,681 3036,665C3008,644 2930,647 2877,670C2818,696 2775,732 2742,784C2718,820 2715,835 2716,905C2716,999 2735,1044 2808,1123C2863,1181 2923,1210 2990,1210C3081,1210 3193,1151 3208,1095C3219,1053 3245,1052 3266,1091L3283,1124L3244,1157C3192,1202 3096,1246 3035,1254C3008,1258 2978,1262 2970,1264C2962,1266 2933,1263 2905,1258Z" style="fill-rule:nonzero;"/>
        </g>
        <g transform="matrix(0.0094259,0,0,-0.0094259,108.911,190.734)">
            <path d="M5765,1195C5628,1167 5531,1095 5467,975C5436,917 5436,756 5467,690C5536,545 5673,480 5825,521C5888,537 5986,589 6032,629L6073,666L6047,736C6006,847 6006,849 6030,875C6042,888 6049,903 6045,909C6038,922 6008,923 5995,911C5989,907 5951,892 5910,880C5824,853 5807,842 5820,820C5827,808 5835,807 5857,816C5873,822 5891,825 5898,822C5914,817 5957,723 5965,676C5971,647 5968,640 5942,621C5898,590 5834,570 5778,570C5645,570 5530,715 5530,883C5530,976 5555,1028 5624,1079C5718,1149 5821,1169 5869,1126C5894,1103 5900,1106 5900,1143C5900,1181 5875,1211 5844,1209C5834,1208 5798,1202 5765,1195Z" style="fill-rule:nonzero;"/>
        </g>
        <g transform="matrix(0.0094259,0,0,-0.0094259,108.911,190.734)">
            <path d="M3656,1011C3646,995 3658,980 3679,980C3727,980 3727,945 3685,650C3655,443 3658,452 3607,436C3596,432 3590,423 3592,413C3595,399 3614,393 3690,383C3742,376 3791,373 3798,375C3819,382 3811,408 3786,414C3773,417 3759,427 3756,436C3753,445 3755,502 3762,562C3772,653 3777,673 3792,679C3820,689 4055,660 4082,644C4087,641 4089,631 4086,622C4082,608 4063,481 4056,415C4054,402 4042,392 4022,385C4001,379 3990,370 3992,360C3997,334 4201,307 4215,330C4219,336 4208,345 4191,351C4142,368 4141,394 4185,675C4194,730 4203,799 4207,829C4212,876 4216,883 4242,892C4274,903 4279,925 4253,938C4243,942 4208,947 4176,949C4143,950 4108,956 4099,961C4075,973 4050,962 4050,939C4050,926 4057,920 4073,920C4120,920 4123,911 4110,806C4103,753 4094,707 4090,705C4082,700 3866,726 3823,737C3802,742 3800,748 3800,802C3800,890 3817,940 3852,952C3904,970 3880,994 3800,1004C3770,1007 3726,1013 3704,1016C3678,1020 3660,1018 3656,1011Z" style="fill-rule:nonzero;"/>
        </g>
        <g transform="matrix(0.0094259,0,0,-0.0094259,108.911,190.734)">
            <path d="M4845,959C4823,955 4781,951 4752,951C4707,950 4699,947 4702,933C4704,922 4716,914 4732,912C4784,906 4785,903 4821,515C4832,398 4831,395 4810,378C4781,355 4787,324 4820,328C4834,329 4877,333 4915,336C4985,343 5015,354 5004,371C5001,376 4988,380 4976,380C4927,380 4916,421 4894,694C4877,895 4877,903 4895,916C4905,923 4918,931 4924,934C4935,939 4903,971 4891,969C4888,968 4867,964 4845,959Z" style="fill-rule:nonzero;"/>
        </g>
        <g transform="matrix(0.00937931,0,0,-0.00937931,109.234,190.621)">
            <path d="M4100,7865C4091,7854 4065,7850 3995,7850C3925,7850 3899,7846 3890,7835C3881,7825 3858,7820 3815,7820C3772,7820 3749,7815 3740,7805C3732,7796 3710,7790 3680,7790C3650,7790 3628,7784 3620,7775C3613,7767 3593,7760 3575,7760C3557,7760 3537,7753 3530,7745C3523,7737 3501,7730 3480,7730C3459,7730 3437,7723 3430,7715C3422,7706 3400,7700 3373,7700C3343,7700 3328,7695 3324,7685C3320,7675 3304,7670 3279,7670C3253,7670 3237,7665 3234,7655C3230,7647 3218,7640 3205,7640C3193,7640 3177,7633 3170,7625C3163,7617 3150,7610 3140,7610C3130,7610 3117,7603 3110,7595C3103,7587 3082,7580 3063,7580C3042,7580 3027,7574 3024,7565C3020,7557 3007,7550 2994,7550C2980,7550 2967,7543 2964,7535C2960,7527 2948,7520 2936,7520C2925,7520 2902,7506 2886,7490C2870,7473 2849,7460 2840,7460C2830,7460 2817,7453 2810,7445C2803,7437 2790,7430 2780,7430C2770,7430 2757,7423 2750,7415C2743,7407 2730,7400 2721,7400C2712,7400 2692,7386 2676,7370C2660,7353 2639,7340 2630,7340C2621,7340 2600,7327 2584,7310C2568,7294 2549,7280 2542,7280C2534,7280 2499,7253 2463,7220C2427,7187 2393,7160 2387,7160C2382,7160 2342,7126 2298,7085C2254,7044 2213,7010 2206,7010C2190,7010 1910,6725 1910,6709C1910,6703 1876,6662 1835,6618C1794,6574 1760,6533 1760,6526C1760,6519 1746,6501 1730,6485C1714,6469 1700,6449 1700,6440C1700,6431 1687,6410 1670,6394C1654,6378 1640,6358 1640,6349C1640,6341 1627,6321 1610,6305C1594,6289 1580,6269 1580,6259C1580,6250 1573,6237 1565,6230C1557,6223 1550,6210 1550,6201C1550,6191 1536,6171 1520,6155C1503,6139 1490,6119 1490,6109C1490,6100 1483,6087 1475,6080C1467,6073 1460,6057 1460,6045C1460,6032 1453,6020 1445,6016C1437,6013 1430,6000 1430,5986C1430,5973 1423,5960 1415,5956C1407,5953 1400,5940 1400,5926C1400,5913 1393,5900 1385,5896C1376,5893 1370,5878 1370,5857C1370,5838 1363,5817 1355,5810C1347,5803 1340,5787 1340,5775C1340,5762 1333,5750 1325,5746C1316,5743 1310,5728 1310,5707C1310,5688 1303,5667 1295,5660C1287,5653 1280,5633 1280,5615C1280,5597 1273,5577 1265,5570C1257,5563 1250,5547 1250,5535C1250,5523 1243,5507 1235,5500C1226,5493 1220,5471 1220,5445C1220,5419 1214,5397 1205,5390C1197,5383 1190,5361 1190,5340C1190,5319 1183,5297 1175,5290C1165,5281 1160,5258 1160,5215C1160,5172 1155,5149 1145,5140C1134,5131 1130,5107 1130,5050C1130,4990 1127,4971 1115,4966C1103,4962 1100,4935 1100,4816C1100,4697 1097,4671 1085,4666C1063,4658 1063,4360 1085,4360C1093,4360 1100,4363 1100,4368C1100,4372 1120,4398 1145,4427C1188,4475 1190,4481 1190,4538L1190,4598L1261,4664C1300,4700 1338,4730 1345,4730C1352,4730 1363,4737 1370,4745C1377,4753 1392,4760 1404,4760C1415,4760 1434,4767 1444,4775C1458,4786 1490,4790 1550,4790L1635,4790L1708,4872L1782,4955L1755,4977C1741,4990 1718,5000 1706,5000C1693,5000 1677,5007 1670,5015C1662,5024 1640,5030 1611,5030C1586,5030 1556,5037 1546,5045C1535,5053 1513,5060 1497,5060C1482,5060 1462,5067 1454,5075C1445,5083 1423,5090 1404,5090C1380,5090 1370,5095 1370,5105C1370,5126 1518,5126 1546,5105C1559,5095 1591,5090 1645,5090C1695,5090 1734,5084 1750,5075C1766,5066 1805,5060 1855,5060C1905,5060 1944,5054 1960,5045C1976,5036 2015,5030 2065,5030C2115,5030 2154,5024 2170,5015C2186,5006 2226,5001 2286,5000C2355,5000 2381,4996 2390,4985C2399,4974 2424,4970 2484,4970C2541,4970 2572,4965 2586,4955C2599,4945 2631,4941 2686,4940C2746,4940 2771,4936 2780,4925C2793,4910 2910,4903 2923,4917C2933,4927 2889,4970 2869,4970C2860,4970 2847,4977 2840,4985C2833,4993 2819,5000 2809,5000C2799,5000 2789,5004 2786,5009C2777,5022 2702,5060 2684,5060C2675,5060 2656,5066 2642,5074C2627,5081 2594,5097 2568,5109C2542,5121 2518,5135 2515,5141C2511,5146 2498,5150 2486,5150C2473,5150 2457,5157 2450,5165C2443,5173 2430,5180 2420,5180C2410,5180 2397,5187 2390,5195C2383,5203 2365,5210 2349,5210C2334,5210 2319,5214 2315,5219C2312,5225 2285,5240 2255,5254C2226,5268 2198,5285 2195,5290C2192,5296 2181,5300 2172,5300C2135,5300 2128,5314 2140,5357L2152,5396L2214,5392C2247,5390 2285,5382 2297,5374C2309,5366 2330,5360 2343,5360C2356,5360 2375,5353 2386,5345C2396,5337 2414,5330 2426,5330C2437,5330 2455,5323 2466,5315C2476,5307 2503,5300 2525,5300C2547,5300 2574,5293 2584,5285C2595,5277 2616,5270 2630,5270C2644,5270 2665,5263 2676,5255C2686,5247 2709,5240 2725,5240C2742,5240 2764,5233 2774,5225C2785,5217 2806,5210 2821,5210C2835,5210 2853,5203 2860,5195C2868,5185 2891,5180 2929,5180C2961,5180 2992,5174 2999,5168C3009,5158 3009,5160 2999,5179C2983,5207 2919,5269 2906,5270C2902,5270 2881,5284 2860,5300C2839,5317 2819,5330 2815,5330C2811,5330 2791,5344 2770,5360C2749,5377 2729,5390 2725,5390C2721,5390 2701,5404 2680,5420C2659,5437 2639,5450 2635,5450C2631,5450 2611,5464 2590,5480C2569,5497 2549,5510 2545,5510C2541,5510 2521,5524 2500,5540C2479,5557 2459,5570 2455,5570C2451,5570 2431,5584 2410,5600C2389,5617 2361,5630 2348,5630C2333,5630 2302,5651 2261,5690C2226,5723 2191,5750 2184,5750C2177,5750 2121,5784 2060,5825C1999,5866 1946,5900 1942,5900C1938,5900 1912,5920 1883,5945C1855,5970 1826,5990 1818,5990C1801,5991 1760,6025 1760,6039C1760,6056 1817,6052 1824,6035C1827,6027 1839,6020 1851,6020C1869,6020 1901,6007 1950,5979C1958,5974 1972,5967 1980,5964C1988,5961 2002,5954 2010,5949C2018,5944 2032,5937 2040,5934C2048,5931 2062,5924 2070,5919C2078,5914 2092,5907 2100,5904C2108,5901 2122,5894 2130,5889C2138,5884 2152,5877 2160,5874C2168,5871 2182,5864 2190,5859C2198,5854 2214,5846 2225,5841C2236,5836 2268,5816 2297,5796C2325,5777 2360,5758 2374,5754C2388,5751 2404,5742 2411,5734C2417,5726 2433,5720 2445,5720C2457,5720 2473,5713 2480,5705C2487,5697 2501,5690 2512,5690C2523,5690 2552,5677 2577,5660C2601,5644 2627,5630 2635,5630C2643,5630 2651,5626 2654,5621C2661,5610 2922,5480 2937,5480C2943,5480 2953,5473 2960,5465C2967,5457 2981,5450 2992,5450C3002,5450 3013,5443 3016,5435C3020,5426 3035,5420 3055,5420C3073,5420 3093,5413 3100,5405C3113,5390 3142,5385 3153,5396C3163,5406 3061,5519 3018,5546C2997,5559 2906,5643 2814,5733C2723,5822 2643,5897 2637,5900C2607,5913 2570,5944 2570,5955C2570,5962 2552,5981 2531,5997C2509,6013 2437,6079 2370,6143C2304,6207 2243,6260 2236,6260C2222,6260 2050,6437 2050,6451C2050,6465 2072,6460 2105,6439C2122,6429 2142,6417 2150,6413C2182,6396 2279,6330 2285,6320C2292,6308 2408,6230 2418,6230C2425,6230 2478,6185 2547,6119C2569,6098 2595,6080 2603,6080C2611,6080 2623,6073 2630,6065C2637,6057 2648,6050 2654,6050C2660,6050 2688,6031 2715,6007C2743,5984 2803,5939 2850,5908C2897,5878 2944,5843 2954,5831C2965,5820 2978,5810 2984,5810C2990,5810 3018,5790 3047,5765C3075,5740 3101,5720 3105,5720C3109,5720 3129,5707 3150,5690C3171,5674 3195,5660 3203,5660C3212,5660 3223,5654 3227,5646C3231,5638 3247,5628 3263,5625C3286,5619 3290,5621 3290,5639C3290,5651 3286,5660 3281,5660C3275,5660 3265,5671 3258,5684C3233,5732 3158,5836 3121,5875C3101,5897 3074,5931 3063,5950C3051,5969 3023,6003 3001,6025C2979,6047 2960,6070 2960,6075C2960,6081 2946,6101 2929,6120C2872,6187 2750,6349 2750,6359C2750,6365 2744,6373 2737,6377C2718,6389 2639,6483 2631,6502C2628,6511 2600,6545 2569,6577C2539,6609 2499,6658 2481,6685C2463,6713 2441,6739 2434,6743C2426,6747 2420,6760 2420,6771C2420,6782 2413,6793 2405,6796C2388,6803 2384,6830 2400,6830C2427,6830 2496,6765 2950,6311C3217,6045 3445,5821 3458,5812C3490,5791 3511,5811 3487,5838C3478,5848 3470,5866 3470,5877C3470,5888 3463,5903 3455,5910C3447,5917 3440,5930 3440,5940C3440,5950 3433,5963 3425,5970C3417,5977 3410,5987 3410,5993C3410,5999 3404,6011 3396,6019C3382,6035 3328,6132 3276,6235C3262,6263 3246,6292 3241,6300C3236,6308 3224,6333 3214,6354C3203,6376 3176,6422 3153,6457C3129,6492 3110,6529 3110,6540C3110,6550 3106,6562 3100,6565C3095,6568 3078,6596 3064,6625C3050,6655 3035,6682 3029,6685C3024,6689 3020,6699 3020,6709C3020,6719 3013,6733 3005,6740C2997,6747 2990,6759 2990,6767C2990,6775 2977,6799 2960,6820C2944,6841 2930,6861 2930,6865C2930,6869 2917,6889 2900,6910C2884,6931 2870,6955 2870,6963C2870,6971 2863,6983 2855,6990C2847,6997 2840,7010 2840,7020C2840,7030 2833,7043 2825,7050C2817,7057 2810,7070 2810,7080C2810,7090 2803,7103 2795,7110C2787,7117 2780,7131 2780,7141C2780,7152 2787,7160 2795,7160C2803,7160 2810,7157 2810,7152C2810,7148 2830,7125 2855,7100C2879,7075 2899,7048 2900,7039C2900,7030 2909,7015 2921,7005C2947,6981 3020,6871 3020,6856C3020,6850 3040,6822 3065,6793C3090,6765 3110,6739 3110,6735C3110,6731 3124,6711 3140,6690C3157,6669 3170,6649 3170,6645C3170,6641 3190,6615 3215,6587C3240,6558 3260,6531 3260,6527C3260,6522 3280,6495 3305,6467C3330,6438 3350,6410 3350,6404C3350,6398 3363,6380 3380,6364C3396,6348 3410,6331 3410,6327C3410,6322 3430,6292 3455,6260C3480,6228 3500,6198 3500,6193C3500,6189 3520,6163 3545,6135C3570,6108 3590,6081 3590,6075C3590,6061 3687,5960 3700,5960C3715,5960 3711,6032 3695,6054C3687,6065 3680,6088 3680,6104C3680,6121 3673,6144 3665,6154C3657,6165 3650,6183 3650,6195C3650,6207 3643,6225 3635,6236C3627,6246 3620,6267 3620,6281C3620,6295 3613,6315 3605,6326C3597,6336 3590,6356 3590,6370C3590,6384 3583,6404 3575,6414C3567,6425 3560,6441 3560,6451C3560,6460 3553,6473 3545,6480C3537,6487 3530,6507 3530,6524C3530,6541 3523,6564 3515,6574C3507,6585 3500,6603 3500,6615C3500,6627 3493,6645 3485,6656C3477,6666 3470,6686 3470,6700C3470,6714 3463,6734 3455,6744C3447,6755 3440,6776 3440,6791C3440,6805 3433,6823 3425,6830C3417,6837 3410,6853 3410,6865C3410,6877 3403,6893 3395,6900C3387,6907 3380,6927 3380,6945C3380,6963 3373,6983 3365,6990C3357,6997 3350,7017 3350,7035C3350,7053 3343,7073 3335,7080C3327,7087 3320,7100 3320,7109C3320,7118 3313,7134 3305,7144C3297,7155 3290,7178 3290,7196C3290,7213 3283,7233 3275,7240C3267,7247 3260,7267 3260,7285C3260,7303 3253,7323 3245,7330C3226,7346 3225,7400 3243,7400C3251,7400 3267,7380 3279,7355C3291,7331 3305,7308 3311,7305C3316,7301 3320,7291 3320,7281C3320,7271 3327,7257 3335,7250C3343,7243 3350,7230 3350,7220C3350,7210 3357,7197 3365,7190C3373,7183 3380,7170 3380,7160C3380,7150 3387,7137 3395,7130C3403,7123 3410,7110 3410,7100C3410,7090 3417,7077 3425,7070C3433,7063 3440,7047 3440,7034C3440,7022 3444,7009 3449,7006C3460,6999 3500,6918 3500,6903C3500,6897 3507,6887 3515,6880C3523,6873 3530,6860 3530,6850C3530,6840 3537,6830 3545,6826C3553,6823 3560,6810 3560,6797C3560,6783 3567,6767 3575,6760C3583,6753 3590,6740 3590,6730C3590,6720 3597,6707 3605,6700C3613,6693 3620,6680 3620,6670C3620,6660 3627,6647 3635,6640C3643,6633 3650,6620 3650,6610C3650,6600 3657,6587 3665,6580C3673,6573 3680,6560 3680,6550C3680,6540 3687,6527 3695,6520C3703,6513 3710,6500 3710,6490C3710,6480 3717,6467 3725,6460C3733,6453 3740,6440 3740,6430C3740,6420 3747,6407 3755,6400C3763,6393 3770,6380 3770,6370C3770,6360 3777,6347 3785,6340C3793,6333 3800,6320 3800,6310C3800,6300 3807,6287 3815,6280C3823,6273 3830,6260 3830,6250C3830,6240 3837,6227 3845,6220C3853,6213 3860,6200 3860,6190C3860,6180 3867,6167 3875,6160C3883,6153 3890,6142 3890,6136C3890,6130 3907,6105 3928,6081C3963,6040 3967,6038 3972,6057C3975,6069 3972,6091 3964,6106C3955,6122 3950,6165 3950,6219C3949,6275 3944,6314 3935,6330C3927,6344 3920,6378 3920,6405C3920,6433 3913,6466 3905,6480C3897,6494 3890,6528 3890,6555C3890,6583 3883,6616 3875,6630C3867,6644 3860,6678 3860,6705C3860,6733 3853,6766 3845,6780C3837,6794 3830,6833 3830,6870C3830,6907 3823,6946 3815,6960C3807,6974 3800,7008 3800,7035C3800,7063 3793,7096 3785,7110C3777,7124 3770,7160 3770,7190C3770,7220 3763,7256 3755,7270C3747,7284 3740,7318 3740,7345C3740,7373 3733,7404 3725,7414C3704,7442 3704,7580 3725,7580C3734,7580 3740,7571 3740,7556C3740,7543 3747,7527 3755,7520C3763,7513 3770,7491 3770,7470C3770,7449 3777,7427 3785,7420C3793,7413 3800,7391 3800,7371C3800,7350 3807,7325 3815,7314C3823,7304 3830,7281 3830,7264C3830,7247 3837,7227 3845,7220C3853,7213 3860,7195 3860,7179C3860,7163 3866,7136 3874,7118C3901,7054 3912,7014 3919,6967C3923,6941 3932,6914 3938,6908C3945,6901 3950,6885 3950,6870C3950,6856 3957,6836 3965,6826C3973,6815 3980,6794 3980,6780C3980,6766 3987,6745 3995,6734C4003,6724 4010,6702 4010,6685C4010,6669 4017,6646 4025,6636C4033,6625 4040,6605 4040,6591C4040,6577 4047,6556 4055,6546C4063,6535 4070,6510 4070,6490C4070,6470 4077,6445 4085,6434C4093,6424 4100,6401 4100,6384C4100,6367 4107,6347 4115,6340C4123,6333 4130,6315 4130,6301C4130,6286 4137,6265 4145,6254C4153,6244 4160,6224 4160,6211C4160,6179 4199,6098 4211,6106C4216,6109 4220,6424 4220,6866C4220,7530 4222,7620 4235,7620C4247,7620 4250,7605 4250,7547C4250,7498 4255,7467 4265,7454C4274,7442 4280,7410 4280,7360C4280,7310 4286,7278 4295,7266C4303,7255 4310,7229 4310,7209C4310,7168 4327,7147 4336,7177C4342,7199 4366,7254 4386,7293C4394,7309 4400,7347 4400,7378C4401,7412 4407,7443 4415,7454C4425,7467 4430,7497 4430,7536C4430,7578 4435,7601 4445,7610C4453,7617 4460,7635 4460,7651C4460,7666 4464,7681 4469,7685C4482,7693 4520,7605 4520,7566C4521,7549 4527,7524 4535,7510C4544,7494 4549,7455 4550,7405L4550,7324L4601,7270C4661,7206 4670,7211 4670,7311C4670,7353 4675,7383 4685,7396C4694,7409 4699,7440 4700,7490C4700,7532 4705,7571 4711,7577C4717,7583 4725,7603 4729,7622C4733,7640 4740,7655 4745,7655C4751,7655 4756,7482 4758,7201C4760,6810 4758,6744 4745,6724C4732,6704 4730,6650 4730,6391C4730,6221 4734,6079 4738,6076C4752,6067 4790,6127 4790,6158C4790,6174 4797,6193 4805,6200C4813,6207 4820,6227 4820,6246C4820,6264 4826,6294 4834,6312C4857,6368 4872,6414 4878,6445C4880,6462 4889,6484 4896,6495C4904,6506 4910,6526 4910,6540C4910,6555 4917,6575 4925,6586C4933,6596 4940,6621 4940,6641C4940,6660 4947,6685 4955,6696C4963,6706 4970,6727 4970,6741C4970,6755 4977,6775 4985,6786C4993,6796 5000,6819 5000,6835C5000,6852 5007,6874 5015,6884C5023,6895 5030,6915 5030,6929C5030,6943 5037,6964 5045,6974C5053,6985 5060,7008 5060,7026C5060,7043 5067,7063 5075,7070C5083,7077 5090,7090 5090,7099C5090,7108 5097,7124 5105,7134C5113,7145 5120,7175 5120,7200C5120,7225 5127,7255 5135,7266C5143,7276 5150,7303 5150,7326C5150,7348 5157,7375 5165,7386C5173,7396 5180,7415 5180,7427C5180,7439 5187,7461 5194,7477C5202,7492 5211,7513 5214,7523C5217,7533 5224,7538 5230,7535C5246,7525 5242,7379 5225,7350C5217,7336 5211,7302 5210,7274C5210,7246 5204,7215 5195,7204C5187,7194 5180,7176 5180,7165C5180,7154 5173,7136 5165,7126C5154,7111 5150,7078 5150,7001C5149,6928 5145,6887 5135,6870C5127,6856 5120,6823 5120,6795C5120,6768 5113,6734 5105,6720C5097,6706 5090,6673 5090,6645C5090,6618 5083,6584 5075,6570C5067,6556 5060,6517 5060,6480C5060,6443 5053,6404 5045,6390C5037,6376 5031,6342 5030,6314C5030,6286 5024,6255 5015,6244C4999,6223 4993,6055 5008,6046C5019,6040 5060,6094 5060,6114C5060,6122 5064,6131 5069,6134C5074,6137 5097,6178 5120,6225C5143,6272 5166,6313 5171,6316C5176,6319 5180,6329 5180,6339C5180,6349 5187,6363 5195,6370C5203,6377 5210,6393 5210,6406C5210,6418 5215,6432 5221,6435C5226,6439 5235,6452 5241,6463C5246,6475 5254,6492 5259,6500C5264,6508 5278,6535 5290,6560C5311,6605 5321,6624 5340,6658C5346,6667 5353,6682 5356,6690C5368,6720 5396,6776 5423,6823C5438,6849 5450,6880 5450,6891C5450,6902 5457,6913 5465,6916C5473,6920 5480,6930 5480,6940C5480,6950 5487,6965 5495,6974C5503,6982 5510,6995 5510,7003C5510,7011 5517,7023 5525,7030C5533,7037 5540,7050 5540,7060C5540,7070 5547,7083 5555,7090C5563,7097 5570,7110 5570,7120C5570,7130 5577,7143 5585,7150C5593,7157 5600,7171 5600,7181C5600,7191 5614,7219 5630,7243C5647,7268 5660,7295 5660,7303C5660,7311 5667,7323 5675,7330C5683,7337 5690,7349 5690,7356C5690,7364 5697,7370 5705,7370C5716,7370 5720,7359 5720,7331C5720,7309 5714,7287 5705,7280C5697,7273 5690,7255 5690,7241C5690,7226 5683,7205 5675,7194C5667,7184 5660,7166 5660,7154C5660,7143 5653,7125 5645,7114C5637,7104 5630,7084 5630,7072C5630,7059 5623,7035 5615,7019C5607,7003 5593,6977 5585,6961C5577,6945 5570,6921 5570,6907C5570,6894 5563,6877 5555,6870C5547,6863 5540,6846 5540,6831C5540,6817 5533,6796 5525,6786C5517,6775 5510,6757 5510,6745C5510,6733 5503,6715 5495,6704C5487,6694 5480,6676 5480,6664C5480,6653 5473,6635 5465,6624C5457,6614 5450,6594 5450,6580C5450,6566 5443,6546 5435,6536C5427,6525 5420,6507 5420,6495C5420,6483 5413,6465 5405,6454C5397,6444 5390,6421 5390,6404C5390,6387 5383,6367 5375,6360C5367,6353 5360,6340 5360,6331C5360,6321 5353,6305 5345,6294C5337,6284 5330,6264 5330,6250C5330,6236 5323,6216 5315,6206C5307,6195 5300,6174 5300,6159C5300,6145 5293,6127 5285,6120C5277,6113 5270,6091 5270,6071C5270,6051 5263,6026 5255,6016C5238,5994 5235,5930 5250,5930C5262,5930 5329,6002 5330,6015C5330,6021 5350,6048 5375,6077C5400,6105 5420,6132 5420,6136C5420,6140 5437,6163 5458,6187C5478,6212 5502,6242 5510,6255C5569,6346 5622,6419 5639,6434C5651,6445 5660,6459 5660,6466C5660,6473 5685,6504 5715,6536C5765,6588 5772,6592 5788,6578C5797,6570 5813,6560 5823,6557C5844,6549 5845,6527 5825,6510C5817,6503 5810,6487 5810,6475C5810,6463 5803,6447 5795,6440C5787,6433 5780,6420 5780,6410C5780,6400 5773,6387 5765,6380C5757,6373 5750,6359 5750,6349C5750,6339 5745,6328 5739,6325C5734,6321 5725,6308 5719,6297C5714,6285 5706,6267 5700,6258C5695,6248 5685,6232 5680,6223C5674,6213 5665,6194 5660,6181C5654,6168 5639,6143 5627,6126C5602,6091 5584,6061 5574,6040C5561,6011 5528,5944 5489,5870C5468,5829 5450,5790 5450,5783C5450,5766 5465,5766 5482,5783C5489,5789 5511,5808 5530,5823C5549,5839 5786,6072 6056,6342C6333,6618 6550,6827 6554,6821C6562,6809 6523,6744 6491,6716C6480,6705 6470,6690 6470,6681C6469,6672 6449,6645 6425,6620C6400,6595 6380,6571 6380,6565C6380,6560 6364,6537 6344,6515C6324,6493 6293,6453 6275,6425C6257,6398 6226,6359 6206,6341C6186,6322 6170,6301 6170,6294C6170,6288 6143,6253 6110,6217C6077,6181 6050,6148 6050,6143C6050,6139 6030,6112 6005,6083C5980,6055 5960,6028 5960,6023C5960,6018 5946,6000 5930,5981C5913,5963 5873,5914 5840,5872C5808,5830 5767,5779 5751,5760C5734,5741 5720,5720 5720,5713C5720,5706 5714,5697 5708,5693C5694,5684 5660,5624 5660,5609C5660,5594 5687,5599 5694,5615C5697,5623 5707,5630 5716,5630C5725,5630 5749,5644 5770,5660C5791,5677 5811,5690 5815,5690C5819,5690 5845,5710 5873,5735C5902,5760 5929,5780 5933,5780C5938,5780 5959,5794 5980,5810C6001,5827 6021,5840 6025,5840C6029,5840 6055,5860 6083,5885C6112,5910 6139,5930 6145,5930C6150,5930 6177,5950 6205,5975C6232,6000 6259,6020 6263,6020C6268,6020 6289,6034 6310,6050C6331,6067 6352,6080 6357,6080C6362,6080 6377,6092 6391,6106C6404,6120 6430,6141 6450,6153C6469,6164 6507,6193 6535,6217C6562,6241 6589,6260 6593,6260C6598,6260 6619,6274 6640,6290C6661,6307 6681,6320 6685,6320C6688,6320 6727,6347 6770,6380C6813,6413 6853,6440 6858,6440C6863,6440 6873,6447 6880,6455C6887,6463 6899,6470 6906,6470C6922,6470 6925,6443 6910,6438C6905,6437 6827,6362 6738,6274C6648,6185 6560,6103 6542,6092C6523,6081 6430,5995 6334,5901C6238,5806 6151,5726 6140,5722C6118,5714 5810,5412 5810,5399C5810,5384 5857,5389 5870,5405C5877,5413 5890,5420 5900,5420C5910,5420 5923,5427 5930,5435C5937,5443 5950,5450 5960,5450C5970,5450 5983,5457 5990,5465C5997,5473 6010,5480 6020,5480C6030,5480 6043,5487 6050,5495C6057,5503 6068,5510 6075,5510C6082,5510 6093,5517 6100,5525C6107,5533 6120,5540 6130,5540C6140,5540 6153,5547 6160,5555C6167,5563 6180,5570 6190,5570C6200,5570 6213,5577 6220,5585C6227,5593 6243,5600 6255,5600C6267,5600 6283,5607 6290,5615C6297,5623 6310,5630 6320,5630C6330,5630 6343,5637 6350,5645C6357,5653 6370,5660 6380,5660C6390,5660 6403,5667 6410,5675C6417,5683 6433,5690 6446,5690C6459,5690 6470,5694 6470,5698C6470,5702 6496,5718 6528,5734C6601,5769 6629,5785 6643,5799C6649,5805 6662,5810 6671,5810C6681,5810 6708,5823 6732,5839C6756,5854 6787,5870 6803,5874C6818,5877 6830,5885 6830,5890C6830,5896 6841,5900 6854,5900C6867,5900 6883,5907 6890,5915C6897,5923 6910,5930 6920,5930C6930,5930 6943,5937 6950,5945C6957,5953 6970,5960 6980,5960C6990,5960 7003,5967 7010,5975C7017,5983 7030,5990 7040,5990C7050,5990 7063,5997 7070,6005C7077,6013 7088,6020 7095,6020C7102,6020 7113,6027 7120,6035C7127,6043 7143,6050 7155,6050C7167,6050 7183,6057 7190,6065C7204,6082 7230,6085 7230,6069C7230,6052 7210,6020 7199,6020C7193,6020 7163,6000 7132,5977C7101,5953 7071,5931 7065,5929C7060,5927 7022,5903 6982,5875C6941,5848 6901,5821 6892,5815C6883,5810 6847,5786 6812,5763C6777,5739 6746,5720 6743,5720C6740,5720 6721,5707 6700,5690C6679,5674 6657,5660 6650,5660C6643,5660 6621,5647 6600,5630C6579,5614 6558,5600 6553,5600C6549,5600 6522,5580 6495,5557C6467,5533 6441,5511 6435,5509C6430,5507 6366,5466 6293,5418C6221,5369 6157,5330 6152,5330C6147,5330 6140,5323 6136,5315C6133,5307 6122,5300 6111,5300C6100,5300 6088,5295 6085,5289C6081,5283 6070,5276 6059,5272C6031,5261 5931,5177 5930,5163C5930,5146 5979,5147 6010,5165C6024,5173 6045,5179 6056,5180C6068,5180 6091,5187 6106,5195C6122,5203 6142,5210 6151,5210C6159,5210 6175,5217 6186,5225C6196,5233 6216,5240 6230,5240C6244,5240 6264,5247 6274,5255C6285,5263 6305,5270 6319,5270C6333,5270 6354,5277 6364,5285C6375,5293 6400,5300 6421,5300C6441,5300 6463,5307 6470,5315C6477,5323 6499,5330 6519,5330C6539,5330 6564,5337 6574,5345C6585,5353 6608,5360 6624,5360C6641,5360 6664,5367 6674,5375C6685,5383 6703,5390 6715,5390C6727,5390 6745,5397 6756,5405C6766,5413 6791,5420 6811,5420C6830,5420 6855,5427 6866,5435C6876,5443 6894,5450 6905,5450C6916,5450 6934,5457 6944,5465C6955,5473 6980,5480 6999,5480C7019,5480 7044,5487 7054,5495C7065,5503 7086,5510 7101,5510C7115,5510 7133,5517 7140,5525C7147,5533 7164,5540 7179,5540C7193,5541 7216,5547 7230,5555C7244,5563 7269,5569 7286,5570C7303,5570 7323,5577 7330,5585C7338,5594 7359,5600 7385,5600C7415,5600 7430,5605 7434,5616C7437,5624 7445,5628 7451,5624C7460,5619 7458,5613 7447,5605C7437,5598 7430,5588 7430,5581C7430,5575 7421,5570 7411,5570C7400,5570 7389,5566 7385,5560C7377,5547 7237,5480 7218,5480C7210,5480 7197,5473 7190,5465C7183,5457 7167,5450 7154,5450C7142,5450 7129,5446 7126,5441C7122,5436 7099,5422 7072,5410C7046,5398 7013,5382 6998,5374C6984,5366 6964,5360 6953,5360C6943,5359 6917,5348 6895,5335C6873,5321 6848,5308 6840,5304C6832,5301 6813,5292 6798,5284C6784,5276 6767,5270 6761,5270C6745,5270 6700,5228 6706,5218C6709,5214 6726,5210 6744,5210C6762,5210 6785,5203 6796,5195C6806,5187 6826,5180 6839,5180C6853,5180 6871,5174 6879,5166C6888,5159 6926,5132 6963,5106L7031,5060L7160,5060C7287,5060 7327,5050 7277,5031C7263,5025 7249,5016 7245,5011C7242,5005 7229,5000 7216,5000C7190,5000 7155,4966 7165,4951C7168,4945 7186,4940 7204,4940C7223,4940 7243,4933 7250,4925C7257,4917 7277,4910 7295,4910C7313,4910 7333,4903 7340,4895C7347,4887 7358,4880 7364,4880C7383,4880 7478,4791 7486,4767C7489,4755 7502,4735 7513,4723C7537,4696 7594,4692 7624,4715C7639,4727 7672,4730 7766,4729C7833,4728 7892,4730 7899,4734C7915,4744 7913,4780 7895,4786C7883,4791 7880,4813 7880,4900C7880,4983 7877,5010 7865,5020C7855,5029 7850,5052 7850,5094C7850,5133 7845,5163 7835,5176C7827,5187 7821,5218 7820,5251C7820,5289 7815,5312 7805,5320C7797,5327 7790,5349 7790,5370C7790,5391 7783,5413 7775,5420C7766,5427 7760,5449 7760,5475C7760,5501 7754,5523 7745,5530C7737,5537 7730,5557 7730,5575C7730,5593 7723,5613 7715,5620C7707,5627 7700,5643 7700,5655C7700,5667 7693,5683 7685,5690C7677,5697 7670,5718 7670,5737C7670,5758 7664,5773 7655,5776C7647,5780 7640,5792 7640,5805C7640,5817 7633,5833 7625,5840C7617,5847 7610,5860 7610,5870C7610,5880 7603,5893 7595,5900C7587,5907 7580,5920 7580,5930C7580,5940 7573,5953 7565,5960C7557,5967 7550,5980 7550,5990C7550,6000 7543,6013 7535,6020C7527,6027 7520,6043 7520,6055C7520,6068 7513,6080 7505,6084C7497,6087 7490,6098 7490,6108C7490,6119 7483,6133 7475,6140C7467,6147 7460,6160 7460,6170C7460,6180 7453,6193 7445,6200C7437,6207 7430,6220 7430,6229C7430,6238 7416,6258 7400,6274C7383,6290 7370,6311 7370,6320C7370,6329 7357,6349 7340,6365C7324,6381 7310,6400 7310,6408C7310,6416 7270,6466 7222,6519C7131,6618 7040,6732 7040,6747C7040,6762 6695,7100 6679,7100C6671,7100 6644,7120 6620,7145C6596,7170 6571,7190 6565,7190C6559,7190 6532,7210 6503,7235C6475,7260 6446,7280 6438,7280C6431,7280 6412,7294 6396,7310C6380,7327 6359,7340 6350,7340C6340,7340 6327,7347 6320,7355C6313,7363 6297,7370 6285,7370C6273,7370 6257,7377 6250,7385C6243,7393 6230,7400 6221,7400C6211,7400 6195,7407 6184,7415C6174,7423 6153,7430 6139,7430C6124,7430 6107,7437 6100,7445C6093,7453 6082,7460 6075,7460C6069,7460 6043,7471 6019,7485C5995,7499 5968,7513 5960,7517C5952,7521 5911,7550 5869,7582C5827,7614 5783,7640 5772,7640C5761,7640 5750,7647 5746,7655C5743,7664 5728,7670 5707,7670C5688,7670 5667,7677 5660,7685C5653,7693 5637,7700 5625,7700C5612,7700 5600,7707 5596,7715C5592,7725 5577,7730 5547,7730C5520,7730 5498,7736 5490,7745C5483,7754 5461,7760 5435,7760C5409,7760 5387,7766 5380,7775C5372,7785 5350,7790 5315,7790C5280,7790 5258,7795 5250,7805C5241,7815 5218,7820 5175,7820C5132,7820 5109,7825 5100,7835C5091,7846 5065,7850 4995,7850C4925,7850 4899,7854 4890,7865C4879,7878 4823,7880 4495,7880C4167,7880 4111,7878 4100,7865Z" style="fill:rgb(37,56,150);fill-rule:nonzero;"/>
        </g>
        <g transform="matrix(0.00937931,0,0,-0.00937931,109.234,189.989)">
            <path d="M2426,4781C2423,4776 2427,4767 2435,4760C2443,4753 2450,4731 2450,4710C2450,4642 2459,4640 2698,4640C2904,4640 2954,4648 2896,4670C2882,4675 2870,4684 2870,4690C2870,4695 2855,4700 2838,4700C2820,4700 2796,4707 2786,4715C2775,4723 2748,4730 2726,4730C2703,4730 2676,4737 2666,4745C2655,4754 2624,4760 2596,4760C2567,4760 2537,4767 2526,4775C2504,4791 2435,4795 2426,4781Z" style="fill:rgb(37,56,150);fill-rule:nonzero;"/>
        </g>
        <g transform="matrix(0.00933578,0,0,-0.00933578,109.363,190.223)">
            <path d="M6583,5102C6560,5092 6535,5079 6528,5072C6522,5066 6508,5060 6498,5060C6489,5060 6477,5054 6473,5046C6469,5039 6455,5028 6442,5021C6422,5010 6415,5013 6378,5045C6336,5081 6270,5106 6244,5096C6225,5089 6226,5055 6246,5024C6272,4986 6271,4844 6245,4806L6226,4777L6254,4756C6270,4745 6309,4708 6341,4675C6386,4629 6404,4603 6415,4562C6424,4533 6428,4505 6425,4500C6415,4483 6384,4489 6364,4511C6337,4541 6221,4624 6175,4647C6153,4658 6119,4670 6099,4674C6037,4685 6020,4710 6020,4791C6020,4836 6014,4875 6004,4896C5985,4935 5895,5020 5873,5020C5857,5020 5763,4972 5744,4955C5738,4949 5711,4917 5685,4885C5613,4794 5607,4790 5533,4790C5497,4790 5457,4784 5442,4776C5389,4748 5330,4668 5330,4624C5330,4591 5362,4537 5395,4516C5424,4497 5429,4450 5405,4430C5396,4423 5390,4401 5390,4376C5390,4338 5396,4329 5450,4275L5510,4216L5510,4143C5510,4104 5515,4068 5520,4065C5526,4061 5564,4055 5605,4051C5690,4043 5714,4026 5776,3933C5820,3866 5823,3812 5783,3780C5740,3746 5700,3671 5700,3623C5700,3567 5726,3514 5762,3499C5801,3483 5858,3414 5870,3369C5879,3337 5883,3261 5880,3196C5877,3142 5944,3069 6032,3030C6083,3008 6100,2990 6123,2935C6141,2891 6149,2773 6136,2751C6128,2739 6036,2738 5541,2744C5219,2748 4892,2755 4815,2760C4586,2776 3754,2777 3698,2763C3672,2756 3617,2750 3576,2749C3535,2748 3490,2742 3476,2735C3458,2725 3392,2721 3245,2719C3066,2717 3038,2719 3022,2733C2999,2754 2986,2754 2971,2736C2949,2710 2909,2707 2886,2729C2860,2753 2823,2756 2795,2736C2765,2716 2633,2709 2614,2727C2593,2748 2595,2827 2618,2838C2654,2857 2745,2860 2830,2845C2877,2837 2916,2830 2918,2830C2919,2830 2920,2836 2920,2843C2920,2876 2881,2931 2803,3005C2728,3078 2720,3088 2720,3123C2720,3162 2732,3186 2783,3253C2815,3294 2847,3301 2896,3275C2945,3250 3100,3260 3168,3293C3215,3315 3207,3380 3148,3459C3138,3472 3130,3490 3130,3499C3130,3509 3165,3542 3210,3575C3280,3627 3290,3638 3290,3665C3290,3682 3285,3701 3279,3707C3267,3719 3253,3742 3224,3797C3209,3824 3209,3833 3220,3859C3237,3901 3298,3948 3340,3952C3390,3956 3393,3991 3349,4036C3331,4055 3311,4070 3305,4070C3299,4070 3283,4081 3270,4095C3247,4120 3246,4134 3265,4220C3276,4270 3237,4286 3148,4267C3112,4259 3108,4261 3059,4315C3022,4354 3000,4370 2981,4370C2948,4370 2896,4402 2874,4435C2861,4455 2850,4460 2816,4460C2761,4459 2698,4423 2689,4386C2680,4354 2643,4310 2625,4310C2605,4310 2570,4252 2570,4220C2570,4183 2557,4155 2536,4147C2509,4136 2462,4161 2436,4199C2411,4235 2410,4240 2416,4336C2422,4425 2421,4439 2401,4475C2386,4504 2380,4532 2380,4581C2380,4645 2361,4705 2336,4722C2330,4726 2289,4727 2245,4724C2198,4720 2154,4722 2138,4729C2101,4743 2061,4809 2053,4868C2046,4926 2035,4940 1999,4940C1933,4940 1837,4878 1749,4780C1687,4711 1686,4711 1636,4712C1580,4713 1491,4695 1476,4680C1470,4674 1458,4670 1449,4670C1439,4670 1398,4642 1357,4608C1317,4573 1262,4529 1235,4510C1209,4491 1165,4454 1137,4429C1094,4390 1087,4378 1088,4349C1098,4158 1108,4040 1118,4017C1125,4001 1130,3965 1130,3937C1131,3908 1137,3867 1145,3845C1153,3823 1160,3788 1160,3767C1160,3746 1167,3713 1175,3693C1183,3674 1190,3645 1190,3631C1190,3616 1197,3595 1205,3584C1213,3574 1220,3549 1220,3530C1220,3511 1227,3486 1235,3476C1243,3465 1250,3442 1250,3426C1250,3409 1257,3386 1265,3376C1273,3365 1280,3348 1280,3337C1280,3327 1286,3306 1293,3292C1301,3277 1314,3250 1323,3232C1332,3213 1340,3192 1340,3185C1340,3178 1347,3159 1355,3143C1363,3128 1406,3041 1450,2950C1495,2859 1540,2772 1550,2755C1584,2701 1599,2675 1609,2653C1615,2640 1624,2630 1630,2630C1635,2630 1640,2624 1640,2616C1640,2608 1647,2600 1655,2596C1663,2593 1670,2583 1670,2574C1670,2564 1677,2550 1685,2541C1693,2532 1734,2478 1776,2420C1819,2362 1864,2304 1878,2290C1892,2276 1926,2236 1955,2200C2011,2132 2169,1973 2207,1948C2219,1940 2258,1907 2294,1874C2329,1842 2374,1804 2394,1790C2414,1776 2447,1750 2468,1733C2488,1715 2510,1700 2516,1700C2522,1700 2540,1687 2556,1670C2572,1654 2588,1640 2593,1640C2597,1640 2619,1628 2643,1613C2711,1569 2731,1557 2824,1507C2851,1492 2878,1476 2884,1471C2905,1454 3013,1400 3025,1400C3032,1400 3043,1393 3050,1385C3057,1377 3071,1370 3080,1370C3090,1370 3111,1363 3127,1355C3195,1320 3292,1280 3308,1280C3318,1280 3335,1273 3346,1265C3356,1257 3376,1250 3390,1250C3404,1250 3424,1244 3435,1236C3446,1229 3469,1220 3485,1218C3502,1215 3529,1208 3545,1202C3634,1172 3681,1160 3708,1160C3724,1160 3754,1153 3773,1145C3793,1137 3829,1130 3853,1130C3878,1130 3914,1123 3933,1115C3954,1106 4000,1100 4043,1100C4085,1100 4121,1095 4128,1088C4144,1072 4658,1065 4775,1080C4825,1086 4906,1094 4955,1098C5005,1103 5055,1111 5067,1118C5079,1125 5113,1130 5142,1130C5174,1130 5204,1136 5216,1145C5226,1153 5255,1160 5280,1160C5305,1160 5336,1167 5350,1175C5364,1183 5390,1189 5408,1190C5427,1190 5443,1196 5446,1205C5450,1215 5466,1220 5490,1220C5511,1220 5533,1227 5540,1235C5547,1243 5567,1250 5585,1250C5603,1250 5623,1257 5630,1265C5637,1273 5657,1280 5675,1280C5693,1280 5713,1287 5720,1295C5727,1303 5742,1310 5754,1310C5765,1310 5784,1317 5794,1325C5805,1333 5824,1340 5836,1340C5848,1340 5863,1347 5870,1355C5877,1363 5890,1370 5900,1370C5910,1370 5923,1377 5930,1385C5937,1393 5950,1400 5960,1400C5970,1400 5983,1407 5990,1415C5997,1423 6010,1430 6020,1430C6030,1430 6043,1437 6050,1445C6057,1453 6070,1460 6080,1460C6090,1460 6103,1467 6110,1475C6117,1483 6131,1490 6142,1490C6152,1490 6163,1497 6166,1505C6170,1513 6178,1520 6185,1520C6191,1520 6216,1534 6238,1550C6261,1567 6287,1580 6295,1580C6304,1580 6313,1587 6316,1595C6320,1603 6328,1610 6335,1610C6342,1610 6350,1617 6354,1625C6357,1633 6367,1640 6377,1640C6387,1640 6408,1654 6424,1670C6440,1687 6461,1700 6471,1700C6481,1700 6493,1706 6497,1714C6501,1722 6529,1745 6559,1765C6589,1785 6623,1811 6635,1823C6646,1835 6678,1863 6705,1884C6782,1945 6786,1948 6933,2096C7010,2173 7083,2251 7096,2272C7108,2292 7135,2324 7155,2343C7174,2362 7190,2380 7190,2384C7190,2388 7210,2418 7235,2450C7260,2482 7280,2513 7280,2518C7280,2523 7293,2540 7310,2556C7326,2572 7340,2589 7340,2594C7340,2598 7354,2622 7370,2647C7387,2671 7400,2695 7400,2699C7400,2704 7406,2712 7413,2718C7419,2724 7441,2759 7460,2797C7479,2834 7500,2871 7507,2878C7514,2885 7520,2900 7520,2909C7520,2919 7527,2933 7535,2940C7543,2947 7550,2960 7550,2970C7550,2980 7557,2990 7565,2994C7573,2997 7580,3010 7580,3023C7580,3037 7587,3053 7595,3060C7603,3067 7610,3080 7610,3089C7610,3099 7617,3115 7625,3126C7633,3136 7640,3155 7640,3166C7640,3178 7647,3193 7655,3200C7663,3207 7670,3225 7670,3240C7670,3255 7677,3273 7685,3280C7693,3287 7700,3302 7700,3314C7700,3325 7707,3344 7715,3354C7723,3365 7730,3385 7730,3399C7730,3413 7737,3434 7745,3444C7753,3455 7760,3480 7760,3499C7760,3519 7767,3544 7775,3554C7783,3565 7790,3586 7790,3601C7790,3615 7797,3644 7805,3663C7813,3683 7820,3717 7820,3739C7820,3760 7827,3791 7835,3806C7843,3822 7850,3856 7850,3882C7850,3908 7855,3941 7862,3957C7877,3994 7893,4170 7906,4452C7911,4556 7909,4588 7895,4630C7886,4658 7871,4684 7863,4687C7855,4690 7826,4680 7799,4665C7767,4648 7727,4636 7688,4633C7654,4629 7626,4622 7623,4614C7621,4608 7630,4584 7644,4561C7664,4530 7670,4507 7670,4466C7670,4435 7665,4408 7658,4404C7651,4400 7630,4415 7605,4443C7570,4483 7558,4490 7526,4490C7474,4490 7435,4468 7364,4398C7324,4359 7296,4339 7284,4342C7262,4346 7229,4405 7237,4426C7239,4433 7266,4457 7296,4480C7350,4521 7400,4586 7400,4615C7400,4624 7407,4642 7416,4656C7431,4679 7431,4682 7416,4699C7407,4708 7400,4721 7400,4728C7400,4744 7319,4810 7291,4817C7277,4820 7255,4829 7241,4836C7227,4844 7196,4850 7174,4850C7115,4850 7068,4873 7034,4917C6980,4990 6928,5032 6843,5076C6766,5115 6749,5120 6691,5119C6653,5119 6607,5112 6583,5102ZM5877,4575C5909,4460 5912,4436 5893,4422C5871,4406 5813,4413 5791,4435C5763,4463 5777,4544 5824,4618C5840,4644 5863,4625 5877,4575ZM6843,4579C6889,4529 6874,4422 6821,4432C6802,4435 6740,4554 6740,4586C6740,4629 6799,4625 6843,4579ZM1707,4521C1719,4507 1729,4489 1730,4483C1730,4476 1703,4457 1671,4440C1638,4424 1609,4406 1605,4400C1594,4383 1551,4389 1529,4411C1500,4440 1508,4477 1552,4513C1589,4543 1643,4561 1670,4552C1678,4549 1695,4535 1707,4521ZM3002,4267C3014,4248 3011,4212 2996,4197C2978,4179 2883,4168 2859,4181C2819,4202 2835,4226 2924,4278C2947,4291 2990,4285 3002,4267ZM5856,4120C5871,4075 5883,4073 5926,4105C5971,4139 5995,4134 6033,4082C6059,4046 6062,4036 6054,4012C6046,3990 6037,3984 6005,3979C5961,3973 5930,3959 5910,3936C5890,3910 5852,3916 5836,3948C5828,3963 5799,3995 5771,4018C5743,4042 5720,4068 5720,4075C5720,4083 5737,4106 5758,4125C5807,4171 5840,4169 5856,4120ZM2314,4004C2326,4000 2330,3984 2330,3951C2330,3912 2325,3899 2300,3875C2284,3859 2270,3841 2270,3834C2270,3818 2198,3795 2176,3803C2167,3807 2155,3821 2150,3835C2131,3885 2138,3906 2188,3947C2261,4008 2280,4017 2314,4004ZM7147,3892C7160,3884 7182,3796 7184,3745C7185,3716 7183,3715 7136,3712C7109,3710 7084,3712 7079,3717C7075,3721 7068,3755 7064,3791C7058,3851 7060,3860 7079,3879C7101,3901 7126,3906 7147,3892ZM3179,3720C3191,3698 3200,3672 3200,3663C3200,3637 3169,3610 3139,3610C3117,3610 3109,3616 3104,3635C3098,3660 3105,3735 3116,3752C3129,3773 3159,3758 3179,3720ZM6540,3555C6549,3544 6549,3533 6541,3510C6533,3485 6534,3478 6545,3473C6553,3470 6560,3461 6560,3453C6560,3441 6546,3439 6483,3443C6369,3450 6316,3462 6312,3481C6309,3499 6341,3524 6380,3533C6394,3536 6428,3546 6455,3554C6519,3573 6525,3573 6540,3555ZM2480,3419C2480,3413 2502,3386 2530,3359C2583,3307 2584,3300 2546,3247C2514,3203 2493,3215 2443,3308C2400,3388 2399,3392 2416,3411C2434,3431 2480,3437 2480,3419ZM6271,3150C6285,3142 6290,3129 6290,3100C6290,3057 6247,2955 6225,2946C6195,2935 6130,3027 6130,3081C6130,3113 6146,3128 6189,3136C6206,3140 6223,3147 6226,3151C6233,3163 6247,3162 6271,3150ZM6455,2903C6480,2865 6488,2816 6470,2805C6455,2796 6458,2780 6475,2780C6483,2780 6490,2774 6490,2768C6490,2759 6467,2754 6415,2753C6342,2750 6340,2751 6340,2774C6340,2800 6377,2906 6393,2928C6409,2949 6428,2941 6455,2903ZM2448,2786C2451,2714 2449,2709 2428,2701C2415,2696 2390,2672 2372,2646C2354,2621 2334,2600 2328,2600C2285,2600 2210,2528 2210,2485C2210,2458 2269,2428 2342,2419C2414,2410 2644,2422 2750,2440C2780,2445 2834,2454 2870,2459C2906,2465 2969,2476 3010,2484C3271,2535 3335,2546 3448,2556C3572,2568 3691,2525 3723,2457C3746,2410 3745,2395 3713,2300C3675,2186 3675,2186 3836,2182C3922,2180 3991,2184 4045,2194C4089,2203 4199,2223 4290,2240C4381,2257 4482,2277 4515,2285C4548,2293 4600,2304 4630,2310C4660,2317 4714,2328 4750,2336C5052,2403 5221,2426 5345,2417C5502,2406 5545,2376 5584,2249C5630,2103 5649,2076 5717,2059C5738,2053 5771,2045 5790,2040C5836,2027 6155,2028 6250,2041C6291,2046 6361,2055 6405,2059C6449,2064 6514,2073 6550,2080C6586,2087 6648,2099 6689,2106C6772,2122 6820,2124 6820,2112C6820,2102 6641,1942 6535,1857C6461,1798 6252,1652 6219,1637C6211,1633 6183,1617 6155,1600C6064,1546 5796,1417 5690,1376C5625,1351 5624,1351 5455,1361C5160,1379 4961,1432 4867,1519C4812,1569 4796,1614 4793,1735C4788,1882 4787,1886 4744,1900C4684,1920 4555,1902 4090,1808C3845,1759 3798,1752 3657,1744C3493,1734 3383,1763 3326,1830C3304,1857 3300,1871 3300,1925C3300,1977 3306,2002 3335,2061C3380,2156 3381,2194 3339,2216C3291,2240 3162,2248 2969,2238C2688,2223 2410,2221 2345,2232C2234,2251 2166,2281 2117,2334C2082,2373 2076,2397 2084,2476L2091,2540L2042,2540C1979,2540 1968,2553 1972,2621C1975,2666 1979,2676 1999,2686C2047,2710 2108,2770 2132,2817L2158,2865L2281,2870C2349,2873 2414,2872 2425,2869C2442,2864 2445,2853 2448,2786ZM6629,2699L6653,2652L6631,2624C6618,2608 6601,2592 6592,2588C6546,2569 6301,2593 6293,2617C6287,2634 6349,2690 6374,2690C6386,2690 6405,2697 6416,2705C6426,2713 6445,2720 6457,2720C6469,2720 6485,2727 6492,2735C6501,2745 6521,2749 6555,2747C6603,2745 6605,2743 6629,2699Z" style="fill:rgb(33,92,24);fill-rule:nonzero;"/>
        </g>
        <g transform="matrix(0.00896646,0,0,-0.00896646,110.96,188.721)">
            <path d="M4466,7333C4463,7330 4460,7306 4460,7280C4460,7254 4455,7218 4449,7201C4437,7166 4450,7101 4476,7070C4491,7052 4497,6883 4484,6870C4479,6865 4459,6860 4440,6858L4405,6855L4408,6785C4412,6708 4421,6690 4456,6690C4469,6690 4484,6681 4490,6671C4502,6648 4504,6441 4492,6423C4488,6416 4455,6410 4415,6408L4345,6405L4343,6320C4342,6273 4337,6223 4331,6208C4316,6168 4343,6149 4419,6146C4486,6144 4505,6133 4495,6101C4490,6084 4480,6080 4447,6079C4309,6074 4314,6084 4318,5857C4322,5639 4326,5628 4398,5630C4481,5633 4490,5631 4490,5611C4490,5589 4471,5583 4380,5574C4317,5568 4314,5566 4298,5530C4288,5510 4280,5484 4280,5472C4280,5452 4285,5451 4382,5448C4484,5445 4485,5445 4494,5417C4514,5362 4498,5356 4347,5350C4224,5345 4209,5343 4188,5322C4158,5294 4115,5220 4129,5220C4143,5220 4190,5265 4190,5279C4190,5285 4199,5290 4210,5290C4235,5290 4236,5270 4213,5239C4194,5213 4186,5199 4151,5130C4104,5037 4100,5028 4100,5005C4100,4993 4094,4967 4086,4949C4078,4930 4069,4894 4065,4868C4058,4823 4060,4819 4091,4790C4137,4748 4160,4750 4160,4795C4160,4815 4167,4847 4175,4867C4183,4886 4190,4915 4190,4930C4190,4945 4202,4988 4216,5026C4230,5064 4245,5106 4250,5120C4283,5214 4319,5290 4330,5290C4351,5290 4351,5260 4331,5214C4319,5189 4310,5162 4310,5155C4310,5148 4303,5129 4295,5114C4287,5098 4280,5073 4280,5059C4280,5044 4273,5013 4265,4990C4257,4967 4250,4930 4250,4908C4250,4887 4243,4853 4235,4833C4227,4814 4220,4771 4220,4739C4220,4689 4223,4679 4243,4669C4255,4662 4269,4651 4273,4644C4285,4623 4308,4627 4321,4652C4328,4664 4334,4736 4337,4818C4339,4897 4346,4974 4352,4989C4357,5003 4365,5035 4370,5060C4378,5107 4393,5154 4416,5205C4423,5222 4430,5244 4432,5254C4436,5281 4468,5299 4480,5281C4485,5273 4488,5126 4488,4956C4488,4785 4489,4640 4489,4633C4490,4627 4502,4620 4518,4618L4545,4615L4545,4525L4545,4435L4515,4430C4485,4425 4485,4425 4485,4355C4485,4316 4481,4279 4477,4273C4471,4263 4399,4260 4175,4260L3881,4260L3856,4234C3802,4175 3828,4170 4195,4170C4485,4170 4500,4168 4500,4129C4500,4102 4478,4091 4413,4087C4379,4086 4345,4078 4337,4072C4326,4062 4322,4031 4321,3933C4321,3863 4316,3802 4312,3798C4307,3793 4279,3790 4249,3792L4195,3795L4192,3873C4189,3955 4193,3961 4235,3934C4248,3925 4264,3921 4270,3925C4282,3932 4283,4049 4271,4068C4262,4082 4102,4089 4081,4076C4074,4071 4070,4024 4070,3941C4070,3801 4066,3790 4014,3790C3970,3790 3958,3809 3962,3877C3965,3928 3968,3935 3987,3938C4015,3942 4018,3953 4011,4025L4005,4085L3952,4086C3911,4087 3897,4083 3890,4069C3884,4059 3880,3998 3880,3932C3880,3840 3877,3810 3865,3800C3844,3783 3830,3796 3830,3835C3830,3854 3825,3872 3820,3875C3806,3884 3658,3772 3663,3757C3666,3748 3770,3744 4066,3742C4451,3739 4509,3735 4470,3710C4461,3704 4280,3700 4033,3700C3599,3700 3555,3696 3562,3661C3565,3647 3607,3645 3922,3642L4280,3640L4286,3614C4290,3600 4288,3584 4283,3579C4277,3573 4148,3569 3948,3570C3769,3570 3615,3568 3606,3564C3592,3558 3590,3522 3590,3184L3590,2810L3547,2810C3507,2810 3503,2807 3488,2773C3478,2753 3473,2733 3476,2728C3484,2715 3595,2719 3676,2736C3731,2747 3785,2750 3873,2746C3940,2743 4166,2737 4375,2732C4696,2724 4767,2725 4829,2737C4904,2752 5034,2750 5160,2733C5190,2728 5279,2726 5357,2728L5500,2731L5488,2753C5482,2765 5474,2782 5470,2790C5466,2799 5444,2807 5419,2810L5375,2815L5376,2855C5377,2877 5374,3000 5368,3129C5360,3341 5361,3364 5376,3381C5391,3397 5391,3407 5381,3460C5368,3523 5370,3531 5404,3568C5430,3597 5418,3619 5369,3635C5338,3646 5333,3653 5318,3711C5305,3759 5292,3782 5268,3802C5250,3817 5230,3830 5225,3830C5219,3830 5200,3843 5182,3859C5155,3884 5150,3896 5150,3933C5150,3958 5157,3994 5165,4013C5173,4033 5180,4061 5180,4074C5180,4102 5154,4165 5132,4192C5122,4204 5118,4237 5119,4312C5120,4378 5115,4433 5105,4464C5097,4491 5090,4542 5090,4578C5090,4637 5077,4701 5048,4785C5043,4802 5034,4831 5030,4850C5003,4965 4915,5149 4845,5234C4769,5325 4760,5339 4760,5364C4760,5379 4750,5401 4737,5413C4724,5425 4703,5458 4690,5485C4678,5513 4661,5547 4654,5562C4646,5576 4640,5617 4640,5652C4640,5711 4624,5759 4614,5734C4601,5704 4582,5687 4566,5693C4552,5699 4550,5714 4552,5807C4555,5900 4557,5915 4572,5918C4583,5920 4594,5912 4601,5896C4608,5882 4617,5870 4621,5870C4636,5870 4640,5906 4641,6043C4642,6149 4638,6196 4626,6230C4607,6284 4606,6333 4622,6360C4632,6376 4632,6384 4622,6400C4616,6411 4610,6448 4610,6483C4610,6533 4604,6557 4580,6603C4550,6660 4550,6663 4550,6820C4550,6955 4547,6984 4531,7021C4514,7057 4512,7078 4517,7141C4524,7236 4492,7359 4466,7333ZM4435,6265C4435,6212 4433,6205 4415,6205C4398,6205 4395,6213 4392,6254C4388,6314 4395,6333 4417,6328C4432,6325 4435,6314 4435,6265ZM4488,6261C4491,6205 4489,6199 4473,6202C4459,6204 4454,6216 4452,6254C4448,6310 4455,6333 4473,6328C4480,6325 4486,6300 4488,6261ZM4420,5900C4426,5889 4430,5842 4428,5793C4426,5725 4421,5705 4408,5696C4376,5676 4365,5703 4365,5798C4366,5846 4369,5893 4373,5903C4382,5926 4407,5925 4420,5900ZM4509,5902C4522,5878 4516,5712 4502,5698C4496,5692 4484,5690 4476,5693C4463,5698 4460,5718 4460,5803C4460,5860 4463,5910 4467,5913C4479,5926 4499,5920 4509,5902ZM4797,4607C4801,4601 4805,4568 4806,4535C4807,4502 4810,4466 4812,4455C4815,4437 4809,4435 4745,4435L4675,4435L4672,4515C4669,4584 4672,4597 4688,4610C4710,4628 4786,4625 4797,4607ZM4995,4525L4995,4435L4935,4435L4875,4435L4872,4514C4870,4558 4871,4599 4874,4607C4878,4617 4895,4620 4937,4618L4995,4615L4995,4525ZM4489,3930C4527,3911 4540,3889 4540,3840C4540,3807 4523,3790 4489,3790C4435,3790 4430,3797 4430,3869C4430,3929 4434,3950 4447,3950C4449,3950 4468,3941 4489,3930ZM5080,3625C5086,3617 5089,3602 5085,3590C5079,3571 5072,3570 4829,3570L4580,3570L4580,3598C4580,3614 4583,3630 4587,3633C4590,3637 4700,3640 4830,3640C5026,3640 5070,3637 5080,3625ZM3708,3117L3705,2875L3680,2875L3655,2875L3652,3114C3649,3366 3653,3390 3691,3369C3709,3360 3710,3347 3708,3117ZM4053,3367C4069,3356 4070,3332 4068,3115L4065,2875L3980,2875L3895,2875L3887,2940C3879,3009 3887,3147 3899,3154C3903,3157 3925,3152 3949,3144C3972,3136 3996,3132 4001,3135C4006,3139 4010,3192 4010,3254C4010,3384 4015,3396 4053,3367ZM4370,3361C4376,3349 4380,3256 4380,3128C4380,2984 4384,2910 4391,2903C4417,2877 4387,2870 4255,2870C4097,2870 4097,2870 4102,2978C4104,3033 4108,3045 4123,3048C4140,3051 4195,3027 4255,2990C4311,2956 4310,2954 4310,3163C4310,3357 4314,3380 4347,3380C4354,3380 4364,3371 4370,3361ZM4644,3236C4646,3045 4637,2877 4624,2873C4617,2871 4605,2876 4596,2885C4582,2899 4580,2932 4580,3121C4580,3330 4581,3341 4601,3361C4635,3395 4643,3372 4644,3236ZM4954,3364C4968,3351 4970,3315 4970,3125C4970,2935 4968,2899 4954,2886C4934,2866 4921,2866 4898,2887C4882,2902 4880,2923 4880,3126C4880,3315 4882,3351 4896,3364C4904,3373 4918,3380 4925,3380C4932,3380 4946,3373 4954,3364ZM5168,3372C5177,3365 5180,3308 5178,3119L5175,2875L5150,2875L5125,2875L5122,3119C5120,3358 5122,3380 5150,3380C5153,3380 5161,3376 5168,3372ZM5314,3364C5328,3351 5330,3314 5330,3114L5330,2880L5303,2874C5247,2860 5245,2866 5242,3114C5241,3259 5243,3348 5250,3360C5263,3384 5293,3386 5314,3364ZM3835,3360C3838,3355 3841,3248 3841,3123C3840,2938 3837,2893 3826,2881C3814,2869 3808,2869 3796,2880C3782,2891 3780,2927 3780,3119C3780,3347 3783,3370 3816,3370C3823,3370 3832,3366 3835,3360Z" style="fill-rule:nonzero;"/>
        </g>
    </g>
</svg>
