<?xml version="1.0" encoding="utf-8"?>
<!-- Generator: Adobe Illustrator 21.0.0, SVG Export Plug-In . SVG Version: 6.00 Build 0)  -->
<svg version="1.1" id="Layer_1" xmlns="http://www.w3.org/2000/svg" xmlns:xlink="http://www.w3.org/1999/xlink" x="0px" y="0px"
	 viewBox="0 0 240.5 264" style="enable-background:new 0 0 240.5 264;" xml:space="preserve">
<style type="text/css">
	.st0{fill:none;}
	.st1{fill:#00517F;}
	.st2{fill:#F16047;}
	.st3{fill:#32BEBD;}
	.st4{fill:#FFFFFF;}
</style>
<g>
	<path class="st0" d="M181.7,132.2c0.2,6.2,0.2,12.3,0,18.2c7.6-6.3,13.8-12.4,18.9-18c-5.5-5.3-12-10.8-19.6-16.3
		C181.7,125.9,181.7,132.2,181.7,132.2z"/>
	<path class="st0" d="M111.3,147.3c-0.1-0.2-0.3-0.4-0.5-0.5s-0.5-0.4-0.6-0.4s-0.8-0.3-0.8-0.7s-0.4-0.7-0.5-1
		c0-0.3-0.5-0.9-0.5-1.2s-0.6-0.4-0.7-0.7s0.2-0.5,0.3-0.7c0.1-0.2-0.2-0.7-0.2-0.8s0.4-0.5,0.6-0.6c0.1-0.1,0.3-0.5,0.4-0.5
		s0.1-0.3,0.2-0.6c0.2-0.3,0-0.7-0.1-0.8c-0.1,0-0.2-0.4-0.3-0.5c-0.1-0.2-0.4-0.1-0.4-0.1s0.1,0.3-0.2,0.4c-0.3,0.2-0.3,0-0.4-0.1
		c0-0.1-0.4-0.2-0.5-0.3s-0.3-0.3-0.5-0.4c-0.2-0.1-0.4-0.2-0.4-0.5s-0.4-0.5-0.5-0.6c-0.1,0-0.4-0.2-0.5-0.1
		c-0.1,0.1-0.4-0.1-0.6-0.1s-0.6-0.4-0.7-0.5s-0.2-0.3-0.5-0.3s-0.3,0.1-0.5,0.3s-0.4-0.1-0.5-0.2c-0.1-0.1-0.3-0.1-0.6-0.1
		c-0.4,0-0.6-0.4-0.7-0.5c-0.1,0-0.9-0.4-1.1-0.5c-0.2-0.2-0.4-0.6-0.3-0.7c0.1-0.1-0.1-0.5-0.1-0.5s-0.3-0.5-0.5-0.5
		s-0.6-0.8-0.9-1c-0.2-0.1-0.5-0.4-0.7-0.6c-0.1,0.1-0.1,0.3-0.1,0.4c0.1,0.1,0.1,0.1,0.2,0.2c0.4,0.3,0.2,0.7,0.4,0.8
		c0.2,0.1,0.8,0.5,0.5,0.7c-0.2,0.2-0.5-0.3-0.6-0.3c-0.1-0.1-0.3-0.1-0.3-0.3c0.1-0.2-0.1-0.3-0.2-0.4c-0.2,1.2-0.3,2.5-0.3,3.7
		c0,7,2.8,13.6,7.7,18.5c1.7,1.7,3.6,3.1,5.7,4.3c0.1-0.4-0.1-0.4-0.3-0.5c-0.1-0.1,0.3-0.3,0.2-0.4c0-0.2-0.3-0.1-0.3-0.3
		s0.3-0.5,0.3-0.6s-0.2-0.3-0.2-0.4c0-0.1,0.1-0.3,0.3-0.5c0.2-0.2,0.3-0.5,0.3-0.6s-0.1-0.4-0.1-0.6s0.1-0.3,0.2-0.6
		c0.1-0.4-0.2-0.2-0.2-0.5c0-0.2,0.3-0.1,0.2-0.4s0.1-0.4,0.2-0.6s0.2-0.5,0.3-0.7c0.1-0.2-0.1-0.6-0.1-0.7c0-0.1,0.4-0.2,0.2-0.4
		c-0.2-0.2,0-0.4,0.2-0.5c0.2-0.2,0-0.6,0.1-1.1s0.2-1.4,0.2-1.5C112,148,112.1,147.6,111.3,147.3z"/>
	<path class="st0" d="M37.1,148.9c-15.1,21.5-18,39.7-13.6,46.9c4.4,7.4,20.8,13.2,47.4,8.9c-3.2-10.5-5.7-22.2-7.4-34.8
		C53.2,162.8,44.4,155.7,37.1,148.9z"/>
	<path class="st0" d="M146.9,129c-0.2,0-0.6,0.1-0.7,0.1c-0.2,0-0.6-0.2-0.7-0.1c-0.1,0.1-0.6,0-0.7-0.1c-0.1-0.1-0.6-0.3-0.7-0.4
		c0-0.1,0-0.8-0.1-1s-0.4,0-0.5,0.1s-0.5,0.2-0.4,0.3c0.2,0.1,0.5,0.3,0.5,0.5s-0.3,0.3-0.4,0.4c-0.1,0.1-0.4,0.2-0.5,0.1
		c-0.1-0.2-0.4-0.8-0.5-0.9c-0.1-0.2-0.3-0.4-0.4-0.7c-0.1-0.2-0.4-0.3-0.6-0.5s-0.8-0.5-1-0.7c-0.3-0.2-0.7-0.4-0.7-0.1
		s0.4,0.3,0.6,0.6c0.1,0.1,0.2,0.2,0.3,0.3c0.2,0.2,0.4,0.2,0.5,0.3c0.2,0.1,0.7,0.5,0.7,0.5s-0.2,0.1-0.4,0.1
		c-0.2-0.1-0.1,0.3-0.1,0.5c0,0,0,0,0,0.1l0,0c0.1,0.3-0.2,0.3-0.4,0.3c-0.1-0.1-0.3-0.2-0.4-0.3h-0.1c-0.1-0.1-0.3-0.2-0.2-0.3
		s0.5,0,0.6,0c0,0,0.1,0,0.2,0c-0.1-0.2-0.2-0.3-0.3-0.4s-0.9-0.3-1-0.4s-0.3-0.2-0.5-0.4c-0.1-0.1-0.2-0.2-0.2-0.3
		c-0.1-0.2-0.5-0.3-0.6-0.2c-0.1,0.1-0.5,0.4-0.7,0.4s-0.5-0.2-0.7-0.2s-0.3,0.1-0.3,0.3c0,0.1-0.1,0.2-0.1,0.3
		c-0.1,0.3-0.5,0.1-0.7,0.3s-0.6,0.4-0.5,0.6c0.1,0.2,0.3,0.2,0,0.3c-0.3,0.2-0.4,0.5-0.7,0.5c-0.2,0.1-0.6,0.2-0.7,0.1
		c-0.1-0.1-0.2,0.3-0.3,0.4c-0.1,0.1-0.3-0.3-0.4-0.4c-0.1-0.2-0.5-0.1-0.6-0.1s-0.3-0.3-0.4-0.4c-0.1-0.2-0.1-0.4,0-0.5
		c0.1-0.1,0.2-0.2,0.1-0.5c-0.1-0.1-0.1-0.3-0.1-0.5s0.1-0.3,0.2-0.4c0.3-0.1,1,0,1.3,0s0.9,0.1,1-0.1c0.2-0.3,0.2-0.5,0.2-0.8
		c-0.1-0.2-0.6-0.4-1-0.5s-0.3-0.3,0.1-0.3s0.4-0.1,0.7-0.2c0.4-0.1,0.7-0.2,1-0.2s0.3-0.2,0.3-0.4c0-0.1,0.7-0.2,0.7-0.2
		s0.4-0.3,0.6-0.5s0.6-0.2,0.9-0.1c0.4,0.1,0-0.2-0.1-0.3c-0.1-0.1,0-0.4,0.1-0.6c0-0.2,0.6-0.3,0.7-0.2c0.1,0,0,0.3,0,0.5
		c0.1,0.3,0.3,0.4,0.3,0.4h0.2c0,0,0,0,0.4,0c0.3,0,0.2,0.2,0.5,0.1c0.2-0.1,0.6-0.2,0.7-0.3c0.2,0,0.5,0,0.9,0.1s0.2-0.3,0.3-0.5
		c0-0.2,0.2-0.6,0.5-0.6c0.2,0.1,0.5,0.2,0.7,0.1c0.3-0.1-0.4-0.3-0.4-0.4s0.5-0.1,1-0.1c0.1,0,0.1,0,0.2,0
		c-0.1-0.2-0.2-0.3-0.3-0.5h-0.1c-0.3-0.1-0.6,0.1-0.9,0.2c-0.3,0.1-0.4-0.3-0.5-0.5s-0.2-0.5,0.2-0.7c0.1-0.1,0.3-0.1,0.4-0.2
		c-0.1-0.2-0.2-0.3-0.4-0.5c0,0.1,0.1,0.3-0.2,0.6c-0.5,0.5-0.8,0.2-1.2,0.5c-0.4,0.4-0.1,0.4,0.3,0.5c0.4,0.1,0.1,0.4,0,0.5
		s-0.6,0.4-0.5,0.6c0,0.3-0.3,0.4-0.3,0.4s-1.1,0.3-1.3,0.3s-0.3-0.1-0.2-0.3c0-0.1-0.3-0.5-0.3-0.8c0-0.2-0.5,0.1-0.5,0.3
		s-0.6,0.2-0.9,0.1c-0.3-0.1-0.5-0.5-0.4-0.6c0-0.1-0.2-0.5-0.2-0.6s0.7-0.6,1.2-0.7c0.5-0.2,1.2-0.8,1.6-1.1s0.6-0.6,0.7-0.7
		c0-0.1,0.4-0.2,0.8-0.3c-4.9-4.9-11.5-7.6-18.4-7.6c-5.9,0-11.5,2-16.1,5.6c0.3,0,0.4,0,0.5,0s0.8,0.1,0.8,0.2
		c-0.1,0.1-0.1,0.2-0.5,0.2c-0.3,0-0.9-0.1-1.3-0.1c-0.2,0.1-0.3,0.2-0.4,0.3c0.1,0,0.1,0.2,0.1,0.3c-0.1,0.4-0.1,0.4,0.3,0.3
		c0.5-0.1,0-0.5,0.2-0.5s0.7-0.1,0.9-0.1c0.2,0,1.2-0.1,1.4-0.1c0.3,0,0.6,0.2,0.9,0.3c0.2,0.1,0.9,0.3,1.1,0.4s1.4,0.3,1.5,0.3
		c0.1,0.1,0.1,0.4,0.2,0.7c0.1,0.3,0.4,0.1,0.5,0.1s0.5,0.2,0.6,0.3c0.1,0.2,1,0.3,1,0.3s-0.2,0.2-0.3,0.3c-0.1,0.1-0.3,0.2-0.5,0.3
		c-0.2,0.1-0.4-0.1-0.6-0.2c-0.2-0.2-0.6-0.3-0.7-0.2c-0.1,0.1-0.1,0.2,0,0.3c0.1,0.1,0.5,0.2,0.7,0.4s0.2,0.4,0.2,0.6
		c0,0.3-0.2,0-0.5-0.1s-0.3,0.2-0.3,0.2s-0.3,0-0.5,0s0,0-0.3-0.2c-0.3-0.3-0.2,0.1-0.4,0c-0.1-0.1-0.3-0.3-0.4-0.2
		c0,0.1-0.3-0.2-0.5-0.2c-0.1,0.1-0.8-0.1-1,0c-0.2,0-0.4,0-0.5,0.1s-0.2-0.4-0.1-0.5c0.1-0.2,0.3-0.2,0.7-0.1
		c0.4,0.1,0.4,0,0.5-0.1s0.2-0.3,0.6-0.4c0.4-0.2,0-0.2-0.1-0.3c-0.1-0.1-0.2-0.2-0.3,0c-0.1,0.2-0.3,0.4-0.3,0.4s-0.2,0-0.5,0
		s0-0.1,0.1-0.2c0.2-0.1,0.3-0.4,0.2-0.5c-0.2-0.1-0.2-0.2-0.5-0.1c-0.3,0-0.1-0.2-0.3-0.3c-0.2-0.1-0.1,0.1-0.1,0.2
		s-0.3,0.1-0.3,0.1s-0.4-0.1-0.5,0s-0.4,0.2-0.3,0.3c0.1,0,0.4,0,0.5,0.3c0,0.2-0.4,0.3-0.5,0.3s-0.4,0.1-0.4,0.1s-0.3-0.1-0.6-0.1
		s-0.4,0-0.3,0.1c0.1,0.2,0.2,0.1,0.3,0.1c0,0,0,0.2,0.3,0.1c0.2,0,0.2-0.1,0.4,0.1c0.2,0.2,0.4,0.2,0.8,0.4
		c0.3,0.2-0.1,0.4-0.3,0.4c-0.2,0-0.2-0.1-0.3-0.3c-0.1-0.2-0.6,0-0.6,0s-0.4,0.2-0.6,0.2s-0.4,0-0.1-0.2s-0.3-0.2-0.3-0.5
		s-0.1,0.3-0.1,0.4c0,0.2-0.2,0-0.7,0.1c-0.5,0-0.4,0.2-1,0.6s-0.8,0.5-0.7,0.9c0.1,0.4,0.2,0.2,0.5,0.3c0.3,0.1,0.2,0.5,0.4,0.5
		c0.2-0.1,0.3-0.2,0.7,0c0.4,0.2,0.6,0.2,1.1,0.3c0.5,0.1,0.8,0.3,1.1,0.2c0.2-0.1,0.4,0,0.4,0.2s0.1,0.2,0.1,0.5s0.3-0.2,0.3-0.2
		s0.1,0.4,0,0.5s0.1,0.3,0.2,0.3c0.1-0.1,0.3,0,0.5-0.1s-0.1-0.5-0.1-0.7c0-0.1-0.2-0.2-0.3-0.4c-0.1-0.1,0.2-0.2,0.3,0
		c0.1,0.2,0.3,0,0.5-0.1s0.2-0.4,0.2-0.4s-0.3-0.5-0.6-0.6c-0.3-0.1-0.2-0.1,0.1-0.2c0.3-0.1,0-0.2,0.1-0.5s0.1-0.5,0.2-0.5
		c0.2,0,0.7-0.1,1.1-0.1c0.4,0.1,0.6,0.4,0.9,0.4s0.7,0.1,0.8,0.2c0.1,0.1-0.3,0.2-0.1,0.4c0.2,0.2,0.2,0.2,0.4,0.3
		c0.2,0.1,0.4,0,0.7-0.3s0.4-0.4,0.5-0.3c0.1,0,0.7,0.7,0.8,0.8c0.2,0.1,0.5,0.5,0.5,0.6s0.4,0.1,0.5,0.1s0.5,0.3,0.6,0.5
		c0,0.2,0.1,0.2,0.5,0.3c0.4,0.1,0,0.4-0.1,0.6c-0.1,0.1-0.2,0.2-0.3,0.4c-0.2,0.2,0,0,0.1,0.1c0.1,0,0.2,0.2,0.4,0.1
		c0.2,0,0.3,0,0.4,0.2s0.2,0.4,0.3,0.5c0.1,0.1,0,0.3-0.1,0.2c-0.1-0.2-0.5-0.1-0.5-0.1s-0.1,0.2-0.2,0.1c-0.1,0-0.2-0.2-0.4-0.1
		c-0.2,0-0.4,0-0.6,0c-0.3,0.1-0.3-0.1-0.2-0.2c0.2-0.1,0.2-0.5,0.5-0.7c0.3-0.1,0.2-0.4,0-0.4s-0.3,0.2-0.4,0.3
		c-0.1,0.1-0.3,0.1-0.5,0.2s-0.7,0-0.5,0.1s-0.3,0.3-0.5,0.3s-0.1-0.4-0.1-0.5s-0.2,0.1-0.2,0.1s-0.4-0.3-0.6-0.1
		c-0.1,0.1-0.4,0.2-0.6,0.4s-0.7,0.5-0.7,0.5s0.2-0.1,0.5-0.2s0.3-0.1,0.6-0.2c0.3-0.1,0.6-0.2,0.8,0.1c0.2,0.3-0.1,0.4-0.1,0.4
		s0.1,0.2,0.2,0.3c0.1,0,0.1-0.1,0.3-0.2c0.2-0.2,0.1,0.2,0.2,0.3c0.1,0.1,0.3,0.1,0.4,0c0.1-0.2,0.2-0.3,0.3-0.2
		c0.1,0.1,0.2,0.3,0.3,0.5c0.1,0.2-0.6,0.3-0.7,0.3c-0.1,0.1-0.6,0.2-0.7,0.2s-0.4,0.3-0.6,0.3s-0.2-0.3-0.2-0.5s-0.3,0-0.3,0.1
		s-0.3,0.1-0.5,0.1c-0.2,0.1-0.5,0.3-0.5,0.5c0,0.3,0.3,0.4,0.2,0.5c-0.1,0.1-0.6,0.2-0.8,0.1c-0.2-0.1-0.5,0.1-0.4,0.2
		c0.1,0.2,0,0.3-0.2,0.3s-0.2,0.2-0.1,0.3s-0.2,0.4-0.3,0.3c-0.1-0.1-0.3-0.2-0.3,0c0,0.1,0,0.3,0.2,0.5c0.1,0.2-0.4,0.3-0.6,0.5
		s-0.9,0.8-1.2,0.9c-0.2,0.1-0.2,0.5-0.1,0.6c0.1,0.2,0.3,0.8,0.4,1s0,0.7-0.3,0.7c-0.3-0.1-0.1-0.4-0.4-0.5s-0.4-0.7-0.5-1
		s-0.1-0.1-0.3,0c-0.1,0.1-0.3-0.2-0.4-0.3s-0.6,0-0.9,0c-0.4-0.1-0.5,0.1-0.5,0.2c0,0.1-0.1,0.4-0.4,0.2s-0.4-0.2-0.7-0.2
		c-0.4,0-0.6,0-0.7,0.1s-0.4,0.3-0.6,0.4c-0.2,0.1-0.6,0.3-0.4,0.4c0.2,0.1,0.2,0.5,0.1,0.7s-0.1,0.6,0,1c0,0.4,0.4,0.6,0.7,0.9
		c0.3,0.2,0.4,0.3,0.7,0.1c0.3-0.3,0.4-0.1,0.5-0.1s0.3-0.1,0.2-0.4c-0.1-0.3,0.1-0.5,0.4-0.5c0.2,0,0.6-0.1,0.8-0.1s0.3,0.6,0,0.8
		s-0.1,0.5-0.2,0.8c-0.1,0.2-0.3,0.3,0,0.3s0.2,0.1,0.4,0.1s0.4-0.2,0.6-0.2s0.7,0.5,0.6,0.7c0,0.2-0.1,0.6-0.1,1s0.1,0.4,0.2,0.5
		s0.3,0.3,0.5,0.2s0.4-0.1,0.5-0.2l0.1-0.1c0.1-0.1,0.2,0,0.4,0.1c0.1,0.1,0.2,0.2,0.2,0.2c0,0.1,0.2,0.2,0.4,0.1
		c0.1-0.1,0.2-0.2,0.3-0.3c0-0.1,0-0.1,0.1-0.2c0.2-0.3,0.5-0.5,0.6-0.5s0.5-0.4,0.7-0.3c0.2,0-0.1,0.3-0.1,0.5c0,0.1,0,0.2,0,0.4
		c0,0.1,0,0.2,0.1,0.2c0.1,0.1,0.1-0.1,0.1-0.2c0-0.2,0-0.3,0.1-0.4c0.2-0.3,0.5-0.4,0.6-0.4c0.2,0,0.3,0.6,0.5,0.4s0.6-0.2,0.7,0
		s0.2,0.3,0.2,0.3s0.1-0.2,0.1-0.3s0.4-0.3,0.7-0.1c0.3,0.2,0.2,0.3,0.3,0.3c0.2,0,0.3-0.4,0.4-0.4s0,0.3-0.1,0.6
		c0,0.1-0.1,0.2-0.1,0.2c-0.2,0.3,0.2,0.2,0.2,0.2s0,0,0.1,0.1s0.4-0.1,0.5,0.1c0.1,0.1,0.3,0.2,0.5,0.5s0.5,0.3,0.8,0.2
		s0.8,0.1,1.1,0.5s0.3,0.7,0.5,0.7s0.3,0.3,0.3,0.4c0,0.1-0.5,0.3-0.8,0.4c-0.3,0.1-0.3,0.4,0.2,0.3c0.4,0,0.2-0.2,0.5-0.3
		c0.3,0,0.6,0.2,0.3,0.5c-0.2,0.3-0.8,0.3-0.3,0.4c0.5,0.1,0.2-0.1,0.5-0.4c0.3-0.3,0.2-0.2,0.4-0.2s0.6,0.1,0.7,0.2
		c0.1,0.1,0.5,0.3,0.7,0.4c0.2,0.1,0.5,0.1,0.7,0c0.1-0.1,0.6,0.2,0.8,0.4c0.2,0.2,0.6,0.2,0.8,0.3c0.2,0.1,0.5,0.4,0.5,0.7
		c0.1,0.3-0.3,0.9-0.3,1s-0.5,0.7-0.9,1s-0.1,0.7-0.1,0.9c0,0.1-0.3,0.8-0.2,0.9c0.1,0.2-0.1,0.5-0.3,0.7c-0.2,0.2-0.3,0.5-0.4,0.7
		s-0.5,0.1-0.8,0.2c-0.3,0.1-0.5,0.2-0.5,0.2s-0.6,0.3-0.9,0.5c-0.4,0.3,0.1,0.7-0.1,1c-0.2,0.4-0.3,0.3-0.5,0.7
		c-0.2,0.3-0.3,0-0.4,0.1c-0.2,0-0.3,0.3-0.3,0.5s-0.3,0.5-0.7,0.8c-0.4,0.4-0.6,0.3-1,0.2c-0.4-0.2-0.3-1.1-0.4-1s-0.1,0.6,0,0.7
		c0.1,0.1,0.3,0.4,0.4,0.5s0.1,0.3,0,0.4c-0.1,0.2-0.4,0.7-0.5,0.7c-0.1,0.1-1,0.2-1.2,0.1c-0.1-0.1-0.2,0.2-0.2,0.4
		c0.1,0.2,0.2,0.4-0.1,0.3c-0.3,0-0.7-0.2-0.7-0.1c0,0.2,0.1,0.5,0.3,0.5c0.2,0,0.4-0.1,0.3,0.1c-0.1,0.2-0.3,0.4-0.4,0.5
		s-0.2,0.4-0.5,0.6s-0.3,0.3-0.2,0.4c0.1,0.1,0.5,0,0.6,0.1c0.1,0-0.1,0.4-0.2,0.5s-0.6,0.5-0.8,0.6c-0.2,0.1-0.2,0.4-0.1,0.6
		s0.5,0.6,0.8,0.7c0.2,0,0.8,0,0.7,0.1c-0.1,0.1-0.7,0.2-0.8,0.2c-0.1,0-0.2,0.1-0.4,0.1c3.3,1.5,7,2.3,10.7,2.3
		c7,0,13.6-2.8,18.5-7.7c0.6-0.6,1.2-1.2,1.7-1.8c-0.3,0-0.6,0-0.7,0.1c-0.1,0.2-0.3,0.1-0.6,0c-0.2-0.2-0.3-0.4-0.3-0.7
		s-0.1-0.5-0.1-0.5s0-0.5-0.3-0.7c-0.3-0.3-0.4-0.5-0.5-0.7c-0.2-0.2-0.1-0.6-0.1-0.9s-0.2-0.8-0.3-1c-0.1-0.3-0.4-0.8-0.5-1
		s-0.2-0.6-0.2-1.2c0.1-0.6,0.5-0.9,0.7-1.1c0.2-0.1,0-0.4-0.2-0.7s0.1-0.9-0.1-1.1c-0.2-0.2-0.8-1.2-1.1-1.4
		c-0.3-0.1-0.4-0.2-0.2-0.6c0.1-0.2,0.1-0.4,0.1-0.6s0.1-0.4,0.2-0.5c0.3-0.3,0.1-0.4-0.2-0.6c-0.4-0.2-0.2-0.3-0.5-0.1
		s-0.6,0.3-0.8,0.1s-0.1-0.5-0.5-0.7c-0.4-0.3-0.9,0-1,0.1c-0.2,0.1-0.6,0.3-1,0.4c-0.4,0.1-0.7,0-1.1,0c-0.4,0-0.7,0-0.8,0.2
		s-0.1,0.3-0.4,0.1s-0.8-0.7-0.8-0.7s-0.8-0.6-0.9-0.9c-0.1-0.3-0.4-0.5-0.9-0.8c-0.6-0.2-0.2-0.5-0.3-0.8s-0.3-0.4-0.2-0.4
		s0.1-0.2,0.4-0.6c0.4-0.4,0.2-0.9,0.1-1.1c-0.1-0.2-0.4-0.5-0.1-0.9c0.3-0.4,0.6-1.2,0.8-1.4s0.8-0.6,1.1-0.7
		c0.3-0.2,0.1-0.6,0.3-1s0.4-0.6,0.5-0.6c0,0,0.4-0.3,0.7-0.5c0.3-0.1,0.9,0.1,1,0c0.1,0,0.5-0.2,0.8-0.3s1.1-0.4,1.2-0.4
		c0.2,0,1.6,0,1.8-0.1c0.3-0.1,0.8-0.2,1,0.4c0.3,0.6,0,0.4-0.2,0.5s0.1,0.4,0.2,0.4c0.1,0,0.5,0.4,0.7,0.4s0.7,0.2,0.7,0.2
		s0.4,0.4,0.7,0.4c0.2,0,0.4,0.2,0.7-0.1c0.2-0.3,0.6-0.7,0.9-0.6s0.6,0.3,1,0.3s1.1,0,1.2,0.1c0.1,0.1-0.8,0.6-0.7,0.7
		c0.1,0.1,0.2,0,0.5-0.3s0.8-0.3,1.1-0.4c0.2-0.1,0.3,0-0.3,0.2c0.1,0,0.3,0,0.4,0c0.3,0,0.2-0.1,0.5-0.4c0.3-0.3,0.4-0.8,0.4-1.2
		C147.4,128.8,147.1,128.9,146.9,129z M133.6,121.4c0.2,0,0.4,0.2,0.5,0c0.2-0.2,0.4-0.3,0.6-0.2c0.3,0.1,0.4,0.1,0.6,0.3
		s-0.2,0.5,0,0.6c0.1,0.1,0.2,0.3,0.4,0.5c0.1,0.2,0.2,0.3,0.3,0.3c0.3,0.1,0.6,0.4,0.6,0.6s-0.4,0.5-0.6,0.5
		c-0.2,0-0.7-0.1-0.9-0.1c-0.3,0-0.4,0.3-0.5,0.2c-0.2-0.1,0-0.3,0-0.3s-0.6-0.1-0.5-0.3c0.1-0.2,0.5-0.5,0.7-0.6s-0.1-0.2-0.4-0.3
		c-0.1,0-0.2-0.1-0.3-0.1c-0.3-0.1-0.5-0.4-0.5-0.6C133.5,121.8,133.4,121.5,133.6,121.4z M132.4,123.2c-0.1-0.1-0.1-0.1-0.1-0.2
		c-0.1-0.2,0.1-0.3,0.3-0.3s0.2-0.3,0.5-0.3c0.2,0,0.4,0,0.5,0.1s0.2,0.3,0.2,0.6c0,0.2-0.3,0.4-0.5,0.5c-0.2,0-0.4,0.2-0.7,0.4
		c-0.3-0.1-0.5-0.4-0.3-0.5S132.4,123.3,132.4,123.2z M108.8,120.3c-0.1,0.1-0.3,0-0.3-0.1c0,0,0-0.1,0.1-0.1
		C108.7,120,108.8,120.1,108.8,120.3C108.9,120.2,108.9,120.3,108.8,120.3z M109.4,132.8c0.2-0.1,0.3,0,0.3,0.1c0,0-0.1,0.1-0.2,0.1
		c-0.2,0-0.3-0.1-0.3-0.1S109.3,132.8,109.4,132.8z M109.6,135.5c-0.2,0.1-0.3-0.1-0.3-0.2c0-0.1,0.1-0.2,0.2-0.2
		c0.1-0.1,0.3,0.1,0.3,0.2C109.8,135.4,109.7,135.5,109.6,135.5z M109.7,134.3c-0.1-0.1-0.5-0.3-0.7-0.4c-0.1-0.1-0.1-0.1-0.1-0.1
		c-0.2-0.2-0.8-0.1-1.1-0.1c-0.3,0-0.6,0.1-0.6-0.2c0,0,0.7-0.2,0.9-0.2c0.1,0,0.6,0,0.8,0.2c0.2,0.1,0.4,0.2,0.6,0.3
		c0.1,0.1,0.2,0.1,0.3,0.1c0.2,0,0.5,0.3,0.5,0.4C110.3,134.4,109.8,134.4,109.7,134.3z M112.6,135c0,0.3-0.2,0-0.3,0
		c-0.1,0-0.4,0.2-0.6,0.1c-0.2-0.1-0.3-0.2-0.5-0.2s-0.5-0.1-0.5-0.1s0,0,0.1-0.1s0.4-0.3,0.5-0.3c0.2,0,0.5-0.1,0.7,0
		c0.2,0,0.4,0.1,0.6,0.4C112.6,134.8,112.6,134.9,112.6,135z M113.4,135.1c-0.2,0.1-0.3-0.1-0.3-0.2c0-0.1,0.1-0.2,0.2-0.2
		s0.3,0.1,0.3,0.2S113.5,135.1,113.4,135.1z M131.1,119.1c-0.1,0.1-0.2,0.2-0.2,0.2s-0.5,0-0.6,0.1s-0.4,0.2-0.7,0.3
		c-0.1,0-0.1,0-0.2,0c-0.2,0-0.3-0.1-0.3-0.2c-0.1-0.1-0.6-0.1-0.7-0.1s-0.2-0.1-0.3-0.3c0,0-0.1,0-0.1-0.1c-0.1-0.3,0-0.3,0.1-0.4
		c0-0.1,0.6-0.1,0.8,0.1s0.4,0,0.8,0s0.5-0.1,0.7-0.1c0.2,0.1,0.6,0.2,0.8,0.2C131.3,118.9,131.2,119,131.1,119.1z M130.8,113.3
		c-0.4,0.1-1.2,0.9-1.4,1s-0.4,0.3-0.3,0.6c0.1,0.3,0.3,0.1,0.4,0.2c0.2,0-0.1,0.1-0.2,0.3c-0.1,0.2-0.1,0.4-0.1,0.7v0.1
		c0.1,0.4-0.5,0.2-0.9,0.2c-0.4,0-0.4,0.2-0.3,0.3c0.1,0.1,0.1,0.3,0.2,0.4c0.1,0,0.2,0.3-0.2,0.4c-0.4,0-0.5-0.2-0.5-0.4
		c0.1-0.1-0.3-0.2-0.4-0.2s-0.4,0.4-0.1,0.4s0.5,0.3,0.6,0.4s-0.3,0.1-0.5,0.1c-0.2-0.1-0.7,0.2-1.2,0.3c-0.5,0-1.1,0.1-1.3,0.1
		c-0.2,0.1-0.5,0.5-0.6,0.6s-0.8,0-1,0c-0.3,0-0.5,0.2-0.9,0.3c-0.4,0.1-0.2,0.3-0.2,0.5s-0.2,0.3-0.4,0.2s-0.2,0-0.2,0.2
		s0,0.4-0.2,0.6s-0.3,0.2-0.6,0.2c-0.2,0-0.2-0.4-0.3-0.4c-0.1,0-0.5,0.3-0.6,0.1c-0.1-0.2-0.7-0.5-0.9-0.6c-0.3,0-0.4-0.4-0.5-0.5
		c-0.1-0.2,0.3-0.2,0.2-0.2c-0.1,0-0.5-0.1-0.6-0.2c0-0.1-0.3-0.6-0.3-0.7s0.3-0.3,0.3-0.4s-0.3-0.1-0.4-0.1s-0.3-0.3-0.1-0.6
		c0.2-0.3,0.5-0.2,0.5-0.2s0.1,0,0.3,0c0.1,0,0.1,0.3,0,0.5c-0.1,0.1,0.1,0.1,0.2,0.2c0.1,0,0.2-0.2,0.2-0.3c0-0.1-0.3-0.5-0.4-0.6
		s-0.5-0.2-0.6-0.1s-0.4,0.5-0.5,0.4s-0.1-1-0.3-1.2c-0.2-0.2-0.8-0.3-1-0.4s-1.1-0.2-1.3-0.2c-0.2-0.1-0.8,0.1-1,0
		s-0.2-0.5-0.2-0.5s-0.1,0.4-0.2,0.5s-0.3,0.2-0.5,0.1c-0.2,0-0.4-0.4-0.7-0.5c-0.3,0-0.5,0.1-0.7-0.1c-0.3-0.2,0.6-0.2,0.7-0.2
		s0.8-0.1,0.8-0.3s0.3-0.4,0.6-0.3c0.3,0.1,0.4-0.2,0.4-0.4c0-0.3,0.6-0.5,0.7-0.4c0.2,0.2,0.7,0,0.5-0.2s0.6-0.5,1.4-0.5
		c0.8-0.1,1,0,1.2,0.1s0.9,0.2,1.1-0.1c0.3-0.3,0-0.6,0.3-0.8c0.3-0.1,0.3,0.2,0.5,0.4c0.3,0.1,0.5-0.5,0.7-0.7s7.3-0.2,7.3-0.2
		s0,0,0.4-0.1s0.9,0.9,0.9,1.4s-0.1,0.4,0.4,0.5s0.7-0.2,1.1-0.5c0.4-0.3,1-0.1,1.3,0C131.7,112.6,131.4,113,130.8,113.3z
		 M137,127.7c-0.1,0.1-0.4,0-0.3-0.1h-0.1c0,0,0,0,0.1,0C136.8,127.4,136.9,127.5,137,127.7L137,127.7z M139.1,127.6
		c-0.2,0.2-0.3,0.2-0.5,0.1c-0.1,0-0.1-0.1-0.1-0.2s0.1-0.3,0.3-0.3c0.1,0,0.3,0.1,0.3,0.2C139.1,127.5,139.1,127.6,139.1,127.6z"/>
	<path class="st0" d="M166.5,106.4c-8.2-5.1-17.4-10.3-27.7-15.3c-6.2-3-12.1-5.7-17.7-8c-7.1,3.6-14.7,7.7-22.9,12.5
		s-15.6,9.7-22.3,14.7c-0.6,7.5-1,15.8-1,24.7c0,9.7,0.5,18.8,1.4,27.3c7.3,4.4,15.4,9,24.7,13.5c8.4,4.1,16.5,7.6,24.3,10.4
		c7.4-3.6,15.1-7.8,23.2-12.6c6.4-3.8,12.3-7.6,17.7-11.4c0.9-9.3,1.4-19.5,1.4-30.5C167.6,122.6,167.2,114.1,166.5,106.4z
		 M123.5,165.6c-16.3,0-29.5-13.2-29.5-29.5s13.2-29.5,29.5-29.5s29.5,13.2,29.5,29.5S139.8,165.6,123.5,165.6z"/>
	<path class="st0" d="M78.8,179.4c1.6,8.2,3.5,15.6,5.7,22.3c7.3-1.9,15.1-4.5,23.5-7.8c-4.5-1.9-9-4-13.6-6.2
		C89,185,83.8,182.2,78.8,179.4z"/>
	<path class="st0" d="M155.3,186c-3.4,2.2-6.9,4.4-10.4,6.4c5.4,1.4,10.6,2.5,15.6,3.3c1.2-4.6,2.2-9.4,3.1-14.6
		C158.5,184.3,155.3,186,155.3,186z"/>
	<path class="st0" d="M122.6,250.5c9.2,0,23.8-12.7,33.9-41.5c-9.2-1.7-18.8-4.3-28.8-7.6c-12.9,6.1-25.8,10.6-38,13.7
		C100.3,238.9,114.1,250.5,122.6,250.5z"/>
	<path class="st0" d="M61.3,134.4c0-4.3,0.1-8.5,0.3-12.5c-6.5,5.7-12,11.4-16.7,17c4.7,4.4,10.3,9,17,13.9
		C61.5,146.8,61.3,140.7,61.3,134.4z"/>
	<path class="st0" d="M180.1,169.9c-1.2,9.7-3,18.9-5.3,27.6c28.7,2,47-5.7,51-13.7c3.6-7.3,0.1-22.8-15.7-41.3
		C200.6,153.3,189.7,162.7,180.1,169.9z"/>
	<path class="st0" d="M164.2,88c-1.3-7.8-3-14.7-4.8-20.8c-6.5,2-13.6,4.6-21.4,8c4.8,2.1,7.5,3.4,7.5,3.4
		C151.9,81.5,158.2,84.6,164.2,88z"/>
	<path class="st0" d="M78,92.1c4.4-2.9,9-5.7,13.8-8.4c4.2-2.4,8.3-4.7,12.3-6.9c-7.8-2.5-15-4.4-21.5-5.7
		C80.9,77.2,79.3,84.2,78,92.1z"/>
	<path class="st1" d="M232.5,92.8c-0.3,8.9-2.7,17.4-6.4,25.5c7.7-0.4,13.7-6.8,13.7-14.6c0-8.1-6.5-14.6-14.6-14.6
		s-14.6,6.5-14.6,14.6c0,3.8,1.5,7.3,3.9,9.9c8.1-13.7,8.6-22.4,8.6-22.4L232.5,92.8z"/>
	<path class="st1" d="M78,92.3c4.4-2.9,9-5.8,13.8-8.6c-4.8,2.7-9.4,5.5-13.8,8.4C78,92.2,78,92.2,78,92.3z"/>
	<path class="st1" d="M27,138.7l-0.1-0.1C8.2,163.5,2.8,187.5,12,202.8C2.8,187.5,8.3,163.6,27,138.7z"/>
	<path class="st1" d="M63.2,102.8c0-0.1,0-0.2,0-0.2c-11,8.4-20.5,17.3-28.3,26.1c0,0.1,0.1,0.1,0.1,0.2
		C42.9,120,52.3,111.3,63.2,102.8z"/>
	<path class="st2" d="M101.5,33.6c0,0-6.6-6.5-7.7-15.2c0,0-10.7,12.9-19.9,38.4c4.3,0.5,8.5,1.2,12.7,2
		C93.8,40.4,101.5,33.6,101.5,33.6z"/>
	<path class="st2" d="M164.2,88c5.1,2.8,10,5.8,14.7,8.9c-1.5-10.2-3.8-21.6-7.2-32.9c-3.8,0.8-7.9,1.9-12.3,3.2
		C161.2,73.3,162.8,80.2,164.2,88z"/>
	<path class="st2" d="M139.2,12.7c0.1,0.6,0.1,1.2,0.1,1.9c0,3.9-1.5,7.5-4.1,10.1l-0.1,0.7c0,0,10.7,7.3,19.8,29.4
		c4.3-1.3,8.4-2.4,12.3-3.3C161,35.9,152,21.6,139.2,12.7z"/>
	<path class="st2" d="M181.7,132.2c0,0,0-6.3-0.7-16.1c-4.4-3.2-9.3-6.5-14.5-9.7c0.7,7.7,1.1,16.1,1.1,25.3c0,11-0.5,21.2-1.4,30.5
		c5.7-4,10.9-7.9,15.5-11.8C181.9,144.5,181.9,138.4,181.7,132.2z"/>
	<path class="st2" d="M122.6,250.5c-8.5,0-22.3-11.6-32.9-35.5c-4.8,1.2-9.5,2.2-14.1,2.9c11.6,29,29,46.1,47,46.1
		c18.6,0,36.7-21.1,47.9-52.9c-4.5-0.5-9.2-1.2-14-2.1C146.4,237.8,131.8,250.5,122.6,250.5z"/>
	<path class="st2" d="M163.6,181.1c-0.9,5.2-2,10-3.1,14.6c5,0.8,9.8,1.4,14.3,1.7c2.3-8.7,4.1-17.9,5.3-27.6
		C173.7,174.6,168,178.4,163.6,181.1z"/>
	<path class="st2" d="M63.5,169.8c1.7,12.7,4.2,24.3,7.4,34.8c4.3-0.7,8.8-1.7,13.6-2.9c-2.2-6.7-4.2-14.2-5.7-22.3
		C73.4,176.3,68.3,173.1,63.5,169.8z"/>
	<path class="st2" d="M61.9,152.7c4.3,3.1,9.1,6.3,14.4,9.6c-0.9-8.5-1.4-17.6-1.4-27.3c0-8.9,0.4-17.1,1-24.7
		c-5.2,3.8-9.9,7.7-14.3,11.6c-0.2,4.1-0.3,8.2-0.3,12.5C61.3,140.7,61.5,146.8,61.9,152.7z"/>
	<path class="st2" d="M78,92.3L78,92.3c1.3-8,2.8-15,4.6-21.1c-4.5-0.9-8.7-1.5-12.6-2c-2.8,9.7-5.2,20.9-6.7,33.4
		c0,0.1,0,0.2,0,0.2C67.9,99.2,72.8,95.7,78,92.3z"/>
	<path class="st2" d="M139.2,12.7c-0.9-7.2-7-12.7-14.5-12.7c-8.1,0-14.6,6.5-14.6,14.6s6.5,14.6,14.6,14.6c4.1,0,7.9-1.7,10.5-4.5
		c2.5-2.6,4.1-6.2,4.1-10.1C139.3,14,139.2,13.3,139.2,12.7z"/>
	<path class="st3" d="M218.6,131.3c-2.6,3.9-5.5,7.6-8.6,11.1c15.7,18.5,19.3,34,15.7,41.3c-4,8-22.2,15.8-51,13.7
		c-4.5-0.3-9.3-0.9-14.3-1.7s-10.1-1.9-15.6-3.3c-5.7,3.3-11.5,6.3-17.2,9c10,3.4,19.6,5.9,28.8,7.6c4.8,0.9,9.5,1.6,14,2.1
		c33.8,3.6,59-4.4,67.3-21.5C245,174.8,237.1,152.9,218.6,131.3z"/>
	<path class="st3" d="M104.1,76.8c5.8-3.1,11.3-5.9,16.6-8.4c-9.7-3.5-21.5-7.1-34-9.5c-4.2-0.8-8.4-1.5-12.7-2
		c-19.2-2.4-38.9-1.3-54.5,7.5c4.1,1.4,7.3,4.6,8.8,8.7l0.7,0.5c0,0,13.1-7.5,41-4.4c3.9,0.4,8.1,1.1,12.6,2
		C89.1,72.4,96.3,74.3,104.1,76.8z"/>
	<path class="st3" d="M145.4,78.6c0,0-2.7-1.4-7.5-3.4c-5.3,2.3-10.9,4.9-16.8,7.9c5.6,2.3,11.5,5,17.7,8
		c10.3,5,19.5,10.2,27.7,15.3c5.2,3.2,10,6.5,14.5,9.7c7.6,5.5,14.1,11,19.6,16.3c3.4-3.9,6.4-7.5,8.8-11
		c-8.7-8.6-19-16.9-30.6-24.6c-4.7-3.1-9.6-6.1-14.7-8.9C158.2,84.6,151.9,81.5,145.4,78.6z"/>
	<path class="st3" d="M76.3,162.3c-5.3-3.2-10.1-6.4-14.4-9.6c-6.7-4.8-12.3-9.5-17-13.9c-2.9,3.4-5.5,6.7-7.8,10
		c7.3,6.8,16.1,13.9,26.4,21c4.8,3.2,9.8,6.4,15.3,9.6c4.9,2.8,10.1,5.6,15.7,8.3c4.6,2.2,9.1,4.3,13.6,6.2
		c5.5-2.2,11.3-4.8,17.2-7.7c-7.8-2.8-15.9-6.3-24.3-10.4C91.8,171.3,83.6,166.8,76.3,162.3z"/>
	<path class="st3" d="M35.1,128.8c0-0.1-0.1-0.1-0.1-0.2c-11-12.8-13.4-21.3-13.4-21.3s-8.9,2.9-17.1,0.1c0,0,6,13.4,22.3,31.1
		l0.1,0.1C29.5,135.4,32.2,132.1,35.1,128.8z"/>
	<path class="st3" d="M19.5,64.4c-1.5-0.5-3.2-0.9-4.9-0.9C6.5,63.5,0,70,0,78.1s6.5,14.6,14.6,14.6s14.6-6.5,14.6-14.6
		c0-1.8-0.3-3.5-0.9-5C26.8,69,23.6,65.8,19.5,64.4z"/>
	<path class="st1" d="M127.7,201.4c5.8-2.7,11.5-5.7,17.2-9c3.5-2,7-4.1,10.4-6.4c0,0,3.2-1.7,8.3-4.9c4.4-2.7,10.1-6.5,16.5-11.3
		c9.6-7.2,20.6-16.5,30-27.4c3.1-3.6,5.9-7.3,8.6-11.1c2.8-4.2,5.3-8.5,7.4-13c3.7-8,6.1-16.6,6.4-25.5l-9.4-1.6
		c0,0-0.5,8.7-8.6,22.4c-1.4,2.4-3.1,5.1-5.1,7.8c-2.5,3.5-5.4,7.1-8.8,11c-5.1,5.7-11.3,11.7-18.9,18c-4.6,3.8-9.8,7.8-15.5,11.8
		c-5.4,3.7-11.2,7.6-17.7,11.4c-8.1,4.8-15.8,9-23.2,12.6c-6,2.9-11.7,5.5-17.2,7.7c-8.4,3.4-16.2,5.9-23.5,7.8
		c-4.8,1.3-9.4,2.2-13.6,2.9c-26.6,4.3-43-1.4-47.4-8.9c-4.4-7.3-1.6-25.4,13.6-46.9c2.3-3.3,4.9-6.6,7.8-10
		c4.7-5.6,10.3-11.3,16.7-17c4.3-3.9,9.1-7.7,14.3-11.6c6.7-5,14.1-9.9,22.3-14.7c8.1-4.8,15.7-8.9,22.9-12.5
		c5.9-3,11.6-5.6,16.8-7.9c7.8-3.4,15-6,21.4-8c4.4-1.4,8.5-2.4,12.3-3.2c42.3-9,50.1,13.2,50.1,13.2s7.9-3.3,15.5-0.8
		c0,0-9.8-38.2-69.9-24.8c-3.9,0.9-8,2-12.3,3.3c-10.2,3.1-21.5,7.5-34.3,13.6c-5.3,2.5-10.8,5.3-16.6,8.4c-4,2.1-8.1,4.4-12.3,6.9
		c-4.8,2.8-9.4,5.6-13.8,8.6c-5.2,3.4-10.1,7-14.8,10.6c-10.9,8.4-20.3,17.2-28.1,26c-2.9,3.3-5.6,6.6-8.1,9.9
		C8.4,163.6,2.9,187.5,12,202.9c8.9,14.9,33.4,20,63.7,15.1c4.6-0.7,9.3-1.7,14.1-2.9C101.9,212,114.8,207.4,127.7,201.4z"/>
	<path class="st4" d="M108.6,120.1C108.5,120.1,108.5,120.2,108.6,120.1c-0.1,0.2,0.1,0.3,0.2,0.2c0.1,0,0.1-0.1,0.1-0.1
		C108.8,120.1,108.7,120,108.6,120.1z"/>
	<path class="st4" d="M130.4,118.6c-0.2,0-0.3,0.1-0.7,0.1s-0.6,0.2-0.8,0s-0.8-0.2-0.8-0.1c-0.1,0.1-0.2,0.1-0.1,0.4
		c0,0.1,0.1,0.1,0.1,0.1c0.1,0.2,0.2,0.3,0.3,0.3s0.6,0,0.7,0.1c0,0.1,0.1,0.2,0.3,0.2c0.1,0,0.1,0,0.2,0c0.3-0.1,0.6-0.2,0.7-0.3
		c0.1-0.1,0.6-0.1,0.6-0.1s0.1-0.1,0.2-0.2c0.1-0.1,0.2-0.2,0.1-0.3C131,118.8,130.6,118.7,130.4,118.6z"/>
	<path class="st4" d="M130.1,112.5c-0.4,0.3-0.6,0.6-1.1,0.5s-0.4,0-0.4-0.5s-0.5-1.5-0.9-1.4s-0.4,0.1-0.4,0.1s-7.1,0-7.3,0.2
		s-0.4,0.8-0.7,0.7c-0.2-0.2-0.2-0.5-0.5-0.4c-0.3,0.2,0,0.5-0.3,0.8c-0.2,0.3-0.9,0.2-1.1,0.1s-0.4-0.2-1.2-0.1
		c-0.8,0-1.6,0.3-1.4,0.5s-0.3,0.4-0.5,0.2c-0.1-0.1-0.7,0.1-0.7,0.4c0,0.2-0.1,0.5-0.4,0.4s-0.6,0.1-0.6,0.3s-0.7,0.3-0.8,0.3
		s-1,0-0.7,0.2c0.2,0.2,0.4,0.1,0.7,0.1c0.3,0.1,0.5,0.5,0.7,0.5c0.2,0.1,0.4,0,0.5-0.1s0.2-0.5,0.2-0.5s0,0.4,0.2,0.5s0.8-0.1,1,0
		c0.2,0,1.1,0.1,1.3,0.2c0.2,0.1,0.8,0.2,1,0.4c0.2,0.2,0.2,1.1,0.3,1.2c0.1,0.1,0.4-0.3,0.5-0.4s0.5,0,0.6,0.1s0.4,0.5,0.4,0.6
		s-0.1,0.3-0.2,0.3c-0.1-0.1-0.3-0.1-0.2-0.2c0.1-0.2,0.1-0.5,0-0.5c-0.2,0-0.3,0-0.3,0s-0.3-0.1-0.5,0.2c-0.2,0.3,0,0.6,0.1,0.6
		s0.4,0,0.4,0.1s-0.3,0.3-0.3,0.4s0.3,0.6,0.3,0.7c0.1,0.1,0.5,0.2,0.6,0.2s-0.3,0-0.2,0.2c0.1,0.1,0.2,0.5,0.5,0.5
		c0.2,0.1,0.8,0.4,0.9,0.6s0.5-0.1,0.6-0.1s0.1,0.4,0.3,0.4c0.3,0,0.4,0,0.6-0.2s0.2-0.4,0.2-0.6s0-0.3,0.2-0.2s0.4,0,0.4-0.2
		s-0.2-0.4,0.2-0.5c0.4-0.1,0.6-0.3,0.9-0.3c0.2,0,0.9,0.1,1,0s0.4-0.5,0.6-0.6c0.2,0,0.8-0.1,1.3-0.1c0.5-0.1,1-0.4,1.2-0.3
		c0.2,0,0.6,0,0.5-0.1s-0.3-0.4-0.6-0.4c-0.3,0,0-0.4,0.1-0.4s0.5,0.1,0.4,0.2c0,0.2,0.1,0.4,0.5,0.4c0.4-0.1,0.3-0.4,0.2-0.4
		c-0.1-0.1-0.1-0.3-0.2-0.4c-0.1-0.1-0.1-0.3,0.3-0.3c0.4,0,1,0.2,0.9-0.2v-0.1c0-0.3,0-0.5,0.1-0.7s0.4-0.3,0.2-0.3
		c-0.1-0.1-0.3,0.1-0.4-0.2c-0.1-0.3,0.1-0.5,0.3-0.6s1-0.9,1.4-1c0.6-0.3,0.9-0.7,0.6-0.8C131.1,112.4,130.5,112.2,130.1,112.5z"/>
	<path class="st4" d="M109.8,133.9c-0.1,0-0.2,0-0.3-0.1c-0.2-0.1-0.4-0.2-0.6-0.3c-0.2-0.2-0.7-0.2-0.8-0.2c-0.2,0-0.9,0.2-0.9,0.2
		c0,0.3,0.3,0.2,0.6,0.2c0.3,0,0.9-0.1,1.1,0.1c0,0,0,0,0.1,0.1c0.2,0.1,0.6,0.3,0.7,0.4c0.1,0.1,0.6,0.1,0.6,0
		C110.3,134.2,110,133.9,109.8,133.9z"/>
	<path class="st4" d="M109.7,132.9c0-0.1-0.1-0.2-0.3-0.1c-0.1,0-0.2,0.1-0.2,0.1s0.1,0.1,0.3,0.1
		C109.6,133,109.7,132.9,109.7,132.9z"/>
	<path class="st4" d="M109.5,135.1c-0.1,0-0.2,0.1-0.2,0.2c0,0.1,0.1,0.3,0.3,0.2c0.1,0,0.2-0.1,0.2-0.2
		C109.8,135.2,109.6,135,109.5,135.1z"/>
	<path class="st4" d="M113.3,134.7c-0.1,0-0.2,0.1-0.2,0.2c0,0.1,0.1,0.3,0.3,0.2c0.1,0,0.2-0.1,0.2-0.2S113.4,134.7,113.3,134.7z"
		/>
	<path class="st4" d="M112,134.4c-0.2-0.1-0.5,0-0.7,0c-0.1,0-0.4,0.2-0.5,0.3s-0.1,0.1-0.1,0.1s0.3,0.1,0.5,0.1s0.3,0.1,0.5,0.2
		c0.2,0.1,0.5-0.1,0.6-0.1s0.3,0.3,0.3,0c0-0.1,0-0.2,0-0.2C112.4,134.5,112.2,134.4,112,134.4z"/>
	<path class="st4" d="M138.8,127.2c-0.2,0-0.3,0.2-0.3,0.3s0,0.2,0.1,0.2c0.2,0.1,0.3,0.1,0.5-0.1c0,0,0-0.1,0-0.2
		S138.9,127.2,138.8,127.2z"/>
	<path class="st0" d="M136.6,127.6L136.6,127.6"/>
	<path class="st4" d="M136.7,127.6c-0.1,0.1,0.2,0.2,0.3,0.1c0,0,0,0,0-0.1C136.9,127.5,136.8,127.4,136.7,127.6z"/>
	<path class="st4" d="M140,128.1c-0.1,0.1,0.1,0.2,0.2,0.3h0.1c0.1,0.1,0.3,0.2,0.4,0.3c0.2,0,0.5,0,0.4-0.3l0,0
		c0,0.1-0.2,0.1-0.3-0.1c0-0.1,0-0.1,0-0.2c-0.1,0-0.1,0-0.2,0S140.1,128,140,128.1z"/>
	<path class="st4" d="M132.3,123.5c-0.2,0.1,0,0.4,0.3,0.5c0.3-0.2,0.5-0.4,0.7-0.4c0.2-0.1,0.5-0.3,0.5-0.5c0-0.3-0.1-0.5-0.2-0.6
		c-0.1-0.1-0.3-0.1-0.5-0.1c-0.3,0-0.3,0.3-0.5,0.3s-0.4,0.1-0.3,0.3c0,0.1,0,0.1,0.1,0.2C132.4,123.3,132.5,123.4,132.3,123.5z"/>
	<path class="st4" d="M134.1,122.5c0.1,0,0.2,0.1,0.3,0.1c0.3,0.1,0.6,0.2,0.4,0.3s-0.6,0.4-0.7,0.6c-0.1,0.2,0.5,0.3,0.5,0.3
		s-0.2,0.2,0,0.3c0.1,0.1,0.2-0.2,0.5-0.2c0.2,0,0.7,0.1,0.9,0.1s0.6-0.3,0.6-0.5s-0.3-0.5-0.6-0.6c-0.1,0-0.2-0.1-0.3-0.3
		c-0.2-0.2-0.3-0.4-0.4-0.5c-0.2-0.1,0.2-0.4,0-0.6s-0.3-0.2-0.6-0.3c-0.2-0.1-0.4,0-0.6,0.2c-0.1,0.2-0.3,0-0.5,0
		c-0.2,0.1-0.1,0.4,0,0.5C133.6,122.1,133.8,122.4,134.1,122.5z"/>
	<path class="st4" d="M123.5,106.6c-16.3,0-29.5,13.2-29.5,29.5s13.2,29.5,29.5,29.5s29.5-13.2,29.5-29.5S139.8,106.6,123.5,106.6z
		 M112,148.1c0,0.1-0.1,1-0.2,1.5s0.1,0.9-0.1,1.1c-0.2,0.1-0.4,0.3-0.2,0.5c0.2,0.2-0.2,0.3-0.2,0.4c0,0.1,0.2,0.5,0.1,0.7
		s-0.2,0.5-0.3,0.7s-0.3,0.3-0.2,0.6s-0.2,0.2-0.2,0.4c0,0.3,0.3,0.1,0.2,0.5c-0.1,0.3-0.2,0.4-0.2,0.6s0.1,0.5,0.1,0.6
		s-0.1,0.4-0.3,0.6c-0.2,0.2-0.3,0.4-0.3,0.5s0.2,0.3,0.2,0.4c0,0.1-0.3,0.4-0.3,0.6s0.3,0.1,0.3,0.3c0.1,0.1-0.3,0.3-0.2,0.4
		c0.2,0.1,0.4,0.1,0.3,0.5c-2.1-1.2-4-2.6-5.7-4.3c-4.9-4.9-7.7-11.5-7.7-18.5c0-1.2,0.1-2.5,0.3-3.7c0.1,0.1,0.3,0.2,0.2,0.4
		c0,0.2,0.2,0.2,0.3,0.3c0.1,0,0.4,0.5,0.6,0.3c0.3-0.2-0.3-0.6-0.5-0.7c-0.2-0.1,0-0.5-0.4-0.8c-0.1-0.1-0.1-0.1-0.2-0.2
		c0-0.1,0-0.3,0.1-0.4c0.2,0.2,0.5,0.5,0.7,0.6c0.3,0.2,0.7,1,0.9,1c0.2,0,0.5,0.5,0.5,0.5s0.2,0.4,0.1,0.5s0.1,0.5,0.3,0.7
		c0.2,0.1,1,0.5,1.1,0.5c0.1,0.1,0.3,0.5,0.7,0.5c0.3,0,0.5,0,0.6,0.1s0.3,0.4,0.5,0.2s0.2-0.3,0.5-0.3s0.4,0.2,0.5,0.3
		s0.5,0.5,0.7,0.5s0.5,0.2,0.6,0.1c0.1-0.1,0.4,0.1,0.5,0.1c0.1,0.1,0.5,0.3,0.5,0.6s0.2,0.4,0.4,0.5c0.2,0.1,0.4,0.3,0.5,0.4
		c0.1,0.1,0.5,0.2,0.5,0.3c0.1,0.1,0.1,0.3,0.4,0.1c0.3-0.1,0.2-0.4,0.2-0.4s0.3-0.1,0.4,0.1c0.1,0.1,0.2,0.5,0.3,0.5
		c0.1,0.1,0.3,0.5,0.1,0.8c-0.1,0.3-0.1,0.6-0.2,0.6s-0.3,0.4-0.4,0.5c-0.2,0.1-0.6,0.5-0.6,0.6s0.3,0.6,0.2,0.8
		c-0.1,0.2-0.4,0.4-0.3,0.7s0.7,0.4,0.7,0.7s0.5,0.9,0.5,1.2c0.1,0.3,0.5,0.6,0.5,1s0.7,0.7,0.8,0.7s0.4,0.3,0.6,0.4
		c0.2,0.1,0.4,0.3,0.5,0.5C112.1,147.6,112,148,112,148.1z M146.9,130.3c-0.3,0.3-0.2,0.4-0.5,0.4c-0.1,0-0.3,0-0.4,0
		c0.6-0.2,0.5-0.3,0.3-0.2c-0.3,0.1-0.8,0.1-1.1,0.4c-0.3,0.3-0.4,0.4-0.5,0.3c-0.1-0.1,0.8-0.6,0.7-0.7c-0.1-0.1-0.8-0.1-1.2-0.1
		s-0.7-0.2-1-0.3s-0.7,0.3-0.9,0.6c-0.3,0.3-0.5,0.1-0.7,0.1c-0.3,0-0.7-0.4-0.7-0.4s-0.5-0.2-0.7-0.2s-0.6-0.4-0.7-0.4
		c-0.1,0-0.4-0.3-0.2-0.4c0.2-0.1,0.5,0.1,0.2-0.5c-0.2-0.6-0.7-0.5-1-0.4c-0.2,0.1-1.6,0.1-1.8,0.1c-0.1,0-0.9,0.3-1.2,0.4
		c-0.3,0.1-0.7,0.3-0.8,0.3c-0.1,0.1-0.7-0.1-1,0c-0.3,0.2-0.7,0.5-0.7,0.5c-0.1,0-0.3,0.2-0.5,0.6c-0.2,0.4,0,0.8-0.3,1
		c-0.3,0.1-0.9,0.5-1.1,0.7s-0.5,1-0.8,1.4s0,0.7,0.1,0.9s0.3,0.7-0.1,1.1c-0.3,0.4-0.3,0.6-0.4,0.6c-0.1,0,0.1,0.1,0.2,0.4
		c0.1,0.3-0.3,0.6,0.3,0.8c0.5,0.3,0.8,0.5,0.9,0.8c0.1,0.3,0.9,0.9,0.9,0.9s0.5,0.5,0.8,0.7s0.3,0.1,0.4-0.1
		c0.1-0.2,0.4-0.2,0.8-0.2c0.4,0,0.7,0.1,1.1,0c0.4-0.1,0.8-0.3,1-0.4c0.1-0.1,0.6-0.4,1-0.1c0.4,0.2,0.3,0.5,0.5,0.7
		s0.5,0.1,0.8-0.1s0.1-0.1,0.5,0.1c0.3,0.2,0.5,0.3,0.2,0.6c-0.1,0.1-0.2,0.3-0.2,0.5s0,0.4-0.1,0.6c-0.2,0.4-0.1,0.5,0.2,0.6
		c0.3,0.2,0.9,1.2,1.1,1.4c0.2,0.2-0.1,0.8,0.1,1.1c0.2,0.3,0.4,0.6,0.2,0.7c-0.2,0.2-0.6,0.5-0.7,1.1c0,0.6,0.1,1,0.2,1.2
		c0.1,0.2,0.4,0.7,0.5,1c0.1,0.2,0.3,0.7,0.3,1s-0.1,0.7,0.1,0.9c0.1,0.2,0.2,0.4,0.5,0.7c0.3,0.2,0.3,0.7,0.3,0.7s0.1,0.2,0.1,0.5
		s0.1,0.5,0.3,0.7c0.3,0.1,0.5,0.2,0.6,0c0.1-0.1,0.4-0.1,0.7-0.1c-0.5,0.6-1.1,1.2-1.7,1.8c-4.9,4.9-11.5,7.7-18.5,7.7
		c-3.7,0-7.4-0.8-10.7-2.3c0.2,0,0.3-0.1,0.4-0.1s0.7-0.1,0.8-0.2c0.1-0.1-0.5-0.1-0.7-0.1c-0.3-0.1-0.7-0.5-0.8-0.7
		s-0.1-0.5,0.1-0.6s0.7-0.5,0.8-0.6c0.1-0.1,0.3-0.5,0.2-0.5c-0.1-0.1-0.5,0-0.6-0.1s-0.1-0.2,0.2-0.4s0.4-0.5,0.5-0.6
		s0.3-0.3,0.4-0.5s-0.1-0.1-0.3-0.1c-0.2,0-0.3-0.3-0.3-0.5c0-0.1,0.4,0.1,0.7,0.1c0.3,0.1,0.2-0.1,0.1-0.3c0-0.2,0.1-0.5,0.2-0.4
		c0.2,0.1,1.1,0,1.2-0.1c0.1,0,0.4-0.5,0.5-0.7c0.1-0.1,0.1-0.3,0-0.4c-0.1-0.1-0.3-0.4-0.4-0.5s-0.1-0.6,0-0.7c0.1-0.1,0,0.8,0.4,1
		c0.4,0.1,0.6,0.2,1-0.2c0.4-0.3,0.7-0.6,0.7-0.8s0.1-0.5,0.3-0.5c0.1-0.1,0.2,0.2,0.4-0.1c0.2-0.4,0.3-0.3,0.5-0.7
		c0.2-0.3-0.3-0.7,0.1-1c0.3-0.2,0.9-0.5,0.9-0.5s0.2-0.1,0.5-0.2c0.3-0.1,0.7,0,0.8-0.2s0.2-0.5,0.4-0.7c0.2-0.2,0.4-0.5,0.3-0.7
		c-0.1-0.1,0.2-0.8,0.2-0.9c0-0.2-0.3-0.6,0.1-0.9c0.4-0.3,0.9-0.9,0.9-1s0.4-0.7,0.3-1c0-0.3-0.3-0.6-0.5-0.7
		c-0.2-0.1-0.6-0.1-0.8-0.3c-0.2-0.2-0.7-0.5-0.8-0.4c-0.2,0.1-0.5,0.1-0.7,0s-0.6-0.3-0.7-0.4c-0.1-0.1-0.5-0.2-0.7-0.2
		s-0.1-0.1-0.4,0.2s0,0.5-0.5,0.4s0.1-0.1,0.3-0.4c0.3-0.3,0-0.5-0.3-0.5c-0.3,0.1-0.1,0.3-0.5,0.3c-0.5,0.1-0.5-0.2-0.2-0.3
		s0.8-0.3,0.8-0.4c0-0.1-0.1-0.4-0.3-0.4c-0.2,0-0.2-0.3-0.5-0.7s-0.8-0.6-1.1-0.5c-0.3,0.1-0.6,0.1-0.8-0.2s-0.4-0.4-0.5-0.5
		c-0.1-0.2-0.4,0-0.5-0.1s-0.1-0.1-0.1-0.1s-0.4,0.1-0.2-0.2c0,0,0.1-0.1,0.1-0.2c0.1-0.3,0.2-0.6,0.1-0.6s-0.2,0.4-0.4,0.4
		c-0.1,0,0-0.1-0.3-0.3s-0.7,0-0.7,0.1s-0.1,0.3-0.1,0.3s-0.1-0.1-0.2-0.3s-0.5-0.2-0.7,0s-0.3-0.4-0.5-0.4c-0.1,0-0.4,0.1-0.6,0.4
		c-0.1,0.1-0.1,0.2-0.1,0.4c0,0.1,0,0.3-0.1,0.2c-0.1,0-0.1-0.1-0.1-0.2c0-0.2,0-0.3,0-0.4c0-0.2,0.3-0.5,0.1-0.5
		c-0.2-0.1-0.6,0.3-0.7,0.3s-0.4,0.2-0.6,0.5c-0.1,0.1-0.1,0.1-0.1,0.2c-0.1,0.1-0.2,0.2-0.3,0.3c-0.2,0.1-0.4,0-0.4-0.1
		c0,0-0.1-0.1-0.2-0.2c-0.2-0.1-0.3-0.2-0.4-0.1l-0.1,0.1c-0.1,0.1-0.3,0.1-0.5,0.2c-0.2,0.1-0.4-0.1-0.5-0.2
		c-0.1-0.1-0.2-0.1-0.2-0.5s0.1-0.8,0.1-1c0.1-0.2-0.4-0.7-0.6-0.7s-0.4,0.2-0.6,0.2s-0.1-0.1-0.4-0.1s-0.1-0.1,0-0.3
		c0.1-0.3-0.1-0.6,0.2-0.8c0.3-0.2,0.2-0.8,0-0.8s-0.6,0.1-0.8,0.1c-0.3,0-0.5,0.2-0.4,0.5s-0.1,0.4-0.2,0.4s-0.2-0.2-0.5,0.1
		c-0.3,0.2-0.4,0.1-0.7-0.1c-0.3-0.3-0.7-0.5-0.7-0.9c-0.1-0.4-0.1-0.8,0-1s0.1-0.6-0.1-0.7c-0.2-0.1,0.2-0.3,0.4-0.4
		c0.2-0.1,0.5-0.3,0.6-0.4c0.1-0.1,0.3-0.1,0.7-0.1c0.3,0,0.4,0,0.7,0.2c0.3,0.2,0.4-0.1,0.4-0.2c0-0.1,0.1-0.3,0.5-0.2
		c0.3,0,0.8-0.1,0.9,0s0.3,0.4,0.4,0.3c0.2-0.1,0.2-0.3,0.3,0c0.1,0.3,0.2,0.9,0.5,1s0.1,0.4,0.4,0.5c0.3,0,0.4-0.5,0.3-0.7
		s-0.3-0.8-0.4-1c-0.1-0.1-0.1-0.5,0.1-0.6c0.3-0.1,1-0.7,1.2-0.9s0.7-0.3,0.6-0.5c-0.2-0.2-0.2-0.4-0.2-0.5c0-0.2,0.2-0.1,0.3,0
		c0.1,0.1,0.4-0.2,0.3-0.3s-0.1-0.3,0.1-0.3s0.3-0.1,0.2-0.3c-0.1-0.1,0.2-0.3,0.4-0.2c0.2,0.1,0.7,0,0.8-0.1
		c0.1-0.1-0.2-0.2-0.2-0.5c0-0.2,0.3-0.4,0.5-0.5c0.2,0,0.5,0,0.5-0.1s0.3-0.3,0.3-0.1s0,0.5,0.2,0.5s0.5-0.3,0.6-0.3
		s0.6-0.1,0.7-0.2c0.1,0,0.8-0.1,0.7-0.3c-0.1-0.2-0.2-0.4-0.3-0.5c-0.1-0.1-0.2,0-0.3,0.2c-0.1,0.1-0.3,0.1-0.4,0s0-0.5-0.2-0.3
		c-0.2,0.1-0.2,0.2-0.3,0.2c-0.1-0.1-0.2-0.3-0.2-0.3s0.3-0.1,0.1-0.4c-0.2-0.3-0.5-0.2-0.8-0.1s-0.3,0.1-0.6,0.2
		c-0.3,0.1-0.5,0.2-0.5,0.2s0.5-0.3,0.7-0.5s0.5-0.3,0.6-0.4c0.2-0.2,0.6,0.1,0.6,0.1s0.2-0.2,0.2-0.1s-0.1,0.5,0.1,0.5
		s0.7-0.2,0.5-0.3s0.3,0,0.5-0.1s0.4-0.1,0.5-0.2s0.2-0.3,0.4-0.3c0.2,0,0.3,0.3,0,0.4c-0.3,0.2-0.3,0.6-0.5,0.7
		c-0.1,0.1-0.1,0.3,0.2,0.2c0.2,0,0.4,0,0.6,0c0.2-0.1,0.3,0.1,0.4,0.1c0.1,0.1,0.2-0.1,0.2-0.1s0.4-0.1,0.5,0.1
		c0.1,0.1,0.2-0.1,0.1-0.2s-0.2-0.3-0.3-0.5c-0.1-0.2-0.2-0.2-0.4-0.2c-0.2,0.1-0.3-0.1-0.4-0.1c-0.1-0.1-0.3,0.1-0.1-0.1
		c0.1-0.2,0.2-0.3,0.3-0.4c0.1-0.2,0.5-0.5,0.1-0.6s-0.5-0.1-0.5-0.3c-0.1-0.2-0.5-0.5-0.6-0.5s-0.5,0-0.5-0.1s-0.3-0.5-0.5-0.6
		c-0.1-0.1-0.7-0.8-0.8-0.8c-0.1-0.1-0.2,0-0.5,0.3s-0.5,0.4-0.7,0.3s-0.2-0.1-0.4-0.3c-0.2-0.2,0.2-0.3,0.1-0.4s-0.5-0.2-0.8-0.2
		s-0.5-0.3-0.9-0.4c-0.4,0-0.9,0.1-1.1,0.1c-0.1,0-0.1,0.2-0.2,0.5s0.2,0.4-0.1,0.5c-0.3,0.1-0.4,0.1-0.1,0.2s0.6,0.6,0.6,0.6
		s0,0.3-0.2,0.4s-0.4,0.3-0.5,0.1c-0.1-0.2-0.4-0.1-0.3,0c0.1,0.2,0.3,0.3,0.3,0.4c0,0.2,0.3,0.6,0.1,0.7c-0.2,0.1-0.4,0-0.5,0.1
		c-0.1,0-0.3-0.2-0.2-0.3s0-0.5,0-0.5s-0.3,0.5-0.3,0.2s-0.1-0.3-0.1-0.5s-0.2-0.3-0.4-0.2c-0.3,0.1-0.6-0.1-1.1-0.2
		s-0.7-0.1-1.1-0.3c-0.4-0.2-0.5-0.1-0.7,0c-0.2,0-0.1-0.4-0.4-0.5s-0.4,0.1-0.5-0.3s0.1-0.5,0.7-0.9s0.5-0.6,1-0.6
		c0.5-0.1,0.7,0.1,0.7-0.1c0-0.1,0.1-0.7,0.1-0.4c0,0.3,0.6,0.3,0.3,0.5c-0.3,0.2-0.1,0.2,0.1,0.2s0.6-0.2,0.6-0.2s0.5-0.2,0.6,0
		s0.1,0.3,0.3,0.3c0.2,0,0.6-0.2,0.3-0.4c-0.4-0.2-0.6-0.2-0.8-0.4c-0.2-0.2-0.2-0.1-0.4-0.1c-0.3,0.1-0.3-0.1-0.3-0.1
		c-0.1,0-0.2,0.1-0.3-0.1c-0.1-0.1,0-0.1,0.3-0.1s0.6,0.1,0.6,0.1s0.3-0.1,0.4-0.1s0.5-0.1,0.5-0.3c-0.1-0.3-0.4-0.3-0.5-0.3
		c-0.1-0.1,0.2-0.2,0.3-0.3s0.5,0,0.5,0s0.3,0,0.3-0.1s-0.1-0.3,0.1-0.2c0.2,0.1,0,0.3,0.3,0.3c0.3-0.1,0.3,0,0.5,0.1
		c0.1,0.1,0,0.4-0.2,0.5c-0.1,0.1-0.4,0.2-0.1,0.2s0.5,0,0.5,0s0.2-0.2,0.3-0.4c0.1-0.2,0.2-0.1,0.3,0c0.1,0.1,0.5,0.1,0.1,0.3
		c-0.4,0.1-0.5,0.3-0.6,0.4s-0.1,0.2-0.5,0.1s-0.6-0.1-0.7,0.1c-0.1,0.1,0,0.6,0.1,0.5s0.3-0.1,0.5-0.1c0.2-0.1,0.9,0.1,1,0
		c0.2,0,0.5,0.3,0.5,0.2c0.1-0.1,0.3,0.1,0.4,0.2c0.2,0.1,0.1-0.3,0.4,0c0.3,0.2,0.1,0.2,0.3,0.2c0.2,0,0.5,0,0.5,0s0-0.3,0.3-0.2
		s0.5,0.4,0.5,0.1c0-0.2,0-0.4-0.2-0.6s-0.6-0.3-0.7-0.4s-0.1-0.2,0-0.3c0.1-0.1,0.5,0,0.7,0.2c0.2,0.1,0.4,0.3,0.6,0.2
		c0.2-0.1,0.4-0.2,0.5-0.3c0.1-0.1,0.3-0.3,0.3-0.3s-0.9-0.1-1-0.3c-0.1-0.1-0.5-0.3-0.6-0.3s-0.4,0.2-0.5-0.1
		c-0.1-0.3-0.1-0.6-0.2-0.7c-0.1,0-1.3-0.2-1.5-0.3s-0.9-0.3-1.1-0.4c-0.3-0.1-0.6-0.3-0.9-0.3c-0.2,0-1.2,0.1-1.4,0.1
		c-0.2,0-0.7,0.1-0.9,0.1c-0.2,0,0.3,0.4-0.2,0.5c-0.4,0.1-0.4,0.1-0.3-0.3c0-0.1,0-0.3-0.1-0.3c0.1-0.1,0.2-0.2,0.4-0.3
		c0.4,0,1,0.1,1.3,0.1c0.4,0,0.4-0.1,0.5-0.2c0-0.1-0.7-0.2-0.8-0.2s-0.2,0-0.5,0c4.6-3.6,10.2-5.6,16.1-5.6
		c6.9,0,13.5,2.7,18.4,7.6c-0.4,0.1-0.8,0.2-0.8,0.3c-0.1,0.1-0.3,0.4-0.7,0.7s-1.1,0.9-1.6,1.1c-0.5,0.1-1.2,0.6-1.2,0.7
		s0.2,0.5,0.2,0.6c-0.1,0.1,0.1,0.5,0.4,0.6c0.3,0.1,0.9,0.1,0.9-0.1s0.5-0.5,0.5-0.3c0,0.3,0.3,0.7,0.3,0.8c-0.1,0.2,0,0.3,0.2,0.3
		s1.3-0.3,1.3-0.3s0.3-0.1,0.3-0.4c-0.1-0.2,0.4-0.5,0.5-0.6s0.4-0.4,0-0.5s-0.7-0.1-0.3-0.5c0.4-0.3,0.7,0,1.2-0.5
		c0.3-0.3,0.2-0.5,0.2-0.6c0.2,0.2,0.3,0.3,0.4,0.5c-0.1,0.1-0.3,0.1-0.4,0.2c-0.4,0.2-0.3,0.5-0.2,0.7s0.2,0.6,0.5,0.5
		s0.6-0.3,0.9-0.2h0.1c0.1,0.2,0.2,0.3,0.3,0.5c-0.1,0-0.1,0-0.2,0c-0.5,0-1,0-1,0.1s0.7,0.3,0.4,0.4c-0.2,0.1-0.5,0-0.7-0.1
		c-0.3,0-0.5,0.4-0.5,0.6c-0.1,0.2,0.1,0.6-0.3,0.5c-0.4-0.1-0.7-0.1-0.9-0.1c-0.1,0.1-0.5,0.2-0.7,0.3c-0.3,0.1-0.2-0.1-0.5-0.1
		c-0.4,0-0.4,0-0.4,0h-0.2c0,0-0.2-0.1-0.3-0.4c0-0.2,0.1-0.5,0-0.5c-0.1-0.1-0.7,0-0.7,0.2c-0.1,0.2-0.2,0.5-0.1,0.6
		c0.1,0.1,0.5,0.4,0.1,0.3c-0.3-0.1-0.7-0.1-0.9,0.1s-0.6,0.5-0.6,0.5s-0.7,0.1-0.7,0.2c0,0.2,0,0.4-0.3,0.4s-0.6,0.1-1,0.2
		c-0.3,0.1-0.3,0.2-0.7,0.2s-0.5,0.2-0.1,0.3c0.4,0.1,0.9,0.3,1,0.5c0,0.3,0,0.5-0.2,0.8c-0.1,0.2-0.7,0.1-1,0.1s-1-0.1-1.3,0
		c-0.1,0.1-0.2,0.2-0.2,0.4s0,0.4,0.1,0.5c0.1,0.3,0,0.4-0.1,0.5s-0.1,0.3,0,0.5c0.1,0.1,0.3,0.4,0.4,0.4c0.1,0,0.5-0.1,0.6,0.1
		c0.1,0.1,0.3,0.5,0.4,0.4c0.1-0.1,0.2-0.5,0.3-0.4s0.5,0,0.7-0.1c0.3,0,0.4-0.3,0.7-0.5c0.3-0.1,0.1-0.1,0-0.3s0.3-0.4,0.5-0.6
		s0.6,0,0.7-0.3c0-0.1,0.1-0.2,0.1-0.3c0-0.2,0.1-0.3,0.3-0.3s0.5,0.2,0.7,0.2s0.6-0.3,0.7-0.4c0.1-0.1,0.5,0,0.6,0.2
		c0,0.1,0.1,0.2,0.2,0.3c0.2,0.2,0.4,0.3,0.5,0.4s0.9,0.3,1,0.4s0.2,0.2,0.3,0.4c0,0.1,0,0.1,0,0.2c0.1,0.2,0.2,0.2,0.3,0.1
		c0,0,0,0,0-0.1c0-0.2-0.1-0.6,0.1-0.5c0.2,0,0.4-0.1,0.4-0.1s-0.5-0.4-0.7-0.5c-0.1-0.1-0.3-0.1-0.5-0.3c-0.1-0.1-0.2-0.2-0.3-0.3
		c-0.2-0.3-0.6-0.3-0.6-0.6s0.4-0.1,0.7,0.1c0.2,0.2,0.8,0.5,1,0.7s0.5,0.3,0.6,0.5c0.1,0.3,0.3,0.5,0.4,0.7
		c0.1,0.1,0.4,0.7,0.5,0.9c0.1,0.1,0.4,0,0.5-0.1s0.4-0.2,0.4-0.4s-0.3-0.4-0.5-0.5c-0.1-0.1,0.3-0.2,0.4-0.3
		c0.1-0.1,0.4-0.3,0.5-0.1c0.1,0.2,0.1,0.9,0.1,1c0.1,0.1,0.6,0.3,0.7,0.4c0.1,0.1,0.6,0.2,0.7,0.1c0.1-0.1,0.5,0.1,0.7,0.1
		c0.1,0,0.5-0.1,0.7-0.1c0.2-0.1,0.5-0.2,0.4,0.1C147.3,129.5,147.2,130,146.9,130.3z"/>
</g>
</svg>
